<?xml version="1.0" standalone="no"?><!DOCTYPE svg PUBLIC "-//W3C//DTD SVG 1.1//EN" "http://www.w3.org/Graphics/SVG/1.1/DTD/svg11.dtd"><svg class="icon" width="200px" height="200.00px" viewBox="0 0 1024 1024" version="1.1" xmlns="http://www.w3.org/2000/svg"><path d="M512 176.17951184c159.07286282 0 309.30834435 106.0485752 433.0316821 300.47096309 8.83738127 17.67476253 8.83738127 44.18690634 0 61.86166888-123.72333775 203.25976915-273.9588193 300.47096309-433.0316821 300.47096309s-309.30834435-106.0485752-433.0316821-300.47096309c-8.83738127-17.67476253-8.83738127-35.34952507 0-53.02428762C202.69165565 282.22808705 352.92713718 176.17951184 512 176.17951184z m0 176.74762534C423.62618732 352.92713718 352.92713718 423.62618732 352.92713718 512S423.62618732 662.23548155 512 662.23548155s159.07286282-70.69905013 159.07286282-159.07286282S600.37381268 352.92713718 512 352.92713718zM512 423.62618732c53.02428761 0 88.37381268 35.34952507 88.37381268 88.37381268s-44.18690634 88.37381268-88.37381268 88.37381268-88.37381268-35.34952507-88.37381268-88.37381268 35.34952507-88.37381268 88.37381268-88.37381268z" /></svg>
