<?xml version="1.0" encoding="utf-8"?>
<!-- Generator: Adobe Illustrator 24.2.0, SVG Export Plug-In . SVG Version: 6.00 Build 0)  -->
<svg version="1.1" id="图层_1" xmlns="http://www.w3.org/2000/svg" xmlns:xlink="http://www.w3.org/1999/xlink" x="0px" y="0px"
	 viewBox="0 0 200 200" style="enable-background:new 0 0 200 200;" xml:space="preserve">
<style type="text/css">
	.st0{fill:#FFFFFF;}
</style>
<g>
	<path class="st0" d="M170.8,104.9c-1.1,0.5-2.7,0.5-3.2-0.5s-0.5-2.7,0.5-3.2s2.7-0.5,3.2,0.5C172.4,102.7,171.9,104.3,170.8,104.9
		z M158.9,113.5c-1.1,0.5-2.7,0.5-3.2-0.5s-0.5-2.7,0.5-3.2s2.7-0.5,3.2,0.5S160,113,158.9,113.5z M147,122.2
		c-1.1,0.5-2.7,0.5-3.2-0.5s-0.5-2.7,0.5-3.2s2.7-0.5,3.2,0.5C148.6,120,148.1,121.6,147,122.2z M135.1,130.8
		c-1.1,0.5-2.7,0.5-3.2-0.5s-0.5-2.7,0.5-3.2s2.7-0.5,3.2,0.5S136.2,130.3,135.1,130.8z M123.2,140c-1.1,0.5-2.7,0.5-3.2-0.5
		s-0.5-2.7,0.5-3.2s2.7-0.5,3.2,0.5C124.3,137.3,124.3,138.9,123.2,140z M110.8,148.6c-1.1,0.5-2.7,0.5-3.2-0.5s-0.5-2.7,0.5-3.2
		s2.7-0.5,3.2,0.5S111.9,147.6,110.8,148.6z M98.9,157.3c-1.1,0.5-2.7,0.5-3.2-0.5s-0.5-2.7,0.5-3.2s2.7-0.5,3.2,0.5
		C100.5,155.1,100,156.2,98.9,157.3z M87,165.9c-1.1,0.5-2.7,0.5-3.2-0.5s-0.5-2.7,0.5-3.2s2.7-0.5,3.2,0.5S88.1,165.4,87,165.9z
		 M75.1,174.6c-1.1,0.5-2.7,0.5-3.2-0.5s-0.5-2.7,0.5-3.2c1.1-0.5,2.7-0.5,3.2,0.5S76.2,174.1,75.1,174.6z M28.6,111.9
		c-1.1,1.1-2.7,0.5-3.8-0.5s-0.5-2.7,0.5-3.8c1.1-1.1,2.7-0.5,3.8,0.5S29.7,111.4,28.6,111.9z M136.2,34.1c-1.1,0.5-2.7,0.5-3.2-0.5
		c-0.5-1.1-0.5-2.7,0.5-3.2c1.1-0.5,2.7-0.5,3.2,0.5C137.3,31.9,137.3,33.5,136.2,34.1z M124.3,42.7c-1.1,0.5-2.7,0.5-3.2-0.5
		c-0.5-1.1-0.5-2.7,0.5-3.2c1.1-0.5,2.7-0.5,3.2,0.5C125.4,40.5,125.4,42.2,124.3,42.7z M111.9,51.9c-1.1,0.5-2.7,0.5-3.2-0.5
		c-0.5-1.1-0.5-2.7,0.5-3.8c1.1-0.5,2.7-0.5,3.2,0.5C113,49.2,113.5,50.8,111.9,51.9z M100,60.5c-1.1,0.5-2.7,0.5-3.2-0.5
		c-0.5-1.1-0.5-2.7,0.5-3.2s2.7-0.5,3.2,0.5S101.1,59.5,100,60.5z M88.1,69.2c-1.1,0.5-2.7,0.5-3.2-0.5c-0.5-1.1-0.5-2.7,0.5-3.2
		c1.1-0.5,2.7-0.5,3.2,0.5S89.2,68.1,88.1,69.2z M76.2,77.8c-1.1,0.5-2.7,0.5-3.2-0.5c-0.5-1.1-0.5-2.7,0.5-3.2s2.7-0.5,3.2,0.5
		S77.3,77.3,76.2,77.8z M64.3,86.5c-1.1,0.5-2.7,0.5-3.2-0.5s-0.5-2.7,0.5-3.2c1.1-0.5,2.7-0.5,3.2,0.5S65.4,85.9,64.3,86.5z
		 M51.9,95.1c-1.1,0.5-2.7,0.5-3.2-0.5c-0.5-1.1-0.5-2.7,0.5-3.2s2.7-0.5,3.2,0.5C53.5,93,53,94.6,51.9,95.1z M40,104.3
		c-1.1,1.1-2.7,0.5-3.8-0.5s-0.5-2.7,0.5-3.8c1.1-1.1,2.7-0.5,3.8,0.5C41.6,101.6,41.1,103.2,40,104.3z"/>
</g>
<g>
	<path class="st0" d="M100,199.2c-54.7,0-99.3-44.5-99.3-99.3S45.2,0.7,100,0.7s99.3,44.5,99.3,99.3S154.7,199.2,100,199.2z
		 M100,5.7C48,5.7,5.7,48,5.7,99.9c0,52,42.3,94.3,94.3,94.3c52,0,94.3-42.3,94.3-94.3C194.2,48,151.9,5.7,100,5.7z"/>
</g>
<g>
	<path class="st0" d="M100,187.9c-47.7,0-86.5-39.5-86.5-88S52.3,12,100,12c47.7,0,86.5,39.5,86.5,88S147.7,187.9,100,187.9z
		 M100,14.9c-46.1,0-83.5,38.1-83.5,85s37.5,85,83.5,85c46.1,0,83.5-38.1,83.5-85S146,14.9,100,14.9z"/>
</g>
<g>
	<path class="st0" d="M54.5,136.4l7.1,10.4c1.3,1.3,1.9,1.9,3.9,0.6l18.8-13c0.6-0.6,1.3-1.3,1.3-1.9c0-1.3-1.3-3.2-3.2-7.8l4.5-1.3
		c2.6,5.2,4.5,8.4,3.9,9.7c-0.6,1.3-1.3,2.6-2.6,3.9l-20.7,14.9c-3.2,1.9-5.8,1.9-8.4-1.9l-13.6-19.4l3.9-2.6l3.9,5.2l19.4-13.6
		l-6.5-9.1l-24.6,17.5l-2.6-3.2l28.5-20.1l11,15.6C78.4,120.2,54.5,136.4,54.5,136.4z M84.9,92.3c0.6,1.9,0.6,3.9,1.3,5.2l6.5-4.5
		l-4.5-6.5l3.9-2.6l4.5,6.5l12.3-8.4l2.6,3.2l-12.3,8.4l1.3,1.9c1.3,1.9,1.9,3.2,2.6,5.2l15.6-10.4l2.6,3.2l-13.6,9.7
		c5.2,3.9,13,4.5,22,1.9v4.5c-10.4,1.9-18.1,1.3-24.6-3.2c0.6,2.6,1.3,5.2,1.3,7.8c0,5.2-2.6,11-7.1,16.9l-3.9-1.9
		c4.5-5.8,6.5-11.7,6.5-16.2c0-1.9-0.6-3.9-1.3-5.8l-13.6,9.7l-2.6-3.2l14.3-9.7c-0.6-1.9-1.9-3.2-2.6-5.2l-1.3-1.9l-8.4,5.8
		c0,3.2,0,5.8-0.6,8.4l-3.9-1.3c1.3-5.2,1.3-11-0.6-16.9L84.9,92.3L84.9,92.3z M124.5,67l7.1-5.2l2.6,3.2L116,78l-2.6-3.2l7.1-5.2
		l-3.9-1.9l3.2-3.2C121.2,65.1,122.5,65.7,124.5,67z M125.7,74.8c0.6,4.5,1.3,9.1,0.6,13h-4.5c0.6-3.9,0.6-7.8-0.6-12.3L125.7,74.8z
		 M127.7,74.1l0.6-3.9c1.9,0,5.2,0.6,9.1,1.9l-0.6,3.9C133.5,75.4,130.3,74.8,127.7,74.1z M134.8,85.2c0-1.9-0.6-4.5-1.3-6.5
		l3.9-0.6l1.9,7.8c2.6,0.6,5.2,0.6,7.1,1.3l-0.6,4.5c-1.9-0.6-4.5-1.3-6.5-1.3c0,5.2-0.6,9.7-3.2,14.3l-4.5-1.9
		c1.9-3.9,3.2-8.4,3.2-13c-2.6-0.6-5.2-0.6-7.1-0.6l0.6-3.9C130.3,84.5,132.9,84.5,134.8,85.2L134.8,85.2z M142.6,72.8v4.5l-4.5-1.3
		c0-5.8-2.6-12.3-6.5-20.1l3.9-1.9c1.3,1.9,1.9,3.9,2.6,5.8l10.4-7.1L151,56l-2.6,1.9c3.9,5.8,5.8,11.7,6.5,17.5
		c4.5,1.9,8.4,2.6,12.3,2.6v4.5c-3.9,0-8.4-0.6-12.3-2.6c0,4.5-1.3,9.7-3.9,14.3l-4.5-1.9c2.6-4.5,3.9-9.1,3.9-14.3
		C147.8,76.7,145.2,74.8,142.6,72.8L142.6,72.8z M141.3,66.4c3.2,2.6,6.5,5.2,9.1,7.1c-0.6-4.5-2.6-8.4-5.2-13l-4.5,3.2
		C140.7,65.1,140.7,65.7,141.3,66.4z"/>
	<path class="st0" d="M63.6,154c-2,0-3.7-1.2-5.3-3.6l-14.1-20.1l5.2-3.5l3.9,5.2l18.2-12.7l-5.6-7.8L41.3,129l-3.6-4.5l29.8-21
		l11.9,16.9l-24,16.2l6.6,9.7c1.2,1.2,1.5,1.4,2.8,0.5l18.7-12.9c0.4-0.4,1-1,1-1.3c0-0.6-0.5-1.7-1.3-3.3c-0.5-1.1-1.2-2.4-1.9-4.1
		l-0.4-0.8l6-1.7l0.3,0.6c0.5,0.9,0.9,1.8,1.3,2.6c2.1,4.1,3.3,6.4,2.6,7.8c-0.7,1.3-1.4,2.7-2.7,4.1l-0.1,0.1l-20.7,14.9
		C66.3,153.5,64.9,154,63.6,154z M46.5,130.7l13.1,18.8c2.4,3.7,4.6,3.4,7.4,1.7l20.6-14.8c1.2-1.2,1.8-2.4,2.4-3.6
		c0.4-0.7-1.1-3.5-2.6-6.4c-0.3-0.6-0.7-1.3-1-2l-3,0.9c0.6,1.3,1.1,2.4,1.5,3.2c0.9,1.9,1.4,3,1.4,4c0,1-0.8,1.8-1.5,2.5l-0.1,0.1
		l-18.8,13c-2.5,1.7-3.6,0.5-4.9-0.7l-0.1-0.1l-7.6-11l24-16.2l-10.1-14.3L40,124.9l1.6,2l24.7-17.5l7.4,10.4L53,134.2l-3.9-5.2
		L46.5,130.7z M99.4,132.2l-5.3-2.7l0.6-0.8c4-5.2,6.3-10.9,6.3-15.7c0-1.5-0.4-3-0.9-4.6L86.7,118l-3.6-4.5l2.4-1.6l-4.8-1.6
		l0.2-0.7c1.4-5.4,1.1-11.1-0.6-16.4L80,92.3l5.5-0.9l0.2,0.6c0.3,0.9,0.5,1.9,0.6,2.7c0.1,0.5,0.2,1,0.3,1.5l5-3.5l-4.5-6.5
		l5.2-3.5l4.5,6.5l12.3-8.4l3.6,4.5l-12.4,8.5l0.9,1.3c1.1,1.7,1.8,2.9,2.3,4.4l15.3-10.2l3.6,4.5l-13.4,9.6
		c4.9,3.1,12.1,3.6,20.5,1.2l1-0.3v6.2l-0.6,0.1c-10.2,1.9-17.5,1.2-23.5-2.3c0.5,2,0.9,4,0.9,6.1c0,5.2-2.5,11.2-7.3,17.3
		L99.4,132.2z M96.5,129l2.5,1.2c4.3-5.7,6.6-11.1,6.6-15.9c0-2.5-0.6-5.1-1.3-7.6l-0.5-2l1.7,1.2c5.8,4.1,13,5.1,23.4,3.2v-2.8
		c-8.9,2.3-16.6,1.5-21.7-2.3l-0.9-0.6l13.8-9.9l-1.6-2l-15.8,10.5l-0.3-1c-0.6-1.9-1.2-3.1-2.5-5l-1.7-2.6l12.3-8.4l-1.6-2
		l-12.4,8.5l-4.5-6.5l-2.6,1.7l4.5,6.5l-7.9,5.5l-0.4-0.8c-0.4-0.8-0.6-1.8-0.8-2.8c-0.1-0.6-0.2-1.2-0.4-1.9l-2.3,0.4
		c1.5,5.1,1.7,10.5,0.6,15.7l2.4,0.8c0.4-2.2,0.4-4.6,0.4-7.4v-0.4l9.4-6.5l1.8,2.8c0.3,0.9,0.7,1.6,1.2,2.4c0.5,0.8,1,1.7,1.4,2.7
		l0.2,0.6l-14,9.6l1.6,2l13.9-9.9l0.3,1c0.7,2,1.3,4,1.3,6.1C102.6,118,100.4,123.7,96.5,129z M87,103.1c0,3.1,0,5.6-0.7,8.2l0,0.1
		l11.3-7.7c-0.3-0.7-0.6-1.3-1-1.9c-0.5-0.8-1-1.6-1.3-2.6l-0.8-1.2L87,103.1z M136.5,105.6l-6-2.5l0.4-0.7c1.4-2.8,3-7,3.1-12
		c-2.3-0.5-4.6-0.5-6.3-0.5h-0.9l0.2-1.3h-6l0.2-0.9c0.7-4.2,0.5-7.9-0.6-11.8l-4.6,3.3l-3.6-4.5l6.7-4.9l-3.7-1.9l4.4-4.4l0.5,0.3
		c1.2,0.6,2.4,1.2,4.2,2.3l7.3-5.3l2.7,3.4c-1.1-2.6-2.3-5.3-3.6-7.8l-0.4-0.7l5.2-2.6l0.4,0.6c1.1,1.7,1.8,3.4,2.4,5l10.1-7
		l3.6,4.4l-2.7,2c3.4,5.3,5.4,10.8,6.1,16.8c3.9,1.6,7.5,2.4,11.6,2.4h0.8v6.1h-0.8c-3.1,0-7.4-0.4-11.6-2.2
		c-0.2,4.5-1.6,9.4-4,13.4l-0.3,0.6l-6-2.6l0.2-0.3c-2-0.7-3.9-1.1-5.4-1.2c-0.1,4.2-0.6,9-3.3,13.8L136.5,105.6z M132.6,102.3
		l3.1,1.3c2-3.7,2.8-7.6,2.8-13.3v-0.8h0.8c2,0,4.4,0.6,5.8,1.1l0.4-2.9c-0.8-0.2-1.8-0.3-2.8-0.5c-1.2-0.2-2.4-0.3-3.7-0.6
		l-0.5-0.1l-1.9-7.5l-2.3,0.4c0.4,1.5,1.1,3.9,1.1,5.9v1.1l-1-0.3c-1.6-0.5-3.8-0.6-5.5-0.1l-0.4,2.5c1.8,0,4.1,0.1,6.4,0.7l0.6,0.1
		v0.6C135.6,94.8,134.1,99.2,132.6,102.3z M147.6,91.9l3.1,1.3c2.2-4.1,3.4-8.9,3.4-13.3v-1.3l1.1,0.6c3.8,1.9,8.1,2.4,11.2,2.5v-3
		c-4.1-0.1-7.9-0.9-11.8-2.6l-0.4-0.2l0-0.5c-0.7-6.2-2.8-11.8-6.4-17.1l-0.4-0.6l2.5-1.9l-1.6-2l-10.6,7.3l-0.3-1
		c-0.6-1.7-1.1-3.4-2.1-5.1l-2.5,1.3c3.2,6.4,6,13.1,6.2,19.1l3,0.8v-5.1l1.3,0.9c2.5,1.9,5.1,3.8,7.7,5.1l0.4,0.2V78
		C151.2,83,150,87.4,147.6,91.9z M140,85.2c1,0.2,2,0.4,3,0.5c1.3,0.2,2.6,0.3,3.7,0.7l0.6,0.2l-0.5,3.3c1.8-3.7,2.6-7.3,2.7-11.3
		c-2.1-1.1-4.2-2.6-6.2-4.1v4l-5.9-1.7l0,0.3l-0.8-0.2c-3.2-0.6-6.5-1.3-9.1-2l-0.7-0.2l0.6-3.9l-5.1,3.6l4.1-0.6l0.1,0.8l-0.8,0.1
		l0.8-0.1c0.6,3.9,1.1,7.9,0.9,11.4l0.3-1.6l0.5-0.1c1.8-0.6,4-0.7,5.9-0.3c-0.1-1.5-0.6-3.3-1.2-5.2l-0.3-0.9l5.5-0.9L140,85.2z
		 M122.8,87h2.9c0.4-3.4-0.1-7.4-0.6-11.3l-2.9,0.4C123.1,79.7,123.3,83.1,122.8,87z M114.6,74.9l1.6,2l16.9-12l-1.6-2l-7,5.1
		l-0.5-0.3c-1.7-1.1-2.8-1.7-3.9-2.3l-2.1,2.1l4.1,2L114.6,74.9z M128.6,73.6c2.2,0.5,4.9,1.1,7.5,1.6l0.4-2.4c-3-1-5.7-1.6-7.5-1.7
		L128.6,73.6z M129.3,69.5c1.9,0.2,4.5,0.7,7.4,1.6c-0.4-1.9-1-3.8-1.7-5.7L129.3,69.5z M151.4,75.3l-1.5-1.1
		c-2.6-1.9-5.8-4.5-9-7.1l-0.2-0.1c-0.9-0.9-0.9-1.8-0.9-3.1v-0.4l5.6-4l0.4,0.8c2.9,5,4.6,8.8,5.3,13.2L151.4,75.3z M141.8,65.8
		L141.8,65.8c2.6,2.1,5.2,4.1,7.4,5.8c-0.8-3.2-2.2-6.2-4.3-9.9l-3.5,2.5C141.5,65.1,141.5,65.4,141.8,65.8z"/>
</g>
</svg>
