<?xml version="1.0" standalone="no"?><!DOCTYPE svg PUBLIC "-//W3C//DTD SVG 1.1//EN" "http://www.w3.org/Graphics/SVG/1.1/DTD/svg11.dtd"><svg t="1653984560098" class="icon" viewBox="0 0 1024 1024" version="1.1" xmlns="http://www.w3.org/2000/svg" p-id="29653" xmlns:xlink="http://www.w3.org/1999/xlink" width="16" height="16"><defs><style type="text/css">@font-face { font-family: feedback-iconfont; src: url("//at.alicdn.com/t/font_1031158_u69w8yhxdu.woff2?t=1630033759944") format("woff2"), url("//at.alicdn.com/t/font_1031158_u69w8yhxdu.woff?t=1630033759944") format("woff"), url("//at.alicdn.com/t/font_1031158_u69w8yhxdu.ttf?t=1630033759944") format("truetype"); }
</style></defs><path d="M860 668l-174-138c78-84 90-204 30-300l-6-6c-36-54-96-90-162-90H470c-66 0-126 30-162 90v6c-54 96-48 216 30 300l-174 138c-6 6-12 12-12 24v120c0 18 6 42 24 54s36 24 54 24l558 6c18 0 42-6 54-24 18-18 24-36 24-60v-120c6-6 0-18-6-24z m-306 102H470v-120c0-24 18-42 42-42s42 18 42 42v120z" p-id="29654"></path></svg>
