<?xml version="1.0" encoding="utf-8"?>
<!-- Generator: Adobe Illustrator 24.2.0, SVG Export Plug-In . SVG Version: 6.00 Build 0)  -->
<svg version="1.1" id="图层_1" xmlns="http://www.w3.org/2000/svg" xmlns:xlink="http://www.w3.org/1999/xlink" x="0px" y="0px"
	 viewBox="0 0 200 200" style="enable-background:new 0 0 200 200;" xml:space="preserve">
<style type="text/css">
</style>
<g id="页面-1">
	<g id="Blue-02-工作台设置-状态" transform="translate(-1060.000000, -890.000000)">
		<g id="编组-40备份" transform="translate(280.000000, 842.000000)">
			<g id="编组-72" transform="translate(776.000000, 44.000000)">
				<g id="拖动" transform="translate(4.000000, 4.000000)">
					<path id="形状" class="st0" d="M93.7,182.1V26.5c0-4.2,3.2-6.3,6.3-6.3c3.2,0,6.3,3.2,6.3,6.3V181c0,4.2-3.2,6.3-6.3,6.3
						C96.8,187.3,93.7,185.2,93.7,182.1z M23.3,98h154.5c4.2,0,6.3,3.2,6.3,6.3c0,4.2-3.2,6.3-6.3,6.3H23.3c-4.2,0-6.3-3.2-6.3-6.3
						C15.9,100.1,19.1,98,23.3,98z M133.6,157.9l-28.4,28.4c-3.2,3.2-7.4,3.2-9.5,0l-28.4-28.4c-3.2-3.2-3.2-7.4,0-9.5
						c3.2-2.1,7.4-2.1,9.5,0l22.1,22.1c1.1,1.1,3.2,1.1,4.2,0l22.1-22.1c3.2-3.2,7.4-3.2,9.5,0C135.7,151.6,135.7,155.8,133.6,157.9
						L133.6,157.9z M66.4,50.7l28.4-28.4c3.2-3.2,7.4-3.2,9.5,0l28.4,28.4c3.2,3.2,3.2,7.4,0,9.5c-3.2,2.1-7.4,2.1-9.5,0l-22.1-22.1
						c-1.1-1.1-3.2-1.1-4.2,0L74.8,60.2c-3.2,3.2-7.4,3.2-9.5,0C64.3,57,64.3,52.8,66.4,50.7L66.4,50.7z M46.4,137.9L18,109.6
						c-3.2-3.2-3.2-7.4,0-9.5l28.4-28.4c3.2-3.2,7.4-3.2,9.5,0c2.1,3.2,2.1,7.4,0,9.5l-22.1,22.1c-1.1,1.1-1.1,3.2,0,4.2l22.1,22.1
						c3.2,3.2,3.2,7.4,0,9.5C53.8,140.1,49.6,140.1,46.4,137.9z M153.6,70.7L182,99.1c3.2,3.2,3.2,7.4,0,9.5l-28.4,28.4
						c-3.2,3.2-7.4,3.2-9.5,0c-2.1-3.2-2.1-7.4,0-9.5l22.1-22.1c1.1-1.1,1.1-3.2,0-4.2l-22.1-22.1c-3.2-3.2-3.2-7.4,0-9.5
						C147.3,68.6,151.5,68.6,153.6,70.7L153.6,70.7z"/>
				</g>
			</g>
		</g>
	</g>
</g>
</svg>
