<?xml version="1.0" standalone="no"?><!DOCTYPE svg PUBLIC "-//W3C//DTD SVG 1.1//EN" "http://www.w3.org/Graphics/SVG/1.1/DTD/svg11.dtd"><svg t="1653984549631" class="icon" viewBox="0 0 1024 1024" version="1.1" xmlns="http://www.w3.org/2000/svg" p-id="29353" xmlns:xlink="http://www.w3.org/1999/xlink" width="16" height="16"><defs><style type="text/css">@font-face { font-family: feedback-iconfont; src: url("//at.alicdn.com/t/font_1031158_u69w8yhxdu.woff2?t=1630033759944") format("woff2"), url("//at.alicdn.com/t/font_1031158_u69w8yhxdu.woff?t=1630033759944") format("woff"), url("//at.alicdn.com/t/font_1031158_u69w8yhxdu.ttf?t=1630033759944") format("truetype"); }
</style></defs><path d="M427.625 169.2265625c42.1875 0 73.828125 31.640625 73.828125 73.828125v242.578125c0 5.2734375 5.2734375 10.546875 10.546875 10.546875h242.578125c42.1875 0 73.828125 31.640625 73.828125 73.828125v158.203125c0 58.0078125-47.4609375 100.1953125-100.1953125 100.1953125H269.421875c-58.0078125 0-100.1953125-47.4609375-100.1953125-100.1953125V269.421875c0-58.0078125 47.4609375-100.1953125 100.1953125-100.1953125h158.203125zM369.6171875 395.984375H301.0625c-10.546875 0-15.8203125 10.546875-15.8203125 15.8203125v279.4921875c0 10.546875 10.546875 15.8203125 15.8203125 15.8203125h279.4921875c10.546875 0 15.8203125-10.546875 15.8203125-15.8203125v-68.5546875c0-5.2734375 0-5.2734375-5.2734375-5.2734375H406.53125c-15.8203125 0-31.640625-15.8203125-31.640625-31.640625V401.2578125c0-5.2734375 0-5.2734375-5.2734375-5.2734375z m379.6875-226.7578125c42.1875 0 73.828125 31.640625 73.828125 73.828125v152.9296875c0 42.1875-31.640625 73.828125-73.828125 73.828125H580.5546875c-31.640625 0-58.0078125-26.3671875-58.0078125-58.0078125V243.0546875c0-42.1875 31.640625-73.828125 73.828125-73.828125h152.9296875z" p-id="29354"></path></svg>
