<?xml version="1.0" encoding="utf-8"?>
<!-- Generator: Adobe Illustrator 24.2.0, SVG Export Plug-In . SVG Version: 6.00 Build 0)  -->
<svg version="1.1" id="图层_1" xmlns="http://www.w3.org/2000/svg" xmlns:xlink="http://www.w3.org/1999/xlink" x="0px" y="0px"
	 viewBox="0 0 200 200" style="enable-background:new 0 0 200 200;" xml:space="preserve">
<style type="text/css">
	.st0{fill:#FFFFFF;}
</style>
<g>
	<path class="st0" d="M85.4,119.5l-3.8-3.1c0.6-6.9,0-13.8-2.5-20.7l4.4-0.6c1.3,3.1,1.9,6.9,2.5,10.6l17.5,25.1l-3.8,1.9
		l-13.8-19.4C86.1,115.7,86.1,117.6,85.4,119.5L85.4,119.5z M94.8,90.7l-2.5-3.8l3.8-2.5l2.5,3.8l10-6.9l2.5,3.1l-10,6.9l1.9,3.1
		l8.8-6.3l7.5,11.3l-8.8,6.3c1.9,3.1,3.1,6.3,3.1,8.1c5-0.6,9.4-2.5,14.4-5.6l1.3,3.8c-5,3.1-10.6,5-15.7,5.6
		c-0.6,3.1-3.1,6.9-6.9,10l-3.8-1.3c3.1-2.5,5-5.6,6.3-8.1c-3.1,0-6.3-0.6-9.4-1.3l1.3-3.8c2.5,0.6,5,1.3,8.1,1.3
		c-0.6-1.9-1.3-3.8-2.5-6.3l-8.1,5.6l-7.5-11.3l8.1-5.6l-1.9-3.1l-9.4,6.3l-2.5-3.1C85.4,96.9,94.8,90.7,94.8,90.7z M101.1,100
		l-5,3.8l3.1,5l5-3.8L101.1,100z M109.9,93.8l-5,3.8l3.1,5l5-3.8L109.9,93.8z M134.9,107.6l-4.4-0.6c0-5-1.9-9.4-5-14.4L113,74.4
		l28.2-20l19.4,27.6c1.9,2.5,1.3,5-1.3,6.9l-4.4,3.1l-3.1-2.5c1.3-0.6,3.1-1.9,4.4-2.5c1.3-0.6,1.3-1.9,0-3.8l-3.8-5.6l-9.4,6.3
		l7.5,10.6l-3.8,2.5l-7.5-10.6l-8.8,6.3C133.7,98.2,135.5,103.2,134.9,107.6L134.9,107.6z M119.3,75.6l3.8,5.6l8.8-6.3l-3.8-5.6
		L119.3,75.6z M129.3,90l8.8-6.3l-3.8-5.6l-8.8,6.3L129.3,90z M139.9,60.6l-9.4,6.3l3.8,5.6l9.4-6.3L139.9,60.6z M146.2,69.4
		l-9.4,6.3l3.8,5.6L150,75L146.2,69.4z"/>
	<path class="st0" d="M99.6,133.8L86.9,116c-0.1,1.3-0.2,2.5-0.6,3.7l-0.4,1.3l-5.2-4.3l0-0.5c0.7-7.3-0.1-13.9-2.5-20.3l-0.4-1.1
		l6.2-0.9l0.3,0.7c0.2,0.5,0.4,1,0.5,1.5l8.6-5.8l-2.5-3.8l5.3-3.5l2.5,3.7l10-6.8l3.6,4.6l-10.1,7l0.9,1.5l8.7-6.2l8.5,12.8
		l-8.8,6.3c1.5,2.6,2.5,5,2.7,6.8c4.2-0.7,8.2-2.3,13.1-5.4l1-0.6l1.8,5.5l-0.6,0.4c-4.7,2.9-10.1,4.9-15.4,5.7
		c-0.9,3.3-3.5,6.9-7.1,9.9l-0.4,0.3l-4.8-1.6l2.8,4.1L99.6,133.8z M85.2,110.3l15,21.1l2.1-1.1L85.2,106l0-0.2
		C84.6,102.4,84,99,83,96l-2.6,0.4c2.1,6.2,2.8,12.6,2.2,19.5l2.3,1.9c0.2-1.3,0.2-2.8,0.2-4.6V110.3z M104.8,126l1.8,0.6
		c3.3-2.9,5.6-6.3,6.2-9.2l0.1-0.6l0.7-0.1c5-0.6,10.2-2.4,14.7-5.1l-0.7-2c-5,3-9.2,4.6-13.8,5.2l-1,0.1v-1c0-1.6-1.2-4.6-3-7.7
		l-0.4-0.7l8.7-6.2l-6.5-9.8l-8.8,6.3L99.9,91l9.9-6.8l-1.4-1.7l-10.1,6.9l-2.5-3.8l-2.2,1.5l2.5,3.8l-9.3,6.2l1.4,1.7l9.5-6.3
		l2.8,4.7l-8.1,5.6l6.5,9.8l8.2-5.7l0.5,0.9c1.3,2.6,1.9,4.5,2.6,6.4l0.4,1.2l-1.3,0c-2.9,0-5.3-0.5-7.5-1.1l-0.7,2
		c2.7,0.5,5.5,1,8.2,1h1.5l-0.7,1.3C109,120.6,107.4,123.5,104.8,126z M86.9,105.3l14.7,21l0.8-0.6c2.6-2,4.2-4.5,5.3-6.6
		c-2.7-0.2-5.4-0.7-8.1-1.2l-1-0.2l1.2-3.6l-1.5,1l-8.5-12.8l8.2-5.7L97,95.1l-9.3,6.2l-2.1-2.6C86.2,100.8,86.6,103.1,86.9,105.3z
		 M102.1,112.5c1.9,0.5,3.7,0.9,5.9,1c-0.4-1.2-0.9-2.5-1.6-4L102.1,112.5z M99,110.1l-4.1-6.6l6.5-4.9l4.1,6.6L99,110.1z M97.3,104
		l2.2,3.5l3.5-2.7l-2.2-3.5L97.3,104z M135.7,108.6l-6.1-0.9v-0.8c0-4.4-1.4-8.4-4.9-13.9l-13-18.9L141.4,53l19.9,28.3
		c1,1.4,1.5,2.9,1.2,4.4c-0.3,1.4-1.2,2.7-2.6,3.8l-5,3.5l-4.8-3.8l1.3-0.6c0.6-0.3,1.4-0.8,2.1-1.2c0.8-0.5,1.6-1,2.3-1.3
		c0.4-0.2,0.4-0.3,0.4-0.4c0-0.2,0.1-0.8-0.8-2l-3.3-4.9l-7.9,5.2l7.5,10.6l-5.3,3.5l-7.5-10.6l-7.4,5.3c3.4,6.3,4.7,10.9,4.1,14.9
		L135.7,108.6z M131.4,106.1l2.7,0.4c0.2-3.5-1.2-7.8-4.4-13.6l-0.4-0.7l10.2-7.3l7.5,10.7l2.2-1.5l-7.5-10.6l10.9-7.3l4.3,6.4
		c0.9,1.4,1.3,2.5,1,3.5c-0.1,0.5-0.5,1.1-1.4,1.6c-0.6,0.3-1.4,0.8-2.1,1.2c-0.3,0.2-0.7,0.4-1,0.6l1.5,1.2l3.8-2.7
		c1.1-0.8,1.7-1.7,1.9-2.6c0.2-1-0.1-1.9-0.9-3L141,55.6l-26.7,19l12,17.4C129.8,97.6,131.3,101.7,131.4,106.1z M107.7,103.9
		l-4.1-6.6l6.5-4.9l4.1,6.6L107.7,103.9z M106.1,97.8l2.2,3.5l3.5-2.7l-2.2-3.5L106.1,97.8z M129,91.3l-4.8-7.2l10.3-7.3l4.8,7.2
		L129,91.3z M126.8,84.6l2.7,4.1l7.3-5.2l-2.7-4.1L126.8,84.6z M122.8,82.5l-4.8-7.2l10.3-7.3l4.8,7.2L122.8,82.5z M120.5,75.8
		l2.7,4.1l7.3-5.2l-2.7-4.1L120.5,75.8z M140.3,82.5l-4.8-7.2l10.9-7.3l4.8,7.2L140.3,82.5z M138.1,75.9l2.7,4.1l7.9-5.3l-2.7-4.1
		L138.1,75.9z M134,73.8l-4.8-7.2l10.9-7.3l4.8,7.2L134,73.8z M131.8,67.1l2.7,4.1l7.9-5.3l-2.7-4.1L131.8,67.1z"/>
</g>
<g>
	<path class="st0" d="M170.9,104.8c-1.1,0.5-2.7,0.5-3.2-0.5s-0.5-2.7,0.5-3.2s2.7-0.5,3.2,0.5C172.5,102.6,171.9,104.2,170.9,104.8
		z M159,113.4c-1.1,0.5-2.7,0.5-3.2-0.5s-0.5-2.7,0.5-3.2s2.7-0.5,3.2,0.5S160,112.9,159,113.4z M147.1,122.1
		c-1.1,0.5-2.7,0.5-3.2-0.5s-0.5-2.7,0.5-3.2s2.7-0.5,3.2,0.5C148.7,119.9,148.1,121.5,147.1,122.1z M135.2,130.7
		c-1.1,0.5-2.7,0.5-3.2-0.5s-0.5-2.7,0.5-3.2s2.7-0.5,3.2,0.5S136.3,130.2,135.2,130.7z M123.3,139.9c-1.1,0.5-2.7,0.5-3.2-0.5
		s-0.5-2.7,0.5-3.2s2.7-0.5,3.2,0.5C124.4,137.2,124.4,138.8,123.3,139.9z M110.9,148.6c-1.1,0.5-2.7,0.5-3.2-0.5s-0.5-2.7,0.5-3.2
		s2.7-0.5,3.2,0.5S111.9,147.5,110.9,148.6z M99,157.2c-1.1,0.5-2.7,0.5-3.2-0.5s-0.5-2.7,0.5-3.2s2.7-0.5,3.2,0.5
		C100.6,155,100,156.1,99,157.2z M87.1,165.9c-1.1,0.5-2.7,0.5-3.2-0.5s-0.5-2.7,0.5-3.2s2.7-0.5,3.2,0.5S88.1,165.3,87.1,165.9z
		 M75.2,174.5c-1.1,0.5-2.7,0.5-3.2-0.5s-0.5-2.7,0.5-3.2c1.1-0.5,2.7-0.5,3.2,0.5S76.3,174,75.2,174.5z M28.7,111.8
		c-1.1,1.1-2.7,0.5-3.8-0.5s-0.5-2.7,0.5-3.8s2.7-0.5,3.8,0.5S29.8,111.3,28.7,111.8z M136.3,34c-1.1,0.5-2.7,0.5-3.2-0.5
		c-0.5-1.1-0.5-2.7,0.5-3.2c1.1-0.5,2.7-0.5,3.2,0.5C137.3,31.8,137.3,33.4,136.3,34z M124.4,42.6c-1.1,0.5-2.7,0.5-3.2-0.5
		c-0.5-1.1-0.5-2.7,0.5-3.2s2.7-0.5,3.2,0.5C125.4,40.5,125.4,42.1,124.4,42.6z M111.9,51.8c-1.1,0.5-2.7,0.5-3.2-0.5
		c-0.5-1.1-0.5-2.7,0.5-3.8c1.1-0.5,2.7-0.5,3.2,0.5C113,49.1,113.6,50.7,111.9,51.8z M100,60.5C99,61,97.3,61,96.8,59.9
		c-0.5-1.1-0.5-2.7,0.5-3.2s2.7-0.5,3.2,0.5S101.1,59.4,100,60.5z M88.1,69.1c-1.1,0.5-2.7,0.5-3.2-0.5s-0.5-2.7,0.5-3.2
		c1.1-0.5,2.7-0.5,3.2,0.5S89.2,68,88.1,69.1z M76.3,77.8c-1.1,0.5-2.7,0.5-3.2-0.5c-0.5-1.1-0.5-2.7,0.5-3.2s2.7-0.5,3.2,0.5
		S77.3,77.2,76.3,77.8z M64.4,86.4c-1.1,0.5-2.7,0.5-3.2-0.5s-0.5-2.7,0.5-3.2c1.1-0.5,2.7-0.5,3.2,0.5S65.4,85.9,64.4,86.4z
		 M51.9,95c-1.1,0.5-2.7,0.5-3.2-0.5c-0.5-1.1-0.5-2.7,0.5-3.2s2.7-0.5,3.2,0.5C53.6,92.9,53,94.5,51.9,95z M40,104.2
		c-1.1,1.1-2.7,0.5-3.8-0.5c-1.1-1.1-0.5-2.7,0.5-3.8c1.1-1.1,2.7-0.5,3.8,0.5C41.7,101.5,41.1,103.2,40,104.2z"/>
</g>
<g>
	<path class="st0" d="M100,199.1c-54.7,0-99.3-44.5-99.3-99.3S45.3,0.6,100,0.6s99.3,44.5,99.3,99.3S154.7,199.1,100,199.1z
		 M100,5.6C48,5.6,5.7,47.9,5.7,99.9c0,52,42.3,94.3,94.3,94.3s94.3-42.3,94.3-94.3C194.3,47.9,152,5.6,100,5.6z"/>
</g>
<g>
	<path class="st0" d="M100,187.8c-47.7,0-86.5-39.5-86.5-88s38.8-88,86.5-88c47.7,0,86.5,39.5,86.5,88S147.7,187.8,100,187.8z
		 M100,14.9c-46.1,0-83.5,38.1-83.5,85c0,46.9,37.5,85,83.5,85c46.1,0,83.5-38.1,83.5-85C183.5,53,146.1,14.9,100,14.9z"/>
</g>
<g>
	<path class="st0" d="M54.8,140.8l7.1,10.4c1.3,1.3,1.9,1.9,3.9,0.6l18.8-13c0.6-0.6,1.3-1.3,1.3-1.9c0-1.3-1.3-3.2-3.2-7.8l4.5-1.3
		c2.6,5.2,4.5,8.4,3.9,9.7c-0.6,1.3-1.3,2.6-2.6,3.9l-20.7,14.9c-3.2,1.9-5.8,1.9-8.4-1.9l-13.6-19.4l3.9-2.6l3.9,5.2L73,123.9
		l-6.5-9.1l-24.6,17.5l-2.6-3.2L67.8,109l11,15.6C78.8,124.6,54.8,140.8,54.8,140.8z"/>
	<path class="st0" d="M64,158.4c-2,0-3.7-1.2-5.3-3.6l-14.1-20.1l5.2-3.5l3.9,5.2l18.2-12.7l-5.6-7.8l-24.6,17.5l-3.6-4.5l29.8-21
		l11.9,16.9l-24,16.2l6.6,9.7c1.2,1.2,1.5,1.4,2.8,0.5l18.7-12.9c0.4-0.4,1-1,1-1.3c0-0.6-0.5-1.7-1.3-3.3c-0.5-1.1-1.2-2.4-1.9-4.1
		l-0.4-0.8l6-1.7l0.3,0.6c0.5,0.9,0.9,1.8,1.3,2.6c2.1,4.1,3.3,6.4,2.6,7.8c-0.7,1.3-1.4,2.7-2.7,4.1l-0.1,0.1L68.2,157
		C66.7,157.9,65.3,158.4,64,158.4z M46.9,135.2L60,153.9c2.4,3.7,4.6,3.4,7.4,1.7L88,140.8c1.2-1.2,1.8-2.4,2.4-3.6
		c0.4-0.7-1.1-3.5-2.6-6.4c-0.3-0.6-0.7-1.3-1-2l-3,0.9c0.6,1.3,1.1,2.4,1.5,3.2c0.9,1.9,1.4,3,1.4,4c0,1-0.8,1.8-1.5,2.5l-0.1,0.1
		l-18.8,13c-2.5,1.7-3.6,0.5-4.9-0.7l-0.1-0.1l-7.6-11l24-16.2l-10.1-14.3l-27.2,19.2l1.6,2l24.7-17.5l7.4,10.4l-20.7,14.5l-3.9-5.2
		L46.9,135.2z"/>
</g>
</svg>
