<?xml version="1.0" encoding="utf-8"?>
<!-- Generator: Adobe Illustrator 24.2.0, SVG Export Plug-In . SVG Version: 6.00 Build 0)  -->
<svg version="1.1" id="图层_1" xmlns="http://www.w3.org/2000/svg" xmlns:xlink="http://www.w3.org/1999/xlink" x="0px" y="0px"
	 viewBox="0 0 200 200" style="enable-background:new 0 0 200 200;" xml:space="preserve">
<path d="M73.2,39.7h-1.5c0.8,0,1.5-0.7,1.5-1.5V39.7H131v-1.5c0,0.8,0.7,1.5,1.5,1.5H131v13.7h13.7V38.2c0-6.7-5.5-12.2-12.2-12.2
	h-61c-6.7,0-12.2,5.5-12.2,12.2v15.2h13.7V39.7z M169.1,53.4H35.1c-3.4,0-6.1,2.7-6.1,6.1v6.1c0,0.8,0.7,1.5,1.5,1.5h11.5l4.7,99.7
	c0.2,6.5,5.6,11.6,12,11.6h86.5c6.5,0,11.8-5.1,12.2-11.6l4.7-99.7h11.5c0.8,0,1.5-0.7,1.5-1.5v-6.1
	C175.2,56.2,172.5,53.4,169.1,53.4z M143.9,164.7H60.3l-4.5-97.5h92.7L143.9,164.7L143.9,164.7z"/>
</svg>
