<?xml version="1.0" encoding="UTF-8"?>
<svg width="32px" height="32px" viewBox="0 0 32 32" version="1.1" xmlns="http://www.w3.org/2000/svg" xmlns:xlink="http://www.w3.org/1999/xlink">
    <defs>
        <circle id="path-1" cx="12" cy="12" r="12"></circle>
        <filter x="-29.2%" y="-20.8%" width="158.3%" height="158.3%" filterUnits="objectBoundingBox" id="filter-2">
            <feOffset dx="0" dy="2" in="SourceAlpha" result="shadowOffsetOuter1"></feOffset>
            <feGaussianBlur stdDeviation="2" in="shadowOffsetOuter1" result="shadowBlurOuter1"></feGaussianBlur>
            <feColorMatrix values="0 0 0 0 1   0 0 0 0 0.0263266959   0 0 0 0 0.0263266959  0 0 0 0.0514965991 0" type="matrix" in="shadowBlurOuter1"></feColorMatrix>
        </filter>
    </defs>
    <g id="切图整理" stroke="none" stroke-width="1" fill="none" fill-rule="evenodd">
        <g id="but/删除" transform="translate(4.000000, 2.000000)">
            <g id="椭圆形">
                <use fill="black" fill-opacity="1" filter="url(#filter-2)" xlink:href="#path-1"></use>
                <use fill="#FD2B06" fill-rule="evenodd" xlink:href="#path-1"></use>
            </g>
            <path d="M12,6 C12.4733869,6 12.8571429,6.38375593 12.8571429,6.85714286 L12.857,11.142 L17.1428571,11.1428571 C17.6162441,11.1428571 18,11.5266131 18,12 C18,12.4733869 17.6162441,12.8571429 17.1428571,12.8571429 L12.857,12.857 L12.8571429,17.1428571 C12.8571429,17.6162441 12.4733869,18 12,18 C11.5266131,18 11.1428571,17.6162441 11.1428571,17.1428571 L11.142,12.857 L6.85714286,12.8571429 C6.38375593,12.8571429 6,12.4733869 6,12 C6,11.5266131 6.38375593,11.1428571 6.85714286,11.1428571 L11.142,11.142 L11.1428571,6.85714286 C11.1428571,6.38375593 11.5266131,6 12,6 Z" id="形状结合" fill="#FFFFFF" transform="translate(12.000000, 12.000000) rotate(45.000000) translate(-12.000000, -12.000000) "></path>
        </g>
    </g>
</svg>