<?xml version="1.0" standalone="no"?><!DOCTYPE svg PUBLIC "-//W3C//DTD SVG 1.1//EN" "http://www.w3.org/Graphics/SVG/1.1/DTD/svg11.dtd"><svg t="1654583422189" class="icon" viewBox="0 0 1024 1024" version="1.1" xmlns="http://www.w3.org/2000/svg" p-id="5062" xmlns:xlink="http://www.w3.org/1999/xlink" width="16" height="16"><defs><style type="text/css">@font-face { font-family: feedback-iconfont; src: url("//at.alicdn.com/t/font_1031158_u69w8yhxdu.woff2?t=1630033759944") format("woff2"), url("//at.alicdn.com/t/font_1031158_u69w8yhxdu.woff?t=1630033759944") format("woff"), url("//at.alicdn.com/t/font_1031158_u69w8yhxdu.ttf?t=1630033759944") format("truetype"); }
</style></defs><path d="M352.76923057 248.92307685L228.15384629 352.76923057c-20.76923057 20.76923057-55.38461573 13.84615371-69.23076944-6.92307686-20.76923057-20.76923057-13.84615371-55.38461573 6.92307686-69.23076943L366.61538427 103.53846113c34.61538427-27.69230742 83.07692315-6.92307685 83.07692315 41.53846202v740.76923057c0 27.69230742-20.76923057 48.46153886-48.46153799 48.46153886-27.69230742 0-48.46153886-20.76923057-48.46153886-48.46153886V248.92307685z m443.07692314 422.30769258c20.76923057-20.76923057 55.38461573-13.84615371 69.23076944 6.92307685 20.76923057 20.76923057 13.84615371 55.38461573-6.92307686 69.23076945l-200.76923057 173.07692313c-34.61538427 27.69230742-83.07692315 6.92307685-83.07692314-41.53846201V145.07692315c0-27.69230742 20.76923057-48.46153886 48.46153799-48.46153888 27.69230742 0 48.46153886 20.76923057 48.46153886 48.46153888v630l124.61538429-103.84615372z" p-id="5063"></path></svg>
