<?xml version="1.0" standalone="no"?><!DOCTYPE svg PUBLIC "-//W3C//DTD SVG 1.1//EN" "http://www.w3.org/Graphics/SVG/1.1/DTD/svg11.dtd"><svg t="1654501683567" class="icon" viewBox="0 0 1024 1024" version="1.1" xmlns="http://www.w3.org/2000/svg" p-id="15535" width="16" height="16" xmlns:xlink="http://www.w3.org/1999/xlink"><defs><style type="text/css">@font-face { font-family: feedback-iconfont; src: url("//at.alicdn.com/t/font_1031158_u69w8yhxdu.woff2?t=1630033759944") format("woff2"), url("//at.alicdn.com/t/font_1031158_u69w8yhxdu.woff?t=1630033759944") format("woff"), url("//at.alicdn.com/t/font_1031158_u69w8yhxdu.ttf?t=1630033759944") format("truetype"); }
</style></defs><path d="M883.2 512h-53.248c-4.096 0-7.68 3.584-7.68 7.68v303.104H201.216V201.216h303.104c4.096 0 7.68-3.584 7.68-7.68V140.8c0-4.096-3.584-7.68-7.68-7.68H163.328c-16.896 0-30.208 13.312-30.208 30.208v697.344c0 16.896 13.312 30.208 30.208 30.208h697.344c16.896 0 30.208-13.312 30.208-30.208v-340.992c0-4.096-3.584-7.68-7.68-7.68z m-519.168 21.504l-2.048 112.64c0 8.192 6.656 15.36 15.36 15.36h0.512l111.616-2.56c2.048 0 3.584-1.024 5.12-2.048l393.728-393.216c3.072-3.072 3.072-7.68 0-10.752l-117.76-117.76c-1.536-1.536-3.584-2.048-5.632-2.048s-4.096 0.512-5.632 2.048l-393.728 393.216c-0.512 1.536-1.536 3.072-1.536 5.12z m60.416 22.528l341.504-340.48 43.008 42.496L466.944 599.04l-43.52 1.024 1.024-44.032z" p-id="15536" fill="#666666"></path></svg>