<?xml version="1.0" standalone="no"?><!DOCTYPE svg PUBLIC "-//W3C//DTD SVG 1.1//EN" "http://www.w3.org/Graphics/SVG/1.1/DTD/svg11.dtd"><svg class="icon" width="200px" height="200.00px" viewBox="0 0 1024 1024" version="1.1" xmlns="http://www.w3.org/2000/svg"><path d="M483.328 604.16h57.344a34.304 34.304 0 0 0 0-68.608H483.328c-18.944 0-34.304 15.36-34.304 34.304 0 18.432 15.36 34.304 34.304 34.304zM483.328 488.96h57.344a34.304 34.304 0 0 0 0-68.608H483.328a34.304 34.304 0 0 0 0 68.608zM483.328 718.848h57.344a34.304 34.304 0 0 0 0-68.608H483.328a34.304 34.304 0 0 0 0 68.608zM483.328 374.272h57.344a34.304 34.304 0 0 0 0-68.608H483.328a34.304 34.304 0 0 0 0 68.608zM311.296 718.848H368.64a34.304 34.304 0 0 0 0-68.608H311.296c-18.944 0-34.304 15.36-34.304 34.304s14.848 34.304 34.304 34.304zM311.296 604.16H368.64a34.304 34.304 0 0 0 0-68.608H311.296c-18.944 0-34.304 15.36-34.304 34.304-0.512 18.432 14.848 34.304 34.304 34.304zM311.296 488.96H368.64a34.304 34.304 0 0 0 0-68.608H311.296c-18.944 0-34.304 15.36-34.304 34.304-0.512 18.944 14.848 34.304 34.304 34.304zM311.296 374.272H368.64a34.304 34.304 0 0 0 0-68.608H311.296c-18.944 0-34.304 15.36-34.304 34.304-0.512 18.944 14.848 34.304 34.304 34.304z"  /><path d="M913.92 821.76h-51.712V311.296c0-34.816-28.16-62.976-62.976-62.976h-109.056V196.096c0-34.816-28.16-62.976-62.976-62.976H225.28c-34.816 0-62.976 28.16-62.976 62.976v625.664H110.08a34.304 34.304 0 0 0 0 68.608h803.328c18.944 0 34.304-15.36 34.304-34.304s-14.848-34.304-33.792-34.304z m-120.832-504.832v504.832h-102.912V316.928h102.912z m-172.032-114.688v619.52H230.912v-619.52h390.144z"  /></svg>