<?xml version="1.0" standalone="no"?><!DOCTYPE svg PUBLIC "-//W3C//DTD SVG 1.1//EN" "http://www.w3.org/Graphics/SVG/1.1/DTD/svg11.dtd"><svg class="icon" width="200px" height="200.00px" viewBox="0 0 1024 1024" version="1.1" xmlns="http://www.w3.org/2000/svg"><path d="M710.33 161.66c3 0 3-3 6-6 42-45 114-45 156-3 45 42 45 111 3 156l-6 6-159-153z m-462 0s-3-3-3-6c-42-42-114-45-159-3-42 42-45 114-3 156l6 6 159-153z" fill="#333333" /><path d="M179.33 539.66c0-171 141-312 312-312s312 138 312 312-141 312-312 312-312-141-312-312z m726 315l-96-84c48-66 75-144 75-231 0-219-177-396-393-396s-396 177-396 396c0 87 27 165 75 231l-96 84 54 63 99-87c69 63 162 102 264 102s195-39 264-102l99 87 51-63z" fill="#333333" /><path d="M629 536v-72H542l78-81-51-51-78 81-81-81-51 51 78 81h-84v72h102V572h-102v72h102v72h69v-72h105V572h-105v-36z" fill="#0877FE" /></svg>