<?xml version="1.0" encoding="utf-8"?>
<!-- Generator: Adobe Illustrator 24.2.0, SVG Export Plug-In . SVG Version: 6.00 Build 0)  -->
<svg version="1.1" id="图层_1" xmlns="http://www.w3.org/2000/svg" xmlns:xlink="http://www.w3.org/1999/xlink" x="0px" y="0px"
	 viewBox="0 0 200 200" style="enable-background:new 0 0 200 200;" xml:space="preserve">
<style type="text/css">
	.st0{fill:#949494;}
</style>
<path class="st0" d="M176.3,90.3h-66.6V24.1c0-5.2-4.5-9.7-9.7-9.7c-5.3,0-9.7,4.3-9.7,9.7v66.6H24.1c-5.2,0-9.7,4.5-9.7,9.7
	c0,5.3,4.3,9.7,9.7,9.7h66.6v66.6c0,5.2,4.5,9.7,9.7,9.7c5.3,0,9.7-4.3,9.7-9.7v-67.1h66.6c5.2,0,9.7-4.5,9.7-9.7
	C186.4,94.5,181,90.3,176.3,90.3z"/>
</svg>
