<?xml version="1.0" standalone="no"?><!DOCTYPE svg PUBLIC "-//W3C//DTD SVG 1.1//EN" "http://www.w3.org/Graphics/SVG/1.1/DTD/svg11.dtd"><svg class="icon" width="200px" height="193.94px" viewBox="0 0 1056 1024" version="1.1" xmlns="http://www.w3.org/2000/svg"><path d="M770 923c-81 0-156-42-195-111-21-33-30-69-30-111 0-36 9-72 27-111 42-72 114-114 195-114 60 0 117 24 159 66 42 42 66 99 66 159s-24 117-66 159c-39 42-96 63-156 63z m0-372c-54 0-102 27-129 75-12 24-18 51-18 75 0 30 6 51 18 75 27 45 78 75 129 75 39 0 78-15 105-42s42-66 42-105c0-39-15-78-42-105-27-30-66-48-105-48z" fill="#0877FE" /><path d="M836 800l-99-96v-96h72v69l78 75z" fill="#0877FE" /><path d="M176 158v603h282V842H137c-24 0-42-18-42-39V119c0-21 18-39 42-39h642c24 0 42 18 42 39v282h-81v-240L176 158z m441 321h-120v120h-81v-120h-120v-81h105L320 317l57-57 84 84L542 263l57 57-81 81h102l-3 78z" fill="#333333" /></svg>