<?xml version="1.0" standalone="no"?><!DOCTYPE svg PUBLIC "-//W3C//DTD SVG 1.1//EN" "http://www.w3.org/Graphics/SVG/1.1/DTD/svg11.dtd"><svg class="icon" width="200px" height="200.00px" viewBox="0 0 1024 1024" version="1.1" xmlns="http://www.w3.org/2000/svg"><path d="M821 416v-180c0-15-6-21-18-24-39-9-81-18-120-27-96-24-189-36-288-18-66 15-132 30-195 45-21 3-27 9-27 27 0 108 3 216 0 327 0 66 24 120 72 165 66 66 153 96 243 120 6 3 15 0 24 0 81-21 156-48 219-102 60-48 96-108 93-186-6-51-3-99-3-147m78-21c0 63-3 129 0 192 3 72-27 132-78 183-63 66-147 105-231 138-63 24-120 24-183 0-96-36-186-81-252-159-39-48-60-102-57-162 3-138 0-276 0-414 0-21 3-30 27-33 66-12 135-27 201-45 123-30 246-24 369 6 63 15 126 33 189 42 15 3 15 12 15 24v228" fill="#333333" /><path d="M462.23 520.28h186c18 0 27 9 27 27v66c0 36-21 57-54 57H462.23c-18 0-27-9-27-27v-84-12c-3-18 6-27 27-27z m-63-198l-3 6c-12 27-18 51-18 96V643.28c0 24-9 33-33 30-24 0-33-6-33-30v-204l-9 6-3 3c-9 3-18 3-21-9-9-12-9-30 3-42 27-24 45-54 51-96 3-15 9-18 24-18h6c42 0 51 9 36 39z m204 234H504.23c-6 0-9 0-12 3-6 3-6 9-9 18v30c0 15 6 24 21 24h72c27 0 42-3 42-21v-45c3-3-9-9-15-9z m51-102c18 0 30 9 30 27 0 18-9 27-30 27h-201c-18 0-30-9-30-27 0-18 9-27 30-27h201z m-201-69h201c18 0 30 6 30 27 0 18-9 27-27 27h-204c-18 0-27-9-27-27 0-18 9-27 27-27z m144-66h78c21 0 30 9 30 27 0 18-9 27-30 27H438.23c-21 0-30-9-30-27 0-18 9-27 30-27h69c6 0 9 0 9-3-3-18 6-27 24-27h21c24 0 39 6 36 30z" fill="#0877FE" /></svg>