<?xml version="1.0" standalone="no"?><!DOCTYPE svg PUBLIC "-//W3C//DTD SVG 1.1//EN" "http://www.w3.org/Graphics/SVG/1.1/DTD/svg11.dtd"><svg t="1654508205255" class="icon" viewBox="0 0 1024 1024" version="1.1" xmlns="http://www.w3.org/2000/svg" p-id="15927" xmlns:xlink="http://www.w3.org/1999/xlink" width="16" height="16"><defs><style type="text/css">@font-face { font-family: feedback-iconfont; src: url("//at.alicdn.com/t/font_1031158_u69w8yhxdu.woff2?t=1630033759944") format("woff2"), url("//at.alicdn.com/t/font_1031158_u69w8yhxdu.woff?t=1630033759944") format("woff"), url("//at.alicdn.com/t/font_1031158_u69w8yhxdu.ttf?t=1630033759944") format("truetype"); }
</style></defs><path d="M931.328 415.232c-10.24-35.328-38.912-61.44-72.192-66.56l-184.832-35.84-82.432-182.784c-13.312-33.28-46.08-56.832-79.872-56.832s-64.512 20.992-79.872 54.272L349.696 311.296l-184.32 35.84c-34.304 5.12-61.952 30.208-72.704 66.56-9.728 34.304-0.512 72.192 23.552 98.816l131.584 133.632-35.84 196.608c-5.632 34.816 8.192 71.68 35.84 94.208 14.336 10.752 34.816 17.92 51.712 17.92 15.872 0 29.184-3.584 41.472-10.752l168.96-91.136 166.912 91.136 1.024 0.512c10.752 4.608 26.624 10.24 40.96 10.24 13.824 0 26.112-3.584 38.4-7.168 5.632-1.536 10.752-3.072 15.872-4.096l2.56-0.512 2.048-1.536c25.088-22.016 37.888-57.856 32.768-93.696l-33.28-196.608 131.584-136.192c24.576-28.16 32.768-64 22.528-99.84zM276.992 847.872l41.984-231.936-156.672-159.232c-5.632-5.632-8.192-17.408-6.656-29.696 3.584-10.24 9.728-16.384 19.456-17.92l218.112-41.984 96.256-215.552c3.072-7.168 12.8-13.824 20.48-13.824s17.408 6.656 20.48 13.824l98.304 215.552 217.6 41.472c7.168 1.536 15.36 7.168 16.896 16.384v3.072c2.048 12.288-0.512 22.528-7.168 30.72l-156.672 161.28 39.936 231.936c1.536 10.752-2.048 20.992-10.24 27.648l-1.024 0.512c-2.048 2.048-6.656 3.584-11.264 3.584-2.048 0-7.68-1.536-11.264-3.072l-197.12-108.032-199.68 103.424c-3.584 2.048-9.216 3.584-11.264 3.584-4.608 0-8.704-1.536-11.264-3.584l-1.024-0.512c-6.144-7.168-9.728-16.896-8.192-27.648z" p-id="15928"></path></svg>
