<?xml version="1.0" standalone="no"?><!DOCTYPE svg PUBLIC "-//W3C//DTD SVG 1.1//EN" "http://www.w3.org/Graphics/SVG/1.1/DTD/svg11.dtd"><svg t="1654508198260" class="icon" viewBox="0 0 1024 1024" version="1.1" xmlns="http://www.w3.org/2000/svg" p-id="15777" xmlns:xlink="http://www.w3.org/1999/xlink" width="16" height="16"><defs><style type="text/css">@font-face { font-family: feedback-iconfont; src: url("//at.alicdn.com/t/font_1031158_u69w8yhxdu.woff2?t=1630033759944") format("woff2"), url("//at.alicdn.com/t/font_1031158_u69w8yhxdu.woff?t=1630033759944") format("woff"), url("//at.alicdn.com/t/font_1031158_u69w8yhxdu.ttf?t=1630033759944") format("truetype"); }
</style></defs><path d="M722.944 954.368c-11.776 0-25.6-4.608-37.888-9.728l-176.128-96.256-177.664 96.256c-11.776 6.656-23.552 9.728-37.888 9.728-16.384 0-34.816-7.168-46.592-16.384-25.6-21.504-37.888-56.32-32.768-86.528l37.888-206.336-138.24-140.288C92.16 481.28 83.456 446.464 92.16 413.696c10.24-32.768 35.328-56.32 66.56-60.416l194.56-37.888 86.528-192c13.824-30.208 41.984-49.664 72.704-49.664 30.208 0 60.928 21.504 72.704 51.712L671.232 317.44l194.56 37.888c30.208 4.608 56.32 28.16 65.536 60.928 9.728 32.768 2.048 65.536-21.504 91.648l-138.24 142.848 34.816 206.336c4.608 32.768-6.656 65.536-30.208 86.528-17.92 3.584-34.816 10.752-53.248 10.752z" p-id="15778"></path></svg>
