<?xml version="1.0" standalone="no"?><!DOCTYPE svg PUBLIC "-//W3C//DTD SVG 1.1//EN" "http://www.w3.org/Graphics/SVG/1.1/DTD/svg11.dtd"><svg t="1654051270151" class="icon" viewBox="0 0 1024 1024" version="1.1" xmlns="http://www.w3.org/2000/svg" p-id="5308" xmlns:xlink="http://www.w3.org/1999/xlink" width="16" height="16"><defs><style type="text/css">@font-face { font-family: feedback-iconfont; src: url("//at.alicdn.com/t/font_1031158_u69w8yhxdu.woff2?t=1630033759944") format("woff2"), url("//at.alicdn.com/t/font_1031158_u69w8yhxdu.woff?t=1630033759944") format("woff"), url("//at.alicdn.com/t/font_1031158_u69w8yhxdu.ttf?t=1630033759944") format("truetype"); }
</style></defs><path d="M735.418 674.91H83.782c-3.724 0-7.447 3.723-7.447 7.446s3.723 7.448 7.447 7.448h651.636c3.724 0 7.447-3.724 7.447-7.448s-3.723-7.447-7.447-7.447zM93.091 312.784h20.48v20.48c0 10.24 14.894 10.24 14.894 0v-20.48h20.48c10.24 0 10.24-14.894 0-14.894h-20.48v-20.48c0-10.24-14.894-10.24-14.894 0v20.48H93.09c-10.24 0-10.24 14.894 0 14.894z m269.964 431.942H297.89c-3.724 0-7.447 3.724-7.447 7.448s3.723 7.447 7.447 7.447h65.164c3.723 0 7.447-3.724 7.447-7.447s-3.724-7.448-7.447-7.448z m325.818 0H404.945c-3.723 0-7.447 3.724-7.447 7.448s3.724 7.447 7.447 7.447h283.928c3.723 0 7.447-3.724 7.447-7.447s-3.724-7.448-7.447-7.448zM856.436 521.31h-20.48v-20.48c0-10.24-14.894-10.24-14.894 0v20.48h-20.48c-10.24 0-10.24 14.895 0 14.895h20.48v20.48c0 10.24 14.894 10.24 14.894 0v-20.48h20.48c10.24 0 10.24-14.895 0-14.895z m83.782 153.6h-83.782c-3.723 0-7.447 3.724-7.447 7.447s3.724 7.448 7.447 7.448h83.782c3.724 0 7.447-3.724 7.447-7.448s-3.723-7.447-7.447-7.447z m-144.29 0h-23.273c-3.724 0-7.448 3.724-7.448 7.447s3.724 7.448 7.448 7.448h23.272c3.724 0 7.448-3.724 7.448-7.448s-3.724-7.447-7.448-7.447zM788.48 81.92c0 10.24 14.895 10.24 14.895 0V56.785h25.134c10.24 0 10.24-14.894 0-14.894h-25.134V16.756c0-10.24-14.895-10.24-14.895 0v25.135h-25.135c-10.24 0-10.24 14.894 0 14.894h25.135V81.92z m-512 35.375l7.447-6.517 6.517 6.517c4.654 4.654 11.17-1.862 6.516-6.517l-6.516-6.516 5.585-6.517c4.655-4.654-1.862-11.17-6.516-6.516l-6.517 6.516-6.516-6.516c-4.655-4.654-11.17 1.862-6.516 6.516l6.516 6.517-6.516 6.516c-4.655 4.655 1.861 11.171 6.516 6.517z m-81.92 474.763l-6.516 6.517c-4.655 4.654 1.861 11.17 6.516 6.516l7.447-6.516 6.517 6.516c4.654 4.654 11.17-1.862 6.516-6.516l-7.447-7.448 6.516-6.516c4.655-4.655-1.862-11.171-6.516-6.516l-7.448 6.516-6.516-6.516c-4.654-4.655-11.17 1.861-6.516 6.516l7.447 7.447zM707.49 521.31h-29.788V268.101c0-34.444-27.927-63.302-63.302-63.302H307.2c-24.204 0-44.684 20.48-44.684 44.684v46.545c0 3.724 3.724 7.447 7.448 7.447h67.025v271.826c0 24.203 20.48 44.683 44.684 44.683h288.582c24.203 0 44.683-20.48 44.683-44.683v-46.546c0-4.654-3.723-7.447-7.447-7.447z m-370.5-232.728h-59.58v-39.098c0-16.757 13.034-29.79 29.79-29.79s29.79 13.033 29.79 29.79v39.098z m14.894 286.72V249.484c0-11.171-4.655-22.342-11.171-29.79H614.4c26.996 0 48.407 21.411 48.407 48.408v253.207H418.91c-3.724 0-7.447 3.724-7.447 7.447v46.546c0 16.756-13.033 29.789-29.79 29.789s-29.788-13.964-29.788-29.79z m348.16 0c0 16.756-13.033 29.789-29.79 29.789H415.186c0.931-0.931 1.862-1.862 1.862-2.793 0.931-0.93 1.862-1.862 1.862-2.793 0.931-1.861 1.862-2.792 2.793-4.654 0.93-0.931 0.93-1.862 1.862-2.793 0.93-1.862 0.93-3.723 1.861-5.585 0-0.931 0.931-1.862 0.931-2.793 0.931-2.793 0.931-5.585 0.931-8.378v-39.098h272.757v39.098z" p-id="5309"></path><path d="M605.09 443.113H418.91c-3.725 0-6.517 2.792-6.517 6.516s2.792 6.516 6.516 6.516h186.182c3.724 0 6.516-2.792 6.516-6.516s-2.792-6.516-6.516-6.516zM539.928 409.6h60.51c3.723 0 6.516-2.793 6.516-6.516s-2.793-6.517-6.517-6.517h-60.509c-3.723 0-6.516 2.793-6.516 6.517s2.793 6.516 6.516 6.516z m0-46.545h60.51c3.723 0 6.516-2.793 6.516-6.517s-2.793-6.516-6.517-6.516h-60.509c-3.723 0-6.516 2.793-6.516 6.516s2.793 6.517 6.516 6.517z m0-46.546h60.51c3.723 0 6.516-2.793 6.516-6.516s-2.793-6.517-6.517-6.517h-60.509c-3.723 0-6.516 2.793-6.516 6.517s2.793 6.516 6.516 6.516zM506.415 400.29l-23.273-26.065c6.516-8.378 10.24-17.687 10.24-28.858 0-26.065-21.411-47.476-47.477-47.476s-47.476 21.41-47.476 47.476 21.411 47.477 47.476 47.477c8.379 0 15.826-1.862 22.342-5.586l23.273 26.066c3.724 4.654 10.24 4.654 13.964 0.93 4.654-3.723 4.654-10.24 0.93-13.963z m-94.953-54.923c0-18.618 15.825-34.443 34.443-34.443s34.444 15.825 34.444 34.443-15.825 34.444-34.444 34.444-34.443-15.826-34.443-34.444zM269.033 906.705h15.825v-9.309h9.31v9.31h20.48v7.447h-20.48v9.309c7.447 0 13.963-0.931 20.48-0.931 0 2.793-0.932 5.585-0.932 8.378-6.516 0-13.032 0.931-19.549 0.931v10.24h-9.309v-9.31c-10.24 0.932-20.48 0.932-30.72 1.863l-0.93-8.378c11.17 0 21.41-0.931 31.65-1.862v-10.24h-26.065v-7.448l8.378-13.963h-13.033v-7.447h17.687c1.862-3.724 3.724-8.379 5.586-13.033l8.378 2.793c-1.862 3.723-3.724 6.516-4.654 10.24h34.443v7.447h-38.167l-8.378 13.963z m3.723 38.168h86.575v53.992h-9.31v-5.585h-68.886v5.585h-9.31v-53.992z m78.197 8.378h-68.888v12.102h68.888V953.25z m-68.888 32.582h68.888V972.8h-68.888v13.033z m40.03-102.4c16.756 0 34.443-1.862 51.2-4.655l2.792 8.378c-15.825 1.862-30.72 2.793-44.683 3.724v15.825h46.545v7.448h-18.618v26.996h-9.31v-26.996h-20.48c-1.861 11.17-5.585 21.41-12.101 28.858-1.862-1.862-4.655-3.724-7.447-6.516 7.447-7.448 11.17-19.55 11.17-33.513v-19.55z m63.301 40.029h50.27c1.861-8.378 2.792-18.618 2.792-29.79h-43.753v-9.308h103.331v9.309h-49.338c-0.93 11.17-1.862 20.48-3.723 29.789h62.37v10.24h-64.232c-6.517 28.858-24.204 51.2-53.062 67.025-1.862-2.792-3.724-5.585-6.516-9.309 25.134-13.033 41.89-31.65 49.338-57.716h-47.477v-10.24z m65.164 19.549h10.24v33.513c0 6.516 2.793 10.24 9.31 10.24h17.686c5.586 0 9.31-2.793 10.24-7.448 0.931-4.654 0.931-11.17 1.862-18.618 2.793 0.931 6.517 2.793 10.24 3.724-0.93 8.378-1.862 14.894-1.862 18.618-0.93 8.378-7.447 13.033-17.687 13.033h-22.342c-11.17 0-16.756-5.586-16.756-17.688v-35.374z m64.233 4.654h19.549c1.862-2.792 3.723-6.516 5.585-10.24l9.31 2.793c-0.932 2.793-2.793 4.655-3.724 7.447h30.72v8.379c-2.793 8.378-8.378 15.825-14.895 22.341 4.655 1.862 9.31 4.655 13.964 6.517l-5.586 8.378c-5.585-2.793-11.17-5.585-16.756-9.31-9.31 6.517-21.41 12.103-36.305 16.757-0.931-2.792-2.793-5.585-4.655-9.309 12.102-2.793 23.273-6.516 31.65-12.102-7.446-3.723-14.894-7.447-23.272-11.17 2.793-3.724 5.586-8.379 7.447-12.102h-14.894v-8.379z m1.862-43.752h28.858v-28.858h9.309v28.858h24.203v8.378h-24.203v7.447l3.723-4.654c7.448 5.585 14.895 11.17 19.55 14.894l-6.517 7.447c-4.654-4.654-10.24-9.309-17.687-14.894v14.894h-9.31v-17.687c-7.446 8.378-16.756 14.895-26.996 21.411-1.861-2.793-3.723-4.654-5.585-7.447 10.24-5.586 20.48-13.033 29.79-21.411h-26.066v-8.378z m2.792-19.55l7.448-4.654c3.723 4.655 7.447 9.31 12.101 14.895l-8.378 4.654c-3.723-4.654-7.447-10.24-11.17-14.894z m14.895 80.99c5.585 2.792 12.102 5.585 18.618 8.378 5.585-4.655 10.24-11.171 13.964-17.687h-26.997c-1.862 2.792-3.723 6.516-5.585 9.309z m39.098-86.575l7.447 5.586c-4.654 6.516-9.309 12.101-13.963 16.756-1.862-1.862-4.655-3.724-6.517-5.585 4.655-5.586 9.31-11.171 13.033-16.757z m23.273-4.654l10.24 1.861c-1.862 8.379-3.724 15.826-6.517 23.273h39.099v8.378h-8.379c-1.861 25.135-7.447 44.684-16.756 59.579 6.516 9.309 15.825 16.756 26.065 23.272-2.792 3.724-4.654 7.448-6.516 10.24-10.24-6.516-18.618-14.894-26.065-24.203-7.448 9.309-16.757 17.687-27.928 25.134-1.861-2.793-4.654-5.585-7.447-8.378 12.102-7.447 21.411-16.756 28.858-26.996-6.516-12.102-11.17-25.135-13.963-40.96-1.862 2.792-3.724 6.516-5.586 8.378-1.862-2.793-3.723-5.586-6.516-8.378 12.102-13.964 18.618-30.72 21.41-51.2z m25.134 33.512h-24.203c0 0.931-0.931 1.862-1.862 2.793 1.862 17.687 5.585 33.513 13.033 46.546 7.447-13.033 11.17-28.859 13.032-49.339z m22.342 34.444c5.586-1.862 12.102-3.724 17.687-4.655v-28.858h-15.825v-9.309h15.825v-24.203h9.31v24.203h13.963v9.31h-13.964v26.065c3.724-0.931 8.379-2.793 12.102-3.724 0 3.724 0 7.447 0.931 10.24-4.654 1.862-8.378 2.793-13.033 3.724v38.167c0 9.31-4.654 14.895-13.032 14.895H646.05c0-3.724-0.931-6.517-1.862-10.24 4.655 0.93 8.378 0.93 10.24 0.93 3.724 0 5.586-1.861 5.586-6.516v-33.513l-16.757 5.586 0.931-12.102z m56.786 13.033h26.065v-15.826h-28.858c-0.931 26.066-6.517 46.546-17.687 60.51-1.862-2.793-4.655-5.586-6.517-8.379 10.24-13.033 15.826-33.513 15.826-60.509v-49.338h75.403v37.236h-9.309v-3.723h-57.716v15.825h29.789v-13.033h9.309v13.033h33.513v8.378H737.28v15.826h26.065v42.822h-9.309v-7.448h-43.752v7.448h-9.31v-42.822z m53.992-65.164h-56.785v15.826h56.785v-15.826z m-0.93 73.542h-43.753v18.618h43.752v-18.618z" p-id="5310"></path></svg>
