<?xml version="1.0" standalone="no"?><!DOCTYPE svg PUBLIC "-//W3C//DTD SVG 1.1//EN" "http://www.w3.org/Graphics/SVG/1.1/DTD/svg11.dtd"><svg t="1653877045444" class="icon" viewBox="0 0 1024 1024" version="1.1" xmlns="http://www.w3.org/2000/svg" p-id="10838" width="16" height="16" xmlns:xlink="http://www.w3.org/1999/xlink"><defs><style type="text/css">@font-face { font-family: feedback-iconfont; src: url("//at.alicdn.com/t/font_1031158_u69w8yhxdu.woff2?t=1630033759944") format("woff2"), url("//at.alicdn.com/t/font_1031158_u69w8yhxdu.woff?t=1630033759944") format("woff"), url("//at.alicdn.com/t/font_1031158_u69w8yhxdu.ttf?t=1630033759944") format("truetype"); }
</style></defs><path d="M878.08 339.456l42.496-42.496c11.776-11.776 11.776-30.72 0-42.496-11.776-11.776-30.72-11.776-42.496 0l-42.496 42.496c-11.264 11.776-11.264 30.72 0.512 42.496s29.696 11.264 41.984 0zM512 202.752c16.896 0 30.208-13.312 30.208-30.208V112.128c0-16.896-13.312-30.208-30.208-30.208s-30.208 13.312-30.208 30.208v60.416c0 16.384 13.312 30.208 30.208 30.208zM153.6 309.248c11.776 11.264 30.72 11.264 42.496-0.512 11.776-11.776 11.776-30.72 0.512-42.496L153.6 223.744c-11.776-11.264-30.72-11.264-42.496 0.512-11.776 11.776-11.776 30.72-0.512 42.496l43.008 42.496zM904.192 881.664h-30.208v-331.776c0-183.296-162.304-331.776-361.984-331.776s-361.984 148.48-361.984 331.776v331.776h-30.208c-16.896 0-30.208 13.312-30.208 30.208 0 16.896 13.312 30.208 30.208 30.208h784.896c16.896 0 30.208-13.312 30.208-30.208-0.512-16.896-13.824-30.208-30.72-30.208zM367.104 640.512l3.072-4.608 142.336-163.84c25.6-29.184 72.704-4.608 64 33.28l-17.92 77.312h67.072c29.696 0 46.592 33.28 31.232 57.344l-3.072 4.608-142.336 163.84c-25.6 29.184-72.704 4.608-64-33.28l17.92-77.312H398.336c-30.208 0-47.104-33.28-31.232-57.344z" p-id="10839" fill="#FF8017"></path></svg>