<?xml version="1.0" standalone="no"?><!DOCTYPE svg PUBLIC "-//W3C//DTD SVG 1.1//EN" "http://www.w3.org/Graphics/SVG/1.1/DTD/svg11.dtd"><svg t="1654152943003" class="icon" viewBox="0 0 1024 1024" version="1.1" xmlns="http://www.w3.org/2000/svg" p-id="5245" width="48" height="48" xmlns:xlink="http://www.w3.org/1999/xlink"><defs><style type="text/css">@font-face { font-family: feedback-iconfont; src: url("//at.alicdn.com/t/font_1031158_u69w8yhxdu.woff2?t=1630033759944") format("woff2"), url("//at.alicdn.com/t/font_1031158_u69w8yhxdu.woff?t=1630033759944") format("woff"), url("//at.alicdn.com/t/font_1031158_u69w8yhxdu.ttf?t=1630033759944") format("truetype"); }
</style></defs><path d="M902.656 462.336h-340.992V123.392c0-26.624-23.04-49.664-49.664-49.664-27.136 0-49.664 22.016-49.664 49.664v340.992H123.392c-26.624 0-49.664 23.04-49.664 49.664 0 27.136 22.016 49.664 49.664 49.664h340.992v340.992c0 26.624 23.04 49.664 49.664 49.664 27.136 0 49.664-22.016 49.664-49.664v-343.552h340.992c26.624 0 49.664-23.04 49.664-49.664 0-27.648-27.648-49.152-51.712-49.152z" p-id="5246" fill="#AAAAAA"></path></svg>