<?xml version="1.0" encoding="UTF-8"?>
<svg width="40px" height="40px" viewBox="0 0 40 40" version="1.1" xmlns="http://www.w3.org/2000/svg" xmlns:xlink="http://www.w3.org/1999/xlink">
    <title>物流查询</title>
    <defs>
        <radialGradient cx="50%" cy="50%" fx="50%" fy="50%" r="50%" id="radialGradient-1">
            <stop stop-color="#34B2FF" offset="0%"></stop>
            <stop stop-color="#36C1FC" offset="100%"></stop>
        </radialGradient>
        <rect id="path-2" x="0" y="0" width="40" height="40" rx="4"></rect>
        <linearGradient x1="50%" y1="33.1353635%" x2="50%" y2="100%" id="linearGradient-4">
            <stop stop-color="#D8F7FF" stop-opacity="0.297526042" offset="0%"></stop>
            <stop stop-color="#D8F7FF" stop-opacity="0" offset="100%"></stop>
        </linearGradient>
        <linearGradient x1="50%" y1="33.1353635%" x2="50%" y2="100%" id="linearGradient-5">
            <stop stop-color="#D8F7FF" stop-opacity="0.297526042" offset="0%"></stop>
            <stop stop-color="#D8F7FF" stop-opacity="0" offset="100%"></stop>
        </linearGradient>
        <linearGradient x1="50%" y1="33.1353635%" x2="50%" y2="100%" id="linearGradient-6">
            <stop stop-color="#D8F7FF" stop-opacity="0.297526042" offset="0%"></stop>
            <stop stop-color="#D8F7FF" stop-opacity="0" offset="100%"></stop>
        </linearGradient>
        <path d="M16.6071429,4 C17.0589286,4 17.4285714,4.36964286 17.4285714,4.82142857 L17.4285714,4.82142857 L17.4285714,8.92857143 L20.4883929,8.92857143 C20.6321429,8.92857143 20.7553571,8.99017857 20.8375,9.11339286 L20.8375,9.11339286 L23.9383929,13.775 C23.9794643,13.8366071 24,13.91875 24,14.0008929 L24,14.0008929 L24,16.3214286 C24,16.7732143 23.6303571,17.1428571 23.1785714,17.1428571 L23.1785714,17.1428571 L22.3571429,17.1428571 C22.3571429,18.95 20.8785714,20.4285714 19.0714286,20.4285714 C17.2642857,20.4285714 15.7857143,18.95 15.7857143,17.1428571 L15.7857143,17.1428571 L9.21428571,17.1428571 C9.21428571,18.95 7.73571429,20.4285714 5.92857143,20.4285714 C4.12142857,20.4285714 2.64285714,18.95 2.64285714,17.1428571 L2.64285714,17.1428571 L1.82142857,17.1428571 C1.36964286,17.1428571 1,16.7732143 1,16.3214286 L1,16.3214286 L1,4.82142857 C1,4.36964286 1.36964286,4 1.82142857,4 L1.82142857,4 Z M7.55089286,17.4508929 C7.77678571,16.3008929 6.77053571,15.2946429 5.62053571,15.5205357 C4.96339286,15.64375 4.45,16.1776786 4.32678571,16.8142857 C4.10089286,17.9642857 5.10714286,18.9705357 6.25714286,18.7446429 C6.89375,18.6214286 7.40714286,18.1080357 7.55089286,17.4508929 Z M20.69375,17.4508929 C20.9196429,16.3008929 19.9133929,15.2946429 18.7633929,15.5205357 C18.10625,15.64375 17.5928571,16.1776786 17.4696429,16.8142857 C17.24375,17.9642857 18.25,18.9705357 19.4,18.7446429 C20.0366071,18.6214286 20.55,18.1080357 20.69375,17.4508929 Z M19.8723214,10.5714286 L17.4285714,10.5714286 L17.4285714,13.8571429 L22.3571429,13.8571429 L20.2008929,10.75625 C20.1392857,10.6330357 20.0160714,10.5714286 19.8723214,10.5714286 L19.8723214,10.5714286 Z M9.14088864,7 L7.13522617,7 L6,13 L10.7347131,13 L11,11.5978342 L8.27094939,11.5978342 L9.14088864,7 Z" id="path-7"></path>
        <filter x="-4.3%" y="-6.1%" width="108.7%" height="112.2%" filterUnits="objectBoundingBox" id="filter-8">
            <feGaussianBlur stdDeviation="0.5" in="SourceAlpha" result="shadowBlurInner1"></feGaussianBlur>
            <feOffset dx="-1" dy="-1" in="shadowBlurInner1" result="shadowOffsetInner1"></feOffset>
            <feComposite in="shadowOffsetInner1" in2="SourceAlpha" operator="arithmetic" k2="-1" k3="1" result="shadowInnerInner1"></feComposite>
            <feColorMatrix values="0 0 0 0 0.211764706   0 0 0 0 0.756862745   0 0 0 0 0.988235294  0 0 0 0.3 0" type="matrix" in="shadowInnerInner1"></feColorMatrix>
        </filter>
    </defs>
    <g id="页面-1" stroke="none" stroke-width="1" fill="none" fill-rule="evenodd">
        <g id="Blue-01-首页-客户经理" transform="translate(-61.000000, -1017.000000)">
            <g id="物流查询" transform="translate(61.000000, 1017.000000)">
                <g id="Group-2">
                    <mask id="mask-3" fill="white">
                        <use xlink:href="#path-2"></use>
                    </mask>
                    <use id="蒙版" fill="url(#radialGradient-1)" xlink:href="#path-2"></use>
                    <g opacity="0.8" mask="url(#mask-3)">
                        <g transform="translate(-6.000000, 0.000000)">
                            <path d="M16,5 L18,5 C20.209139,5 22,6.790861 22,9 L22,19 C22,21.209139 20.209139,23 18,23 L16,23 C13.790861,23 12,21.209139 12,19 L12,9 C12,6.790861 13.790861,5 16,5 Z" id="Rectangle-15-Copy-5" fill="url(#linearGradient-4)" opacity="0.3"></path>
                            <path d="M37,5 L39,5 C41.209139,5 43,6.790861 43,9 L43,19 C43,21.209139 41.209139,23 39,23 L37,23 C34.790861,23 33,21.209139 33,19 L33,9 C33,6.790861 34.790861,5 37,5 Z" id="Rectangle-15-Copy-6" fill="url(#linearGradient-4)" opacity="0.3"></path>
                            <rect id="Rectangle-15-Copy-3" fill="url(#linearGradient-5)" opacity="0.601116071" x="37" y="0" width="16" height="29" rx="4"></rect>
                            <rect id="Rectangle-15-Copy-4" fill="url(#linearGradient-5)" opacity="0.601116071" x="2" y="0" width="16" height="29" rx="4"></rect>
                            <path d="M6,22 L16,22 C19.3137085,22 22,24.6862915 22,28 L22,42 L22,42 L0,42 L0,28 C-4.05812251e-16,24.6862915 2.6862915,22 6,22 Z" id="Rectangle-15" fill="url(#linearGradient-6)" opacity="0.601116071"></path>
                            <path d="M40,22 L50,22 C53.3137085,22 56,24.6862915 56,28 L56,42 L56,42 L34,42 L34,28 C34,24.6862915 36.6862915,22 40,22 Z" id="Rectangle-15-Copy-2" fill="url(#linearGradient-6)" opacity="0.601116071"></path>
                        </g>
                    </g>
                </g>
                <g id="01运输中、物流" transform="translate(8.000000, 9.000000)" fill-rule="nonzero">
                    <rect id="矩形" fill="#000000" opacity="0" x="0" y="0" width="24" height="24"></rect>
                    <g id="形状结合">
                        <use fill="#FFFFFF" xlink:href="#path-7"></use>
                        <use fill="black" fill-opacity="1" filter="url(#filter-8)" xlink:href="#path-7"></use>
                    </g>
                </g>
            </g>
        </g>
    </g>
</svg>