<?xml version="1.0" encoding="UTF-8"?>
<svg width="40px" height="40px" viewBox="0 0 40 40" version="1.1" xmlns="http://www.w3.org/2000/svg" xmlns:xlink="http://www.w3.org/1999/xlink">
    <title>贷款计算器</title>
    <defs>
        <radialGradient cx="50%" cy="50%" fx="50%" fy="50%" r="50%" id="radialGradient-1">
            <stop stop-color="#2877FF" offset="0%"></stop>
            <stop stop-color="#4A8DFF" offset="100%"></stop>
        </radialGradient>
        <rect id="path-2" x="0" y="0" width="40" height="40" rx="4"></rect>
        <linearGradient x1="50%" y1="33.1353635%" x2="50%" y2="100%" id="linearGradient-4">
            <stop stop-color="#D8F7FF" stop-opacity="0.297526042" offset="0%"></stop>
            <stop stop-color="#D8F7FF" stop-opacity="0" offset="100%"></stop>
        </linearGradient>
        <linearGradient x1="50%" y1="33.1353635%" x2="50%" y2="100%" id="linearGradient-5">
            <stop stop-color="#D8F7FF" stop-opacity="0.297526042" offset="0%"></stop>
            <stop stop-color="#D8F7FF" stop-opacity="0" offset="100%"></stop>
        </linearGradient>
        <linearGradient x1="50%" y1="33.1353635%" x2="50%" y2="100%" id="linearGradient-6">
            <stop stop-color="#D8F7FF" stop-opacity="0.297526042" offset="0%"></stop>
            <stop stop-color="#D8F7FF" stop-opacity="0" offset="100%"></stop>
        </linearGradient>
        <path d="M16.1164626,9.67196187 C16.592484,9.39313658 16.8857448,8.8778515 16.8857448,8.32020092 L16.8857448,3.81381084 C16.8857448,3.25617043 16.5926483,2.740675 16.1164626,2.46204989 L12.2700515,0.209245095 C11.7940605,-0.0697483651 11.207478,-0.0697483651 10.731487,0.209245095 L6.88507589,2.46204989 C6.40905449,2.74087519 6.11579368,3.25616026 6.11579368,3.81381084 L6.11579368,8.3198107 C6.11579368,8.87745112 6.40889021,9.39294654 6.88507589,9.67157163 L10.731487,11.9243764 C11.207478,12.2033699 11.7940605,12.2033699 12.2700515,11.9243764 L16.1164626,9.67196187 L16.1164626,9.67196187 Z M12.2700515,8.01816195 C12.2700515,8.44919946 11.9256321,8.79862439 11.5007692,8.79862439 C11.0759064,8.79862439 10.731487,8.44919946 10.731487,8.01816195 L10.731487,6.84746831 L9.57756368,6.84746831 C9.15270086,6.84746829 8.80828149,6.49804337 8.80828149,6.06700588 C8.80828149,5.63596839 9.15270086,5.28654347 9.57756368,5.28654345 L10.731487,5.28654345 L10.731487,4.1158498 C10.731487,3.6848123 11.0759064,3.33538737 11.5007692,3.33538737 C11.9256321,3.33538737 12.2700515,3.6848123 12.2700515,4.1158498 L12.2700515,5.28654345 L13.4239748,5.28654345 C13.8488376,5.28654347 14.193257,5.63596839 14.193257,6.06700588 C14.193257,6.49804337 13.8488376,6.84746829 13.4239748,6.84746831 L12.2700515,6.84746831 L12.2700515,8.01816195 L12.2700515,8.01816195 Z M10.0006689,13.3284284 L6.1542578,11.0756236 C5.67826685,10.7966301 5.09168428,10.7966301 4.61569334,11.0756236 L0.769282216,13.3284284 C0.293260812,13.6072536 0,14.1225387 0,14.6801893 L0,19.1861892 C0,19.7438296 0.293096527,20.259325 0.769282216,20.5379501 L4.61569334,22.7907549 C5.09168428,23.0697484 5.67826685,23.0697484 6.1542578,22.7907549 L10.0006689,20.5379501 C10.4766903,20.2591248 10.7699511,19.7438397 10.7699511,19.1861892 L10.7699511,14.6805795 C10.7699511,14.1225489 10.47647,13.6074437 10.0006689,13.3284284 Z M7.30818113,17.7138468 L3.46177001,17.7138468 C3.03690717,17.7138468 2.69248779,17.3644218 2.69248779,16.9333843 C2.69248779,16.5023468 3.03690717,16.1529219 3.46177001,16.1529219 L7.30818113,16.1529219 C7.73304397,16.1529219 8.07746335,16.5023468 8.07746335,16.9333843 C8.07746335,17.3644218 7.73304397,17.7138468 7.30818113,17.7138468 Z M22.2307177,13.3284284 L18.3843066,11.0756236 C17.9083156,10.7966301 17.3217331,10.7966301 16.8457421,11.0756236 L12.999331,13.3284284 C12.5233096,13.6072536 12.2300488,14.1225387 12.2300488,14.6801893 L12.2300488,19.1861892 C12.2300488,19.7438296 12.5231453,20.259325 12.999331,20.5379501 L16.8457421,22.7907549 C17.3217331,23.0697484 17.9083156,23.0697484 18.3843066,22.7907549 L22.2307177,20.5379501 C22.7067391,20.2591248 23,19.7438397 23,19.1861892 L23,14.6805795 C23.0001234,14.1227895 22.7068581,13.6073233 22.2307177,13.3284284 L22.2307177,13.3284284 Z M19.6166967,19.079656 L15.7702856,19.079656 C15.3454227,19.079656 15.0010033,18.7302311 15.0010033,18.2991936 C15.0010033,17.8681561 15.3454227,17.5187312 15.7702856,17.5187312 L19.6166967,17.5187312 C20.0415595,17.5187312 20.3859789,17.8681561 20.3859789,18.2991936 C20.3859789,18.7302311 20.0415595,19.079656 19.6166967,19.079656 Z M19.6166967,16.3480375 L15.7702856,16.3480375 C15.3454227,16.3480375 15.0010033,15.9986126 15.0010033,15.5675751 C15.0010033,15.1365376 15.3454227,14.7871126 15.7702856,14.7871126 L19.6166967,14.7871126 C20.0415595,14.7871126 20.3859789,15.1365376 20.3859789,15.5675751 C20.3859789,15.9986126 20.0415595,16.3480375 19.6166967,16.3480375 Z" id="path-7"></path>
        <filter x="-4.3%" y="-4.3%" width="108.7%" height="108.7%" filterUnits="objectBoundingBox" id="filter-8">
            <feGaussianBlur stdDeviation="0.5" in="SourceAlpha" result="shadowBlurInner1"></feGaussianBlur>
            <feOffset dx="-1" dy="-1" in="shadowBlurInner1" result="shadowOffsetInner1"></feOffset>
            <feComposite in="shadowOffsetInner1" in2="SourceAlpha" operator="arithmetic" k2="-1" k3="1" result="shadowInnerInner1"></feComposite>
            <feColorMatrix values="0 0 0 0 0.156862745   0 0 0 0 0.466666667   0 0 0 0 1  0 0 0 0.3 0" type="matrix" in="shadowInnerInner1"></feColorMatrix>
        </filter>
    </defs>
    <g id="页面-1" stroke="none" stroke-width="1" fill="none" fill-rule="evenodd">
        <g id="Blue-01-首页-客户经理" transform="translate(-1703.000000, -1576.000000)">
            <g id="贷款计算器" transform="translate(1703.000000, 1576.000000)">
                <g id="Group-2">
                    <mask id="mask-3" fill="white">
                        <use xlink:href="#path-2"></use>
                    </mask>
                    <use id="蒙版" fill="url(#radialGradient-1)" xlink:href="#path-2"></use>
                    <g opacity="0.6" mask="url(#mask-3)">
                        <g transform="translate(-8.000000, 0.000000)">
                            <path d="M16,5 L18,5 C20.209139,5 22,6.790861 22,9 L22,19 C22,21.209139 20.209139,23 18,23 L16,23 C13.790861,23 12,21.209139 12,19 L12,9 C12,6.790861 13.790861,5 16,5 Z" id="Rectangle-15-Copy-5" fill="url(#linearGradient-4)" opacity="0.3"></path>
                            <path d="M37,5 L39,5 C41.209139,5 43,6.790861 43,9 L43,19 C43,21.209139 41.209139,23 39,23 L37,23 C34.790861,23 33,21.209139 33,19 L33,9 C33,6.790861 34.790861,5 37,5 Z" id="Rectangle-15-Copy-6" fill="url(#linearGradient-4)" opacity="0.3"></path>
                            <rect id="Rectangle-15-Copy-3" fill="url(#linearGradient-5)" opacity="0.601116071" x="37" y="0" width="16" height="29" rx="4"></rect>
                            <rect id="Rectangle-15-Copy-4" fill="url(#linearGradient-5)" opacity="0.601116071" x="2" y="0" width="16" height="29" rx="4"></rect>
                            <path d="M6,22 L16,22 C19.3137085,22 22,24.6862915 22,28 L22,42 L22,42 L0,42 L0,28 C-4.05812251e-16,24.6862915 2.6862915,22 6,22 Z" id="Rectangle-15" fill="url(#linearGradient-6)" opacity="0.601116071"></path>
                            <path d="M40,22 L50,22 C53.3137085,22 56,24.6862915 56,28 L56,42 L56,42 L34,42 L34,28 C34,24.6862915 36.6862915,22 40,22 Z" id="Rectangle-15-Copy-2" fill="url(#linearGradient-6)" opacity="0.601116071"></path>
                        </g>
                    </g>
                </g>
                <g id="计算器1" transform="translate(9.000000, 8.000000)" fill-rule="nonzero">
                    <rect id="矩形" fill="#000000" opacity="0" x="0" y="0" width="23" height="23"></rect>
                    <g id="形状">
                        <use fill="#FFFFFF" xlink:href="#path-7"></use>
                        <use fill="black" fill-opacity="1" filter="url(#filter-8)" xlink:href="#path-7"></use>
                    </g>
                </g>
            </g>
        </g>
    </g>
</svg>