<?xml version="1.0" encoding="UTF-8"?>
<svg width="40px" height="40px" viewBox="0 0 40 40" version="1.1" xmlns="http://www.w3.org/2000/svg" xmlns:xlink="http://www.w3.org/1999/xlink">
    <title>还款计算器</title>
    <defs>
        <rect id="path-1" x="0" y="0" width="40" height="40" rx="4"></rect>
        <linearGradient x1="50%" y1="33.9922446%" x2="50%" y2="79.7564338%" id="linearGradient-3">
            <stop stop-color="#FFEEFD" stop-opacity="0.200209466" offset="0%"></stop>
            <stop stop-color="#FFB8F0" stop-opacity="0" offset="100%"></stop>
        </linearGradient>
        <path d="M24.381351,18.0733468 C24.3423788,18.0395611 24.3008083,18.0057753 24.2592379,17.9719896 C24.108545,17.8524401 23.9526559,17.7432862 23.7863741,17.6445279 C23.6590647,17.5665608 23.5265589,17.4937915 23.391455,17.4314178 C23.3031178,17.3898354 23.2147806,17.3508519 23.1238453,17.3144672 C22.9107968,17.2313023 22.692552,17.161132 22.4639145,17.1091539 C22.4119515,17.0987583 22.3573903,17.0909616 22.3028291,17.080566 C22.0404157,17.0311868 21.772806,17 21.4974018,17 C19.0135681,17 17,19.0141496 17,21.4987005 C17,21.7741842 17.033776,22.0418712 17.0805427,22.3043604 C17.0909353,22.3615362 17.0987298,22.4161132 17.1117206,22.4732891 C17.1636836,22.7071903 17.2338337,22.9358937 17.3221709,23.1542016 C17.3533487,23.2347675 17.392321,23.3101357 17.4286952,23.3907017 C17.4988453,23.5414381 17.579388,23.6869766 17.6677252,23.8299163 C17.7534642,23.9728559 17.8495958,24.1053999 17.9509238,24.237944 C18.0158776,24.3211089 18.0808314,24.4016748 18.1509815,24.4796419 C18.9745958,25.4048513 20.1619515,26 21.5,26 C22.9341801,26 24.1968822,25.3164886 25.0204965,24.2717297 C25.6232679,23.5050534 26,22.5512561 26,21.5012995 C25.9948037,20.1212821 25.3582564,18.8997979 24.381351,18.0733468 L24.381351,18.0733468 Z M18.9823903,21.1998267 L20.5672633,19.5313312 C20.6062356,19.4897488 20.6556005,19.4715565 20.7049654,19.4715565 C20.8036952,19.4715565 20.8972286,19.5469246 20.8972286,19.6638753 L20.8972286,20.6722495 L20.9154157,20.6722495 C22.5600462,20.6722495 23.9084873,21.9275195 24.0643764,23.5310424 L24.0357968,23.5310424 C23.7941686,22.6110309 22.4924942,21.9093272 20.9154157,21.9093272 L20.8972286,21.9093272 L20.8972286,23.0034652 C20.8972286,23.1204158 20.8036952,23.195784 20.7049654,23.195784 C20.6556005,23.195784 20.6062356,23.1775917 20.5672633,23.1360092 L18.9823903,21.4675137 C18.9122402,21.3921455 18.9122402,21.2751949 18.9823903,21.1998267 L18.9823903,21.1998267 Z" id="path-4"></path>
        <filter x="-11.1%" y="-11.1%" width="122.2%" height="122.2%" filterUnits="objectBoundingBox" id="filter-5">
            <feGaussianBlur stdDeviation="0.5" in="SourceAlpha" result="shadowBlurInner1"></feGaussianBlur>
            <feOffset dx="-1" dy="-1" in="shadowBlurInner1" result="shadowOffsetInner1"></feOffset>
            <feComposite in="shadowOffsetInner1" in2="SourceAlpha" operator="arithmetic" k2="-1" k3="1" result="shadowInnerInner1"></feComposite>
            <feColorMatrix values="0 0 0 0 0.447058824   0 0 0 0 0.462745098   0 0 0 0 1  0 0 0 0.3 0" type="matrix" in="shadowInnerInner1"></feColorMatrix>
        </filter>
        <path d="M14.579096,24.0226629 L14.559322,23.98017 L14.5564972,23.9745042 C14.5056497,23.8668555 14.4576271,23.7592068 14.4180791,23.6572238 C14.2824859,23.3201133 14.1723164,22.9660057 14.0903955,22.6005666 C14.0734463,22.5269122 14.059322,22.4532578 14.0423729,22.3456091 C13.960452,21.9008499 13.920904,21.4957507 13.920904,21.1048159 C13.920904,17.3002833 17.0084746,14.203966 20.8022599,14.203966 C21.1949153,14.203966 21.6016949,14.2436261 22.0677966,14.3314448 C22.1384181,14.3427762 22.2090395,14.3569405 22.2881356,14.3739377 C22.6271186,14.4504249 22.9689266,14.5580737 23.2937853,14.6855524 C23.4350282,14.7393768 23.5677966,14.8016997 23.7175141,14.8696884 C23.8135593,14.9150142 23.9067797,14.9716714 24,15.0226629 L24,5.7592068 C24,5.50991501 23.799435,5.30878187 23.5508475,5.30878187 L18.9463277,5.30878187 L18.9463277,4.67705382 C18.9463277,4.42492918 18.7429379,4.22096317 18.4915254,4.22096317 L15.980226,4.22096317 C15.8446328,3.52407932 15.2344633,3 14.5028249,3 C13.7683616,3 13.1581921,3.52691218 13.0254237,4.22096317 L10.8418079,4.22096317 C10.5903955,4.22096317 10.3870056,4.42492918 10.3870056,4.67705382 L10.3870056,5.30878187 L5.44915254,5.30878187 C5.20056497,5.30878187 5,5.50991501 5,5.7592068 L5,24.5495751 C5,24.7988669 5.20056497,25 5.44915254,25 L15.1553672,25 C15.0847458,24.898017 15,24.7903683 14.9435028,24.694051 C14.8107345,24.4815864 14.6864407,24.2549575 14.579096,24.0226629 Z M14.5,5.12181303 C15.0508475,5.12181303 15.4943503,5.5694051 15.4943503,6.11898017 C15.4943503,6.6713881 15.0480226,7.11614731 14.5,7.11614731 C13.9491525,7.11614731 13.5056497,6.66855524 13.5056497,6.11898017 C13.5056497,5.5694051 13.9519774,5.12181303 14.5,5.12181303 Z M7.79943503,10.0906516 C7.79943503,9.83852691 8.00282486,9.63456091 8.25423729,9.63456091 L15.0480226,9.63456091 C15.299435,9.63456091 15.5028249,9.83852691 15.5028249,10.0906516 L15.5028249,11.1784703 C15.5028249,11.4305949 15.299435,11.6345609 15.0480226,11.6345609 L8.25423729,11.6345609 C8.00282486,11.6345609 7.79943503,11.4305949 7.79943503,11.1784703 L7.79943503,10.0906516 Z M13.5056497,15.4305949 C13.5056497,15.6827195 13.3022599,15.8866856 13.0508475,15.8866856 L8.25423729,15.8866856 C8.00282486,15.8866856 7.79943503,15.6827195 7.79943503,15.4305949 L7.79943503,14.3427762 C7.79943503,14.0906516 8.00282486,13.8866856 8.25423729,13.8866856 L13.0508475,13.8866856 C13.3022599,13.8866856 13.5056497,14.0906516 13.5056497,14.3427762 L13.5056497,15.4305949 Z" id="path-6"></path>
        <filter x="-5.3%" y="-4.5%" width="110.5%" height="109.1%" filterUnits="objectBoundingBox" id="filter-7">
            <feGaussianBlur stdDeviation="0.5" in="SourceAlpha" result="shadowBlurInner1"></feGaussianBlur>
            <feOffset dx="-1" dy="-1" in="shadowBlurInner1" result="shadowOffsetInner1"></feOffset>
            <feComposite in="shadowOffsetInner1" in2="SourceAlpha" operator="arithmetic" k2="-1" k3="1" result="shadowInnerInner1"></feComposite>
            <feColorMatrix values="0 0 0 0 0.447058824   0 0 0 0 0.462745098   0 0 0 0 1  0 0 0 0.3 0" type="matrix" in="shadowInnerInner1"></feColorMatrix>
        </filter>
    </defs>
    <g id="页面-1" stroke="none" stroke-width="1" fill="none" fill-rule="evenodd">
        <g id="Blue-01-首页-客户经理" transform="translate(-1590.000000, -1576.000000)">
            <g id="还款计算器" transform="translate(1590.000000, 1576.000000)">
                <g id="Oval-16">
                    <mask id="mask-2" fill="white">
                        <use xlink:href="#path-1"></use>
                    </mask>
                    <use id="蒙版" fill="#7276FF" xlink:href="#path-1"></use>
                    <g opacity="0.8" mask="url(#mask-2)" fill="url(#linearGradient-3)">
                        <g transform="translate(-15.000000, 0.000000)" opacity="0.4">
                            <path d="M58.3137255,32 C67.5300655,32 74.7667343,24.836556 73.372549,16.3137255 C70.7440416,7.163444 63.5073729,0 58.3137255,0 C51.8651761,0 44.6285074,7.163444 42,16.3137255 C40.6058148,24.836556 47.8424835,32 58.3137255,32 Z" id="Oval-16-Copy-8"></path>
                            <path d="M16.3137255,32 C25.5300655,32 32.7667343,24.836556 31.372549,16.3137255 C28.7440416,7.163444 21.5073729,0 16.3137255,0 C9.86517613,0 2.62850737,7.163444 0,16.3137255 C-1.39418523,24.836556 5.84248353,32 16.3137255,32 Z" id="Oval-16-Copy-9"></path>
                            <path d="M26.3103448,25 C31.6478751,25 35.7999138,20.9705627 35,16.3103448 C33.4918939,11.0294373 29.3398552,7 26.3103448,7 C22.6601448,7 18.5081061,11.0294373 17,16.3103448 C16.2000862,20.9705627 20.3521249,25 26.3103448,25 Z" id="Oval-16-Copy-10"></path>
                            <path d="M48.3103448,25 C53.6478751,25 57.7999138,20.9705627 57,16.3103448 C55.4918939,11.0294373 51.3398552,7 48.3103448,7 C44.6601448,7 40.5081061,11.0294373 39,16.3103448 C38.2000862,20.9705627 42.3521249,25 48.3103448,25 Z" id="Oval-16-Copy-11"></path>
                            <path d="M16.3137255,56 C25.5300655,56 32.7667343,48.836556 31.372549,40.3137255 C28.7440416,31.163444 21.5073729,24 16.3137255,24 C9.86517613,24 2.62850737,31.163444 0,40.3137255 C-1.39418523,48.836556 5.84248353,56 16.3137255,56 Z" id="Oval-16-Copy-6"></path>
                            <path d="M58.3137255,56 C67.5300655,56 74.7667343,48.836556 73.372549,40.3137255 C70.7440416,31.163444 63.5073729,24 58.3137255,24 C51.8651761,24 44.6285074,31.163444 42,40.3137255 C40.6058148,48.836556 47.8424835,56 58.3137255,56 Z" id="Oval-16-Copy-7"></path>
                        </g>
                    </g>
                </g>
                <g id="计算器" transform="translate(6.000000, 5.000000)" fill-rule="nonzero">
                    <rect id="矩形" fill="#000000" opacity="0" x="0" y="0" width="29" height="29"></rect>
                    <g id="形状">
                        <use fill="#FFFFFF" xlink:href="#path-4"></use>
                        <use fill="black" fill-opacity="1" filter="url(#filter-5)" xlink:href="#path-4"></use>
                    </g>
                    <g id="形状">
                        <use fill="#FFFFFF" xlink:href="#path-6"></use>
                        <use fill="black" fill-opacity="1" filter="url(#filter-7)" xlink:href="#path-6"></use>
                    </g>
                </g>
            </g>
        </g>
    </g>
</svg>