<?xml version="1.0" encoding="UTF-8"?>
<svg width="40px" height="40px" viewBox="0 0 40 40" version="1.1" xmlns="http://www.w3.org/2000/svg" xmlns:xlink="http://www.w3.org/1999/xlink">
    <title>保监会</title>
    <defs>
        <rect id="path-1" x="0" y="0" width="40" height="40" rx="4"></rect>
        <linearGradient x1="50%" y1="33.9922446%" x2="50%" y2="79.7564338%" id="linearGradient-3">
            <stop stop-color="#FFEEFD" stop-opacity="0.200209466" offset="0%"></stop>
            <stop stop-color="#FFB8F0" stop-opacity="0" offset="100%"></stop>
        </linearGradient>
        <path d="M10.6673293,0.0302453102 C10.7906525,-0.00845302165 10.9228696,-0.00845302165 11.0461928,0.0302453102 C13.1640401,0.757663331 15.2780988,1.51539044 17.395946,2.2560687 C17.526449,2.29111644 17.6269791,2.39528893 17.6573619,2.52695614 C17.9396153,3.46653776 18.4302436,4.25836259 19.2940525,4.77361704 C19.696772,5.02015138 20.1659428,5.13595517 20.6371238,5.10512265 C20.8265556,5.09186244 20.8795965,5.16005788 20.8795965,5.32675784 C20.9117999,6.12615994 20.942109,6.92366774 20.9856783,7.72685847 C20.9246168,10.7622104 20.2587175,13.7548933 19.0269537,16.5297532 C17.9793959,18.9222766 16.507511,21.0154978 14.4654364,22.6768145 C13.4380479,23.5217658 12.2670169,24.1749765 11.0083065,24.60523 C10.9049816,24.6351719 10.7952803,24.6351719 10.6919554,24.60523 C9.67091811,24.319188 8.81847512,23.747104 7.96603211,23.1560769 C5.67011896,21.5629556 4.03342838,19.4318481 2.87031726,16.9161941 C1.71498995,14.3613417 1.05728844,11.6096677 0.932430153,8.80851393 C0.840549757,7.64085993 0.812093165,6.4690806 0.847185859,5.29834307 C0.856657442,5.11838289 0.900226747,5.0558704 1.08965852,5.0558704 C1.57212116,5.08167895 2.05426216,4.99948847 2.50092529,4.81529203 C3.08626947,4.5538762 3.42535235,4.07840242 3.66971936,3.51010709 C3.81558183,3.17670713 3.93113521,2.83004698 4.04858291,2.48528115 C4.07593755,2.37194866 4.16081513,2.28131666 4.27211241,2.24659712 C6.39374834,1.51539044 8.52296154,0.757663331 10.6673293,0.0302453102 Z M10.9779974,1.19903938 C10.9053552,1.17544634 10.8271101,1.17544634 10.7544679,1.19903938 C8.83552397,1.87909946 6.92415732,2.56673681 4.99763614,3.24869124 C4.89119993,3.28078562 4.81109649,3.36889939 4.78926117,3.47790368 C4.73913735,3.66525492 4.67583574,3.8488296 4.59982939,4.02725583 C4.2361204,4.85696704 3.67919096,5.4915635 2.79075591,5.76813389 C2.50607811,5.83895203 2.21770143,5.89397126 1.926947,5.93293953 C1.9061095,6.15646903 1.87580041,6.40083601 1.86254019,6.64520301 C1.68740508,9.72961909 2.19650148,12.8146009 3.3533683,15.6792045 C4.19114899,17.8227362 5.52677763,19.7362499 7.24997999,21.2617591 C8.26218587,22.1739819 9.42821281,22.8993815 10.6938497,23.4042325 C10.7884279,23.4364195 10.8909965,23.4364195 10.9855746,23.4042325 C11.794916,23.1012884 12.5595721,22.6902857 13.258756,22.1823975 C15.85776,20.3240718 17.6232642,17.8197837 18.6992367,14.8305502 C19.7183797,12.0023337 20.0195762,9.07561274 19.7903637,6.08827358 C19.7771035,5.91399636 19.7164853,5.87232137 19.5573626,5.87232137 C19.0044215,5.84659533 18.478663,5.62501127 18.0741118,5.24719649 C17.5561654,4.76601105 17.1811942,4.15111077 16.9905621,3.47032642 C16.9563515,3.3398431 16.8553425,3.23739112 16.7253575,3.20133327 C14.808308,2.53327054 12.8925212,1.86583925 10.9779974,1.19903938 Z M10.498735,12.409612 C10.4760032,15.705725 10.4551657,19.0056266 10.4324339,22.3604634 C10.1085055,22.2468043 9.8167806,22.1710316 9.54210451,22.0441123 C8.21608206,21.4549795 7.208305,20.4964547 6.36533357,19.3466038 C5.2973701,17.9003683 4.4212216,16.3219001 3.75875231,14.65059 C3.56932053,14.1826935 3.56932053,14.1580674 3.94818408,13.8322447 C4.43326009,13.4399484 4.99540549,13.1540352 5.59813488,12.9930619 C6.79168272,12.6417846 8.02564243,12.4463122 9.26932275,12.4115064 C9.66334086,12.3963518 10.0649362,12.409612 10.498735,12.409612 Z M16.0074111,12.9532812 C16.6725183,13.1173828 17.2925467,13.4280442 17.8221676,13.8625538 L17.8808914,13.9137004 C18.1593561,14.1713276 18.1688277,14.1732219 18.0286482,14.525565 C17.1686279,16.6945589 16.0509804,18.710113 14.4559648,20.4301536 C13.7433403,21.213647 12.8525279,21.8140195 11.8588552,22.1805032 C11.6902609,22.2430157 11.5140893,22.2827964 11.3113973,22.3434145 C11.2886655,19.0113095 11.267828,15.7133023 11.2450962,12.4020348 C11.2889479,12.3939057 11.3332166,12.388214 11.3776984,12.3849859 C12.9401335,12.3528025 14.4991447,12.5441705 16.0074111,12.9532812 Z M6.20431657,10.0511864 C5.96373822,10.1610568 5.7383144,10.2709273 5.50531329,10.3656431 C5.44759173,10.3699402 5.39107311,10.3476118 5.35187355,10.305025 C5.19642049,10.0907556 4.91361244,10.0121978 4.66991916,10.1155932 C4.42462683,10.1909201 4.26624491,10.428493 4.2910556,10.6838885 C4.32182479,10.9798368 4.38535793,11.271454 4.48048738,11.5533804 C4.56064259,11.7890639 4.80623245,11.9257756 5.04878271,11.8697315 C5.29891966,11.8610927 5.51083944,11.6827986 5.56214284,11.437827 C5.58487466,11.3450055 5.59624056,11.2483952 5.61707804,11.1385248 L6.45057786,11.2142975 C6.50022468,11.6502928 6.29739332,12.0765326 5.92774615,12.3130018 C5.50684088,12.5707284 5.00719148,12.6682374 4.52026805,12.5876779 C4.10405119,12.509468 3.7512596,12.2349962 3.57310916,11.8507883 C3.39707873,11.5181954 3.31150456,11.1451965 3.32495352,10.7691328 C3.34768535,10.0114057 3.83073636,9.51320016 4.66991916,9.369232 C5.39354854,9.24420703 5.88038821,9.45447629 6.20431657,10.0511864 Z M16.8143905,9.34271154 C17.6441017,9.48289107 18.0684289,9.87880347 18.1631448,10.6043272 C18.1654128,10.6396514 18.1654128,10.6750848 18.1631448,10.710409 C17.8922573,10.6971488 17.6270528,10.6876772 17.365637,10.6649454 C17.3353279,10.6649454 17.2955472,10.5967499 17.2841813,10.5550749 C17.2461637,10.3020792 17.0406709,10.1075252 16.7859757,10.0833898 C16.5316949,10.0390248 16.2811203,10.1789356 16.185477,10.4186841 C16.0798883,10.6934986 16.0061598,10.9795144 15.9657361,11.2711271 C15.9342912,11.5089498 16.0856424,11.7327218 16.3180792,11.7920644 C16.5388468,11.8937057 16.8002569,11.8364739 16.9583586,11.6518849 C17.0246598,11.5799009 17.0777007,11.4984452 17.1477904,11.3980463 L17.8619482,11.8451053 C17.6673199,12.3537097 17.1526364,12.665639 16.6116985,12.6028325 C16.3798666,12.5711256 16.1523651,12.5132971 15.9335327,12.4304496 C15.2837817,12.1803996 14.9522761,11.6727224 15.0242602,10.9850851 C15.0599122,10.6557688 15.1528707,10.3352225 15.2989362,10.0379262 C15.5849782,9.46963085 16.138119,9.23094679 16.8143905,9.34271154 Z M9.30342047,8.6872776 C9.52947165,8.68366781 9.74395056,8.78702534 9.88197417,8.966083 C10.0199978,9.14514066 10.0653526,9.3788647 10.004318,9.59655013 C9.92745521,9.77791453 9.82542206,9.94754465 9.70122719,10.1004387 C10.2998316,10.2766102 10.5385157,10.9093124 10.1444976,11.3923634 C10.0424168,11.5251998 9.89919159,11.6204613 9.73721923,11.6632508 C9.02306143,11.7977474 8.31079794,11.8792031 7.55307083,11.9871792 C7.44509471,10.9263612 7.34090723,9.90911258 7.23482543,8.87102643 C7.61368901,8.82935142 7.97171506,8.78388779 8.33163545,8.75168439 C8.65376519,8.70856985 8.97841834,8.68705288 9.30342047,8.6872776 Z M11.4193734,8.57930148 C11.631537,8.59635033 11.8380177,8.60961055 12.0274494,8.62855374 C12.525655,8.67780599 13.0257549,8.70432645 13.5182775,8.78957074 C13.9127697,8.83585132 14.2045721,9.17890512 14.1869717,9.57571263 C14.2096807,9.95112533 13.9859466,10.292682 13.6434161,10.4265899 L13.5372207,10.460359 L13.4065128,10.5058227 C13.7437014,10.7388237 14.1017274,11.3809975 14.2210694,11.9663417 C13.8857752,11.9379269 13.5561639,11.9151951 13.2284469,11.8754144 C13.1773003,11.8678372 13.1223651,11.7901701 13.0958447,11.7333406 C12.9537708,11.4264611 12.8230629,11.115793 12.6828834,10.8089135 C12.5862732,10.5986442 12.5029232,10.549392 12.245296,10.5399204 C12.2213013,10.8127022 12.1973066,11.0854839 12.1727506,11.3661236 L12.1354256,11.7939588 L11.1617462,11.7125031 C11.2488848,10.6630511 11.3322348,9.63633081 11.4193734,8.57930148 Z M9.07041937,10.5228715 C8.84688987,10.5209772 8.62336037,10.549392 8.38657065,10.5664408 C8.40930247,10.7918647 8.42824564,10.9831908 8.45097746,11.2029316 C8.6877672,11.1688339 8.90561373,11.1479964 9.11777733,11.1044271 C9.26586744,11.0819568 9.36965199,10.9463673 9.35267273,10.7975476 C9.35491967,10.7226966 9.32564164,10.6503401 9.27197469,10.5981139 C9.21830775,10.5458877 9.14518152,10.518589 9.07041937,10.5228715 Z M8.81468646,9.34650018 C8.6655886,9.34857745 8.51682637,9.36123807 8.3695218,9.38438653 C8.32135982,9.40311665 8.28626884,9.44536905 8.27670022,9.49615128 C8.28238317,9.64769671 8.30700928,9.80113644 8.32595247,9.98109664 C8.52296154,9.95836482 8.70292171,9.94699892 8.87909327,9.91479551 C9.03308207,9.89375488 9.14209371,9.75360597 9.12459153,9.59917499 C9.10708935,9.444744 8.96947835,9.33254566 8.81468646,9.34650018 Z M12.3456948,9.28209339 C12.3267516,9.51320016 12.3115971,9.70642057 12.2926539,9.93752733 C12.4530395,9.93752733 12.6007963,9.94342076 12.7443435,9.94342076 L12.9575595,9.93752733 C13.0937544,9.92163611 13.199095,9.81125607 13.2105014,9.67437923 C13.2219078,9.53750239 13.13629,9.41120914 13.0049174,9.37112632 C12.7927538,9.32945133 12.5749073,9.31240248 12.3456948,9.28209339 Z M10.4911577,2.49475276 L10.4911577,7.9731198 C7.92625144,8.07730728 5.43901216,8.61908216 3.00291949,9.37112632 L3.00291949,6.52964963 C4.57899189,6.58647918 5.54319965,5.21309877 5.34240197,4.15985808 L10.4911577,2.49475276 Z M11.2886655,2.49475276 L16.4449985,4.16743535 C16.3212396,4.80818309 16.5401703,5.46712884 17.0227654,5.90641909 C17.4887461,6.35950419 18.1297373,6.58585853 18.7769037,6.525861 L18.7769037,9.36733768 L17.8411107,9.09266159 C16.148895,8.59718534 14.4155648,8.25483045 12.6620459,8.06972999 C12.2547676,8.028055 11.8437006,8.0072175 11.434528,7.9844857 C11.3284462,7.9844857 11.2697223,7.95985956 11.2697223,7.83104596 L11.2697223,2.59894022 C11.2730327,2.56373146 11.2793705,2.52887339 11.2886655,2.49475276 Z" id="path-4"></path>
        <filter x="-5.0%" y="-4.1%" width="109.9%" height="108.1%" filterUnits="objectBoundingBox" id="filter-5">
            <feGaussianBlur stdDeviation="0.5" in="SourceAlpha" result="shadowBlurInner1"></feGaussianBlur>
            <feOffset dx="-1" dy="-1" in="shadowBlurInner1" result="shadowOffsetInner1"></feOffset>
            <feComposite in="shadowOffsetInner1" in2="SourceAlpha" operator="arithmetic" k2="-1" k3="1" result="shadowInnerInner1"></feComposite>
            <feColorMatrix values="0 0 0 0 0.447058824   0 0 0 0 0.462745098   0 0 0 0 1  0 0 0 0.3 0" type="matrix" in="shadowInnerInner1"></feColorMatrix>
        </filter>
    </defs>
    <g id="页面-1" stroke="none" stroke-width="1" fill="none" fill-rule="evenodd">
        <g id="Blue-01-首页-客户经理" transform="translate(-174.000000, -905.000000)">
            <g id="保监会" transform="translate(174.000000, 905.000000)">
                <g id="Oval-16">
                    <mask id="mask-2" fill="white">
                        <use xlink:href="#path-1"></use>
                    </mask>
                    <use id="蒙版" fill="#7276FF" xlink:href="#path-1"></use>
                    <g opacity="0.8" mask="url(#mask-2)" fill="url(#linearGradient-3)">
                        <g transform="translate(-15.000000, 0.000000)" opacity="0.4">
                            <path d="M58.3137255,32 C67.5300655,32 74.7667343,24.836556 73.372549,16.3137255 C70.7440416,7.163444 63.5073729,0 58.3137255,0 C51.8651761,0 44.6285074,7.163444 42,16.3137255 C40.6058148,24.836556 47.8424835,32 58.3137255,32 Z" id="Oval-16-Copy-8"></path>
                            <path d="M16.3137255,32 C25.5300655,32 32.7667343,24.836556 31.372549,16.3137255 C28.7440416,7.163444 21.5073729,0 16.3137255,0 C9.86517613,0 2.62850737,7.163444 0,16.3137255 C-1.39418523,24.836556 5.84248353,32 16.3137255,32 Z" id="Oval-16-Copy-9"></path>
                            <path d="M26.3103448,25 C31.6478751,25 35.7999138,20.9705627 35,16.3103448 C33.4918939,11.0294373 29.3398552,7 26.3103448,7 C22.6601448,7 18.5081061,11.0294373 17,16.3103448 C16.2000862,20.9705627 20.3521249,25 26.3103448,25 Z" id="Oval-16-Copy-10"></path>
                            <path d="M48.3103448,25 C53.6478751,25 57.7999138,20.9705627 57,16.3103448 C55.4918939,11.0294373 51.3398552,7 48.3103448,7 C44.6601448,7 40.5081061,11.0294373 39,16.3103448 C38.2000862,20.9705627 42.3521249,25 48.3103448,25 Z" id="Oval-16-Copy-11"></path>
                            <path d="M16.3137255,56 C25.5300655,56 32.7667343,48.836556 31.372549,40.3137255 C28.7440416,31.163444 21.5073729,24 16.3137255,24 C9.86517613,24 2.62850737,31.163444 0,40.3137255 C-1.39418523,48.836556 5.84248353,56 16.3137255,56 Z" id="Oval-16-Copy-6"></path>
                            <path d="M58.3137255,56 C67.5300655,56 74.7667343,48.836556 73.372549,40.3137255 C70.7440416,31.163444 63.5073729,24 58.3137255,24 C51.8651761,24 44.6285074,31.163444 42,40.3137255 C40.6058148,48.836556 47.8424835,56 58.3137255,56 Z" id="Oval-16-Copy-7"></path>
                        </g>
                    </g>
                </g>
                <g id="DVLINK_银保监会" transform="translate(9.000000, 8.000000)" fill-rule="nonzero">
                    <rect id="矩形" fill="#000000" opacity="0" x="0" y="0" width="23.4057143" height="23.4057143"></rect>
                    <g id="形状结合">
                        <use fill="#FFFFFF" xlink:href="#path-4"></use>
                        <use fill="black" fill-opacity="1" filter="url(#filter-5)" xlink:href="#path-4"></use>
                    </g>
                </g>
            </g>
        </g>
    </g>
</svg>