<?xml version="1.0" encoding="UTF-8"?>
<svg width="40px" height="40px" viewBox="0 0 40 40" version="1.1" xmlns="http://www.w3.org/2000/svg" xmlns:xlink="http://www.w3.org/1999/xlink">
    <title>财经天地</title>
    <defs>
        <radialGradient cx="50%" cy="50%" fx="50%" fy="50%" r="50%" id="radialGradient-1">
            <stop stop-color="#FE7D1E" offset="0%"></stop>
            <stop stop-color="#FC974D" offset="100%"></stop>
        </radialGradient>
        <rect id="path-2" x="0" y="0" width="40" height="40" rx="4"></rect>
        <linearGradient x1="50%" y1="33.1353635%" x2="50%" y2="84.9913893%" id="linearGradient-4">
            <stop stop-color="#FFFFFF" stop-opacity="0.297526042" offset="0%"></stop>
            <stop stop-color="#FFFFFF" stop-opacity="0" offset="100%"></stop>
        </linearGradient>
        <linearGradient x1="50%" y1="33.1353635%" x2="50%" y2="100%" id="linearGradient-5">
            <stop stop-color="#FFFFFF" stop-opacity="0.297526042" offset="0%"></stop>
            <stop stop-color="#FFFFFF" stop-opacity="0" offset="77.5537392%"></stop>
        </linearGradient>
        <linearGradient x1="50%" y1="33.1353635%" x2="50%" y2="100%" id="linearGradient-6">
            <stop stop-color="#FFFFFF" stop-opacity="0.297526042" offset="0%"></stop>
            <stop stop-color="#FFFFFF" stop-opacity="0" offset="77.5537392%"></stop>
        </linearGradient>
        <linearGradient x1="50%" y1="33.1353635%" x2="50%" y2="100%" id="linearGradient-7">
            <stop stop-color="#FFFFFF" stop-opacity="0.297526042" offset="0%"></stop>
            <stop stop-color="#FFFFFF" stop-opacity="0" offset="77.5537392%"></stop>
        </linearGradient>
        <linearGradient x1="50%" y1="33.1353635%" x2="50%" y2="84.9913893%" id="linearGradient-8">
            <stop stop-color="#FCF4B5" stop-opacity="0.297526042" offset="2.88565751%"></stop>
            <stop stop-color="#FFEFC0" stop-opacity="0" offset="100%"></stop>
        </linearGradient>
        <linearGradient x1="50%" y1="33.1353635%" x2="50%" y2="100%" id="linearGradient-9">
            <stop stop-color="#FFFFFF" stop-opacity="0.297526042" offset="0%"></stop>
            <stop stop-color="#FFFFFF" stop-opacity="0" offset="77.5537392%"></stop>
        </linearGradient>
        <path d="M12,1.08 C13,1.08 13.8,1.87999999 13.8,2.88 C13.8,3.15936508 13.7375641,3.42312119 13.6257742,3.65818653 L17.808,7.84 L21,7.84000001 C22.2,7.84000001 23.16,8.72000002 23.16,9.84000001 L23.16,20.96 C23.2,22.04 22.24,22.92 21.04,22.92 L2.95999999,22.92 C1.75999999,22.92 0.799999992,22.04 0.799999992,20.92 L0.799999992,9.84000001 C0.799999992,8.71999999 1.75999999,7.84000001 2.95999999,7.84000001 L6.20099999,7.84 L10.3770948,3.66419046 C10.2635047,3.4276159 10.2,3.16174603 10.2,2.88 C10.2,1.87999999 11,1.08 12,1.08 Z M20.8,15.3 L17.48,15.3 L17.381005,15.3858579 L17.1010051,17.3458579 L17.2,17.46 L19.36,17.46 L19.268,17.98 L17.28,17.98 L17.203205,17.78453 L17.02084,17.8270661 L16.90084,18.7470661 L17,18.86 L19.92,18.86 L19.9504192,18.8577893 C19.9638584,18.8556949 19.9782496,18.8519458 19.9978302,18.8458525 L20.0316228,18.8348683 L20.0741229,18.821493 L20.1329929,18.8151101 C20.1654388,18.8085534 20.1928931,18.7953302 20.22,18.775 L20.2346651,18.7631133 L20.2346651,18.7631133 L20.246669,18.7536661 L20.3407804,18.6942271 L20.3810509,18.6570919 L20.4236607,18.5988228 L20.4607958,18.5520112 C20.477465,18.5240854 20.4877103,18.4920143 20.4936394,18.4564399 L20.4988165,18.4108075 L20.4988165,18.4108075 L20.5,18.36 L20.7388372,16.8152057 L20.64,16.7 L18.48,16.7 L18.602,16.06 L19.489,16.06 L19.4604963,16.3500496 L19.56,16.46 L20.68,16.46 L20.7792278,16.3724035 L20.8992278,15.4124035 L20.8,15.3 Z M4.75999999,15.26 L3.40000001,15.26 L3.32928933,15.4307107 L3.56928933,15.6707107 L3.10097981,18.7060356 L3.19999999,18.82 L4.24000001,18.82 L4.33907117,18.733598 L4.578,16.993 L5.55234215,18.7681259 L5.64,18.82 L6.76000001,18.82 L6.8591332,18.7331381 L7.29913318,15.4131381 L7.19999999,15.3 L6.24,15.3 L6.14089393,15.3866588 L5.899,17.175 L4.84661855,15.3500277 L4.85999999,15.36 L4.75999999,15.26 Z M11.24,15.26 L8.04,15.26 L7.95679497,15.41547 L8.11679498,15.65547 L7.66097981,18.7060356 L7.75999999,18.82 L10.92,18.82 L11.0197459,18.7271247 L11.0597459,18.1671247 L10.96,18.06 L9.114,18.059 L9.208,17.34 L10.92,17.34 L11.0197459,17.2471247 L11.0597459,16.6871247 L10.96,16.58 L9.317,16.58 L9.404,16.06 L11.2,16.06 L11.2997459,15.9671247 L11.3397459,15.4071247 L11.34,15.36 L11.24,15.26 Z M12.8,15.26 L11.72,15.26 L11.6492893,15.4307107 L11.7692893,15.5507107 L12.1407535,18.7322527 L12.24,18.82 L13.24,18.82 L13.3323742,18.7583015 L13.873,17.452 L14.0610539,18.7344799 L14.16,18.82 L15.16,18.82 L15.2525369,18.7579067 L16.6125369,15.4379067 L16.52,15.3 L15.56,15.3 L15.4669027,15.3634912 L14.823,17.002 L14.6996546,15.5116954 L14.6,15.42 L13.68,15.42 L13.5866143,15.4842353 L13.024,16.95 L12.8996938,15.3521809 L12.8,15.26 Z M10,11 L3,11 L3,13 L10,13 L10,11 Z M12,4.68 C11.7238095,4.68 11.4628753,4.61897506 11.2298382,4.50956605 L7.89799999,7.84 L16.111,7.84 L12.7771847,4.50625025 C12.5423719,4.61774137 12.2789683,4.68 12,4.68 Z M12,2.28 C11.68,2.28 11.4,2.56000001 11.4,2.88 C11.4,3.19999999 11.68,3.48 12,3.48 C12.32,3.48 12.6,3.19999999 12.6,2.88 C12.6,2.56000001 12.32,2.28 12,2.28 Z" id="path-10"></path>
        <filter x="-4.5%" y="-4.6%" width="108.9%" height="109.2%" filterUnits="objectBoundingBox" id="filter-11">
            <feGaussianBlur stdDeviation="0.5" in="SourceAlpha" result="shadowBlurInner1"></feGaussianBlur>
            <feOffset dx="-1" dy="-1" in="shadowBlurInner1" result="shadowOffsetInner1"></feOffset>
            <feComposite in="shadowOffsetInner1" in2="SourceAlpha" operator="arithmetic" k2="-1" k3="1" result="shadowInnerInner1"></feComposite>
            <feColorMatrix values="0 0 0 0 0.988235294   0 0 0 0 0.592156863   0 0 0 0 0.301960784  0 0 0 0.3 0" type="matrix" in="shadowInnerInner1"></feColorMatrix>
        </filter>
    </defs>
    <g id="页面-1" stroke="none" stroke-width="1" fill="none" fill-rule="evenodd">
        <g id="Blue-01-首页-客户经理" transform="translate(-174.000000, -1017.000000)">
            <g id="财经天地" transform="translate(174.000000, 1017.000000)">
                <g id="Group-5">
                    <mask id="mask-3" fill="white">
                        <use xlink:href="#path-2"></use>
                    </mask>
                    <use id="蒙版" fill="url(#radialGradient-1)" xlink:href="#path-2"></use>
                    <g opacity="0.757586" mask="url(#mask-3)">
                        <g transform="translate(-5.000000, 0.000000)" opacity="0.45">
                            <polygon id="Path-3-Copy-2" fill="url(#linearGradient-4)" transform="translate(11.500000, 30.000000) scale(-1, 1) translate(-11.500000, -30.000000) " points="3.50187179 23.0840396 0.938529342 22 2.87978902e-14 23.0840396 3.50187179 26.1557414 3.50187179 38 23 38 23 23.0840396"></polygon>
                            <polygon id="Path-3-Copy" fill="url(#linearGradient-5)" transform="translate(9.000000, 11.500000) scale(-1, 1) translate(-9.000000, -11.500000) " points="4.52226787 1.04754829 1.94399565 0 1 1.04754829 4.52226787 4.01584943 4.52226787 23 17 23 17 1.04754829"></polygon>
                            <polygon id="Path-3-Copy-6" fill="url(#linearGradient-6)" points="33.0840235 6.36577256 32.3613412 6 32 6.36577256 33.0840235 7.46309025 33.0840235 25 48 25 48 6.36577256"></polygon>
                            <polygon id="Path-3-Copy-7" fill="url(#linearGradient-7)" transform="translate(10.000000, 18.000000) scale(-1, 1) translate(-10.000000, -18.000000) " points="2.0862069 6.3679682 1.36206897 6 1 6.3679682 2.0862069 7.47187278 2.0862069 30 19 30 19 6.3679682"></polygon>
                            <polygon id="Path-3-Copy-3" fill="url(#linearGradient-8)" points="34.5018718 23.0840396 31.9385293 22 31 23.0840396 34.5018718 26.1557414 34.5018718 38 54 38 54 23.0840396"></polygon>
                            <polygon id="Path-3-Copy-5" fill="url(#linearGradient-9)" points="36.6003938 1.07397399 33.964934 0 33 1.07397399 36.6003938 4.1171542 36.6003938 28 49 28 49 1.07397399"></polygon>
                        </g>
                    </g>
                </g>
                <g id="新闻-资讯-10" transform="translate(8.000000, 7.000000)" fill-rule="nonzero">
                    <rect id="矩形" fill="#000000" opacity="0" x="0" y="0" width="24" height="24"></rect>
                    <g id="形状结合">
                        <use fill="#FFFFFF" xlink:href="#path-10"></use>
                        <use fill="black" fill-opacity="1" filter="url(#filter-11)" xlink:href="#path-10"></use>
                    </g>
                </g>
            </g>
        </g>
    </g>
</svg>