<?xml version="1.0" standalone="no"?><!DOCTYPE svg PUBLIC "-//W3C//DTD SVG 1.1//EN" "http://www.w3.org/Graphics/SVG/1.1/DTD/svg11.dtd"><svg t="1654150684298" class="icon" viewBox="0 0 1024 1024" version="1.1" xmlns="http://www.w3.org/2000/svg" p-id="5002" width="16" height="16" xmlns:xlink="http://www.w3.org/1999/xlink"><defs><style type="text/css">@font-face { font-family: feedback-iconfont; src: url("//at.alicdn.com/t/font_1031158_u69w8yhxdu.woff2?t=1630033759944") format("woff2"), url("//at.alicdn.com/t/font_1031158_u69w8yhxdu.woff?t=1630033759944") format("woff"), url("//at.alicdn.com/t/font_1031158_u69w8yhxdu.ttf?t=1630033759944") format("truetype"); }
</style></defs><path d="M512 71.68c-243.2 0-440.32 197.12-440.32 440.32s197.12 440.32 440.32 440.32 440.32-197.12 440.32-440.32-197.12-440.32-440.32-440.32z m0 805.888c-201.728 0-365.568-163.84-365.568-365.568s163.84-365.568 365.568-365.568 365.568 163.84 365.568 365.568-163.84 365.568-365.568 365.568z" p-id="5003" fill="#999999"></path><path d="M512 274.432c-25.088 0.512-45.568 20.48-45.568 45.568s19.968 45.568 45.568 45.568c25.088 0 45.568-19.968 45.568-45.568s-19.968-45.568-45.568-45.568zM472.576 423.936h77.824v345.088H472.576z" p-id="5004" fill="#999999"></path></svg>