<?xml version="1.0" encoding="UTF-8"?>
<svg width="16px" height="16px" viewBox="0 0 16 16" version="1.1" xmlns="http://www.w3.org/2000/svg" xmlns:xlink="http://www.w3.org/1999/xlink">
    <title>break</title>
    <g id="设计稿" stroke="none" stroke-width="1" fill="none" fill-rule="evenodd">
        <g id="页面管理（属性）" transform="translate(-1312.000000, -159.000000)" fill="#2877FF" fill-rule="nonzero">
            <g id="内容区域" transform="translate(416.000000, 146.000000)">
                <g id="编组-20" transform="translate(896.000000, 11.000000)">
                    <g id="break" transform="translate(0.000000, 2.000000)">
                        <rect id="矩形" opacity="0" x="0" y="0" width="16" height="16"></rect>
                        <path d="M2.06666667,7.60666667 L2,7.60666667 C1.86796615,7.586976 1.74928879,7.51530433 1.67039956,7.40761427 C1.59151033,7.29992421 1.55896068,7.165159 1.58,7.03333333 C2.00226231,4.24576172 4.17343103,2.04823961 6.95570551,1.59237815 C9.73797998,1.13651668 12.4969051,2.52626808 13.7866667,5.03333333 C13.9051545,5.27685727 13.8111871,5.57050539 13.5733333,5.7 C13.3300898,5.82223123 13.0337597,5.7274056 12.9066667,5.48666667 C11.8102107,3.36931871 9.47560827,2.19818496 7.1228322,2.58525457 C4.77005614,2.97232418 2.93368423,4.82965048 2.57333333,7.18666667 C2.53614196,7.43532065 2.31790477,7.61622779 2.06666667,7.60666667 L2.06666667,7.60666667 Z" id="路径"></path>
                        <path d="M14,3.33333333 L14,5.53333333 C13.9656387,5.87526752 13.6769854,6.13505549 13.3333333,6.13334184 C12.9896813,6.13505549 12.701028,5.87526752 12.6666667,5.53333333 L12.6666667,2.10666667 C13.0066915,2.09041159 13.3390677,2.21098305 13.5895883,2.44146198 C13.8401089,2.67194091 13.9879124,2.99313488 14,3.33333333 Z" id="路径"></path>
                        <path d="M7.9,14.2733384 C5.46396819,14.2763608 3.23161062,12.9142879 2.12,10.7466667 C2.00151215,10.5031427 2.09547954,10.2094946 2.33333333,10.08 C2.57833233,9.95876966 2.87527587,10.056761 3,10.3 C4.09740922,12.4175812 6.4332926,13.5879866 8.78646206,13.1993341 C11.1396315,12.8106816 12.975116,10.9513277 13.3333333,8.59333333 C13.3901422,8.3371021 13.6353956,8.16840481 13.8949964,8.20699412 C14.1545971,8.24558342 14.3401775,8.47832356 14.32,8.74 C13.8263704,11.9091759 11.1073229,14.2526955 7.9,14.2733384 L7.9,14.2733384 Z" id="路径"></path>
                        <path d="M2.06666667,12.3333333 L2.06666667,10.5 C2.07025722,10.2253586 2.2920253,10.0035905 2.56666667,10 C2.84130805,10.0035905 3.06307613,10.2253586 3.06666667,10.5 L3.06666667,13.3333333 C2.51438192,13.3333333 2.06666667,12.8856181 2.06666667,12.3333333 Z" id="路径"></path>
                    </g>
                </g>
            </g>
        </g>
    </g>
</svg>