<?xml version="1.0" encoding="UTF-8"?>
<svg width="16px" height="16px" viewBox="0 0 16 16" version="1.1" xmlns="http://www.w3.org/2000/svg" xmlns:xlink="http://www.w3.org/1999/xlink">
    <title>copy-file</title>
    <g id="设计稿" stroke="none" stroke-width="1" fill="none" fill-rule="evenodd">
        <g id="页面管理（属性）" transform="translate(-1367.000000, -785.000000)" fill="#FFFFFF" fill-rule="nonzero">
            <g id="内容区域" transform="translate(416.000000, 146.000000)">
                <g id="CRUD组件" transform="translate(16.000000, 69.000000)">
                    <g id="编组-13" transform="translate(927.000000, 566.000000)">
                        <g id="copy-file" transform="translate(8.000000, 4.000000)">
                            <rect id="矩形" opacity="0" x="0" y="0" width="16" height="16"></rect>
                            <path d="M12.6666667,4.83333333 C12.7550722,4.83333333 12.8398568,4.86845228 12.9023689,4.93096441 C12.9648811,4.99347653 13.0000279,5.07826117 13.0000279,5.16666667 L13.0000279,10.9333333 C13.0010483,11.0119638 12.9724921,11.0881138 12.92,11.1466667 L10.92,13.5466667 C10.8578814,13.6227066 10.7648542,13.6667722 10.6666667,13.6666669 L6.66666667,13.6666669 C6.57826117,13.6666669 6.49347653,13.6315477 6.4309644,13.5690356 C6.36845227,13.5065235 6.33333333,13.4217388 6.33333333,13.3333333 L6.33333333,5.16666667 C6.33333333,5.07826117 6.36845227,4.99347653 6.4309644,4.9309644 C6.49347653,4.86845227 6.57826117,4.83333333 6.66666667,4.83333333 L12.6666667,4.83333333 M12.6666667,3.83333333 L6.66666667,3.83333333 C6.31304468,3.83333333 5.97390613,3.97380911 5.72385762,4.22385762 C5.47380911,4.47390613 5.33333333,4.81304468 5.33333333,5.16666667 L5.33333333,13.3333333 C5.33333333,13.6869553 5.47380911,14.0260939 5.72385762,14.2761424 C5.97390613,14.5261909 6.31304468,14.6666684 6.66666667,14.6666684 L10.6666667,14.6666684 C11.063243,14.6673107 11.4395247,14.4913868 11.6933333,14.1866667 L13.6933333,11.7866667 C13.8921082,11.5467839 14.0006087,11.2448695 14.0000025,10.9333333 L14.0000025,5.16666667 C14.0000025,4.81304468 13.8595242,4.47390613 13.6094757,4.22385762 C13.3594272,3.97380912 13.0202887,3.83333333 12.6666667,3.83333333 Z" id="形状"></path>
                            <path d="M3.66666667,12.1133333 C3.3920253,12.1097428 3.17025722,11.8879747 3.16666667,11.6133333 L3.16666667,3.16666667 C3.16666667,2.81304468 3.30714245,2.47390613 3.55719096,2.22385762 C3.80723946,1.97380912 4.14637801,1.83333333 4.5,1.83333333 L11.1133333,1.83333333 C11.3894757,1.83333333 11.6133333,2.05719095 11.6133333,2.33333333 C11.6133333,2.6094757 11.3894757,2.83333333 11.1133333,2.83333333 L4.5,2.83333333 C4.4115945,2.83333333 4.32680986,2.86845228 4.26429774,2.93096441 C4.20178561,2.99347653 4.16666667,3.07826117 4.16666667,3.16666667 L4.16666667,11.6133333 C4.16307613,11.8879747 3.94130805,12.1097428 3.66666667,12.1133333 L3.66666667,12.1133333 Z" id="路径"></path>
                        </g>
                    </g>
                </g>
            </g>
        </g>
    </g>
</svg>