<?xml version="1.0" encoding="UTF-8"?>
<svg width="16px" height="16px" viewBox="0 0 16 16" version="1.1" xmlns="http://www.w3.org/2000/svg" xmlns:xlink="http://www.w3.org/1999/xlink">
    <title>平移</title>
    <g id="设计稿" stroke="none" stroke-width="1" fill="none" fill-rule="evenodd">
        <g id="页面管理（属性）" transform="translate(-1423.000000, -785.000000)" fill="#FFFFFF" fill-rule="nonzero">
            <g id="内容区域" transform="translate(416.000000, 146.000000)">
                <g id="CRUD组件" transform="translate(16.000000, 69.000000)">
                    <g id="编组-13" transform="translate(927.000000, 566.000000)">
                        <g id="平移" transform="translate(64.000000, 4.000000)">
                            <rect id="矩形" opacity="0" x="0" y="0" width="16" height="16"></rect>
                            <polygon id="路径" points="7.6 12.1333333 7.6 8.8 3.86666667 8.8 3.86666667 10.4666667 1.33333333 8 3.86666667 5.46666667 3.86666667 8 7.6 8 7.6 3.86666667 5.46666667 3.86666667 8 1.33333333 10.5333333 3.86666667 8.46666667 3.86666667 8.46666667 8 12.2 8 12.2 5.46666667 14.6666667 8 12.1333333 10.5333333 12.1333333 8.86666667 8.4 8.86666667 8.4 12.2 10.4666667 12.2 8 14.6666667 5.46666667 12.1333333"></polygon>
                        </g>
                    </g>
                </g>
            </g>
        </g>
    </g>
</svg>