<?xml version="1.0" encoding="UTF-8"?>
<svg width="16px" height="16px" viewBox="0 0 16 16" version="1.1" xmlns="http://www.w3.org/2000/svg" xmlns:xlink="http://www.w3.org/1999/xlink">
    <title>line-arrow</title>
    <g id="设计稿" stroke="none" stroke-width="1" fill="none" fill-rule="evenodd">
        <g id="页面管理（属性）" transform="translate(-1396.000000, -159.000000)" fill="#2877FF" fill-rule="nonzero">
            <g id="内容区域" transform="translate(416.000000, 146.000000)">
                <g id="编组-21" transform="translate(980.000000, 11.000000)">
                    <g id="line-arrow" transform="translate(8.000000, 10.000000) scale(-1, 1) translate(-8.000000, -10.000000) translate(0.000000, 2.000000)">
                        <rect id="矩形" opacity="0" x="0" y="0" width="16" height="16"></rect>
                        <path d="M12.3,8.175 C12.4333333,8.02500001 12.4333333,7.8 12.3,7.64999999 L12.0333333,7.35 L2.7,7.35 C2.43333333,7.35 2.16666666,7.575 2.16666666,7.95 C2.16666666,8.25000001 2.36666666,8.55 2.7,8.55 L11.9666667,8.55 L12.3,8.175 Z" id="路径"></path>
                        <path d="M13.4,7.06666667 L11.0666667,4.66666667 L10.6,5.13333333 C10.3333333,5.4 10.3333333,5.8 10.6,6.06666667 L12,7.46666667 L12.2666667,7.73333333 C12.4,7.86666666 12.4,8.06666666 12.2666667,8.2 L12,8.46666667 L10.6666667,9.8 C10.4,10.0666667 10.4,10.4666667 10.6666667,10.7333333 L11.1333333,11.2 L13.4666667,8.86666667 C13.9333333,8.4 13.9333333,7.6 13.4,7.06666667 Z" id="路径"></path>
                    </g>
                </g>
            </g>
        </g>
    </g>
</svg>