<?xml version="1.0" encoding="UTF-8"?>
<svg width="78px" height="78px" viewBox="0 0 78 78" version="1.1" xmlns="http://www.w3.org/2000/svg" xmlns:xlink="http://www.w3.org/1999/xlink">
    <title>code-small</title>
    <defs>
        <rect id="path-1" x="0" y="0" width="64" height="64" rx="12"></rect>
        <filter x="-16.4%" y="-13.3%" width="132.8%" height="132.8%" filterUnits="objectBoundingBox" id="filter-2">
            <feMorphology radius="0.5" operator="dilate" in="SourceAlpha" result="shadowSpreadOuter1"></feMorphology>
            <feOffset dx="0" dy="2" in="shadowSpreadOuter1" result="shadowOffsetOuter1"></feOffset>
            <feGaussianBlur stdDeviation="3" in="shadowOffsetOuter1" result="shadowBlurOuter1"></feGaussianBlur>
            <feComposite in="shadowBlurOuter1" in2="SourceAlpha" operator="out" result="shadowBlurOuter1"></feComposite>
            <feColorMatrix values="0 0 0 0 0   0 0 0 0 0   0 0 0 0 0  0 0 0 0.1 0" type="matrix" in="shadowBlurOuter1"></feColorMatrix>
        </filter>
    </defs>
    <g id="设计稿" stroke="none" stroke-width="1" fill="none" fill-rule="evenodd">
        <g id="新增/修改执行函数" transform="translate(-1801.000000, -963.000000)">
            <g id="code-small" transform="translate(1808.000000, 968.000000)">
                <g id="矩形备份-10">
                    <use fill="black" fill-opacity="1" filter="url(#filter-2)" xlink:href="#path-1"></use>
                    <use stroke="#EAEAEA" stroke-width="1" fill="#FFFFFF" fill-rule="evenodd" xlink:href="#path-1"></use>
                </g>
                <g id="代码" transform="translate(5.000000, 5.000000)" fill-rule="nonzero">
                    <rect id="矩形" fill="#000000" opacity="0" x="0" y="0" width="54" height="54"></rect>
                    <path d="M18.2857143,10 L39.7142857,10 C42.0812857,10 44,11.8655208 44,14.1666667 L44,30.8333333 C44,33.1345833 42.0812857,35 39.7142857,35 L18.2857143,35 C15.9188214,35 14,33.1345833 14,30.8333333 L14,14.1666667 C14,11.8655208 15.9188214,10 18.2857143,10 Z" id="路径" fill="#DFECFD"></path>
                    <path d="M39.7142857,35 L18.2857143,35 C15.9225714,35 14,33.1308333 14,30.8333333 L14,14.1666667 C14,11.8691667 15.9225714,10 18.2857143,10 L39.7142857,10 C42.0774286,10 44,11.8691667 44,14.1666667 L44,30.8333333 C44,33.1308333 42.0774286,35 39.7142857,35 Z M18.2857143,13.125 C17.6949286,13.125 17.2142857,13.5922917 17.2142857,14.1666667 L17.2142857,30.8333333 C17.2142857,31.4077083 17.6949286,31.875 18.2857143,31.875 L39.7142857,31.875 C40.3050714,31.875 40.7857143,31.4077083 40.7857143,30.8333333 L40.7857143,14.1666667 C40.7857143,13.5922917 40.3050714,13.125 39.7142857,13.125 L18.2857143,13.125 Z" id="形状" fill="#DFECFD"></path>
                    <path d="M14.2857143,19 L35.7142857,19 C38.0812857,19 40,20.8655208 40,23.1666667 L40,39.8333333 C40,42.1345833 38.0812857,44 35.7142857,44 L14.2857143,44 C11.9188214,44 10,42.1345833 10,39.8333333 L10,23.1666667 C10,20.8655208 11.9188214,19 14.2857143,19 Z" id="路径" fill="#2877FF"></path>
                    <path d="M35.7142857,44 L14.2857143,44 C11.9225714,44 10,42.1308333 10,39.8333333 L10,23.1666667 C10,20.8691667 11.9225714,19 14.2857143,19 L35.7142857,19 C38.0774286,19 40,20.8691667 40,23.1666667 L40,39.8333333 C40,42.1308333 38.0774286,44 35.7142857,44 Z M14.2857143,22.125 C13.6949286,22.125 13.2142857,22.5922917 13.2142857,23.1666667 L13.2142857,39.8333333 C13.2142857,40.4077083 13.6949286,40.875 14.2857143,40.875 L35.7142857,40.875 C36.3050714,40.875 36.7857143,40.4077083 36.7857143,39.8333333 L36.7857143,23.1666667 C36.7857143,22.5922917 36.3050714,22.125 35.7142857,22.125 L14.2857143,22.125 Z" id="形状" fill="#2877FF"></path>
                    <path d="M28.4035501,25.3317526 C29.0647416,25.8785955 29.19624,26.9093778 28.6972463,27.6340816 L22.697323,36.3463074 C22.4138897,36.758604 21.9699753,37.000749 21.4989384,37 C21.1842424,37 20.8669464,36.8919447 20.5964499,36.6681666 C19.9352584,36.1213237 19.80376,35.0905414 20.3027537,34.3658376 L26.302677,25.6536119 C26.8015706,24.9291273 27.7423585,24.7849098 28.4035501,25.3317526 Z M18.5247249,27.475354 C19.158425,28.1090511 19.158425,29.1366856 18.5247249,29.770491 L16.794943,31.5 L18.5247249,33.2295035 C19.158425,33.8632974 19.158425,34.8909134 18.5247249,35.5245991 C18.2206708,35.82944 17.8076556,36.0005296 17.3770968,36 C16.9465637,36.0005606 16.5335707,35.8294641 16.229577,35.5245991 L13.4753563,32.7705493 C13.1272979,32.4224989 12.9703772,31.9556835 13.004594,31.5005437 C12.970147,31.0450189 13.1270426,30.5777655 13.4753563,30.2294534 L16.229577,27.475354 C16.8632771,26.8415487 17.8909165,26.8415487 18.5247249,27.475354 Z M32.7705104,27.4752707 L35.5246566,30.2294661 C35.8727055,30.5774618 36.029622,31.0442567 35.9954061,31.4993906 C36.0298522,31.9549582 35.8729609,32.422179 35.5246566,32.770491 L32.7704022,35.5245905 C32.4664167,35.829461 32.0534348,36.0005607 31.6229134,36 C31.1923919,36.0005607 30.77941,35.829461 30.4754245,35.5245905 C29.8415252,34.890677 29.8415252,33.8632588 30.4754245,33.2294535 L32.204943,31.5 L30.4754245,29.7703975 C29.8415252,29.1367032 29.8415252,28.1091814 30.4754245,27.4752707 C31.1091075,26.8415764 32.1367192,26.8415764 32.7705104,27.4752707 Z" id="形状结合" fill="#FFFFFF"></path>
                </g>
                <g id="放大" transform="translate(48.000000, 48.000000)" fill-rule="nonzero">
                    <rect id="矩形" fill="#000000" opacity="0" x="0" y="1.82399962e-09" width="12" height="12"></rect>
                    <path d="M4.93555369,6.10394228 L5.05649088,6.22487949 C5.0887408,6.2571294 5.12099072,6.2873637 5.15324064,6.31558238 C5.18549055,6.34380106 5.21774047,6.37403536 5.24999039,6.40628528 L5.39511503,6.5514099 C5.55636463,6.7126595 5.62086446,6.8537529 5.58861455,6.9746901 C5.55636463,7.09562729 5.45558362,7.23672069 5.28627155,7.39797029 C5.21370923,7.47859509 5.09478765,7.6015479 4.92950681,7.76682875 C4.76422597,7.93210958 4.58685142,8.11149976 4.39738315,8.30499928 C4.20791488,8.49849879 4.02449346,8.68393582 3.84711889,8.8613104 C3.66974433,9.03868497 3.53268216,9.17977836 3.43593241,9.28459062 C3.29080777,9.4297152 3.19002677,9.55669929 3.13358941,9.66554281 C3.07715207,9.77438622 3.1013395,9.88121409 3.20615173,9.98602634 C3.27871405,10.0585887 3.37143257,10.1553384 3.48430728,10.2762756 C3.59718202,10.3972128 3.69393177,10.4979938 3.77455657,10.5786186 C3.91161873,10.7156808 3.96200924,10.836618 3.92572807,10.9414302 C3.88944689,11.0462425 3.77052532,11.106711 3.56896332,11.122836 C3.35933885,11.1470235 3.12552694,11.1752421 2.86752758,11.207492 C2.60952823,11.2397419 2.34346638,11.2699762 2.06934206,11.298195 C1.79521775,11.3264136 1.5271403,11.3566479 1.2651097,11.3888979 C1.00307911,11.4211478 0.763220332,11.4493664 0.545533371,11.4735539 C0.335908887,11.4977413 0.19078425,11.4715383 0.110159461,11.3949447 C0.0295346602,11.3183512 -0.00271525781,11.1833046 0.013409707,10.9898051 C0.0295346602,10.788243 0.0517064766,10.5624936 0.0799251562,10.3125568 C0.108143836,10.0626199 0.138378141,9.80663612 0.170628059,9.5446056 C0.202877977,9.28257498 0.233112269,9.02255998 0.261330949,8.76456063 C0.289549629,8.50656128 0.315752684,8.26871811 0.339940125,8.05103115 C0.364127566,7.81721924 0.430643027,7.66806336 0.539486508,7.60356353 C0.648329988,7.53906368 0.771282808,7.57534485 0.908344969,7.712407 C0.988969758,7.7930318 1.093782,7.89179718 1.22278168,8.00870313 C1.35178137,8.1256091 1.46062485,8.22840572 1.54931211,8.317093 C1.6379994,8.40578027 1.72265544,8.43399894 1.80328024,8.40174902 C1.88390504,8.36949911 1.97662356,8.30499927 2.0814358,8.2082495 C2.18624803,8.10343727 2.32935705,7.95831263 2.51076285,7.77287559 C2.69216865,7.58743855 2.88163693,7.39595466 3.07916769,7.1984239 C3.27669845,7.00089314 3.46818234,6.80739362 3.65361939,6.61792534 C3.83905643,6.42845707 3.9882123,6.27728556 4.10108702,6.16441085 C4.14946189,6.11603597 4.20388363,6.06967671 4.26435224,6.02533307 C4.32482084,5.98098943 4.39133628,5.95075514 4.46389862,5.93463018 C4.53646093,5.91850522 4.61103888,5.92253646 4.68763243,5.94672389 C4.764226,5.97091133 4.84686641,6.02331745 4.9355537,6.10394224 L4.93555369,6.10394228 Z M11.0549759,0.00870747839 C11.2646004,-0.015479963 11.4097251,0.0107231034 11.4903498,0.0873166542 C11.5709746,0.163910217 11.6032245,0.298956752 11.5870996,0.492456271 C11.5709746,0.694018267 11.5488029,0.919767705 11.5205841,1.16970458 C11.4923655,1.41964146 11.4621312,1.67562519 11.4298813,1.9376558 C11.3976313,2.19968639 11.367397,2.46171699 11.3391784,2.72374758 C11.3109596,2.98577817 11.2847566,3.22563695 11.2605691,3.44332391 C11.2363818,3.67713583 11.1698663,3.82427609 11.0610228,3.88474468 C10.9521793,3.94521328 10.8292265,3.9069165 10.6921643,3.76985435 C10.6115395,3.68922955 10.5006804,3.58441731 10.3595871,3.45541763 C10.2184937,3.32641794 10.1036033,3.21757446 10.0149161,3.1288872 C9.92622876,3.04019992 9.84963517,3.00190314 9.78513535,3.01399685 C9.72063554,3.02609058 9.64001067,3.08051231 9.54326095,3.17726207 C9.43038619,3.29013679 9.28324597,3.43929266 9.10184017,3.6247297 C8.92043437,3.81016675 8.72895047,4.00568188 8.52738847,4.21127511 C8.32582648,4.41686836 8.12829572,4.61641474 7.9347962,4.80991425 L7.48732856,5.25738189 C7.43895368,5.30575676 7.38654757,5.35413164 7.33011021,5.40250652 C7.27367285,5.45088141 7.21118863,5.48716255 7.14265754,5.51134999 C7.07412646,5.53553743 7.00156414,5.53956867 6.92497058,5.52344372 C6.84837702,5.50731877 6.76976784,5.45491263 6.68914304,5.36622537 L6.22958169,4.90666402 C6.06833209,4.74541442 5.99778539,4.59827415 6.01794158,4.46524324 C6.03809778,4.33221232 6.12880069,4.18507207 6.29005029,4.02382247 C6.3626126,3.95126016 6.48354981,3.82830733 6.65286189,3.65496402 C6.82217396,3.48162069 7.00357976,3.29819927 7.19707928,3.10469976 C7.39057878,2.91120024 7.57803144,2.72173195 7.75943724,2.53629492 C7.94084306,2.35085788 8.08395207,2.20976448 8.1887643,2.11301472 C8.33388894,1.96789008 8.42459184,1.8489685 8.460873,1.75624998 C8.49715415,1.66353147 8.46288862,1.5647661 8.35807638,1.45995385 C8.28551407,1.38739153 8.19884242,1.29870426 8.09806141,1.19389201 C7.99728041,1.08907976 7.90657749,0.996361244 7.82595271,0.915736455 C7.68889055,0.778674283 7.63850005,0.657737088 7.67478122,0.552924857 C7.71106237,0.448112615 7.82998396,0.383612779 8.03154595,0.359425338 C8.23310794,0.335237885 8.46490424,0.307019205 8.72693484,0.274769299 C8.98896545,0.242519381 9.25704286,0.212285088 9.53116717,0.184066396 C9.80529148,0.155847717 10.073369,0.125613412 10.3353996,0.0933635057 C10.5974302,0.0611135878 10.837289,0.0328949198 11.0549759,0.00870746667 L11.0549759,0.00870747839 Z" id="形状" fill="#CCCCCC"></path>
                </g>
            </g>
        </g>
    </g>
</svg>