<?xml version="1.0" standalone="no"?><!DOCTYPE svg PUBLIC "-//W3C//DTD SVG 1.1//EN" "http://www.w3.org/Graphics/SVG/1.1/DTD/svg11.dtd"><svg class="icon" width="32px" height="32.00px" viewBox="0 0 1024 1024" version="1.1" xmlns="http://www.w3.org/2000/svg"><path fill="#2877FF" d="M550.4 550.4v294.4l67.2-67.2c12.8-12.8 38.4-12.8 51.2 0s12.8 38.4 0 51.2l-128 128c-6.4 6.4-16 12.8-25.6 12.8-9.6 0-16-3.2-22.4-9.6-3.2 0-3.2-3.2-3.2-3.2l-128-128c-12.8-12.8-12.8-38.4 0-51.2 12.8-12.8 38.4-12.8 51.2 0l70.4 70.4v-294.4H179.2l67.2 67.2c12.8 12.8 12.8 38.4 0 51.2-12.8 12.8-38.4 12.8-51.2 0l-128-128c-6.4-6.4-12.8-16-12.8-25.6 0-9.6 3.2-16 9.6-22.4 0-3.2 3.2-3.2 3.2-3.2l128-128c12.8-12.8 38.4-12.8 51.2 0 12.8 12.8 12.8 38.4 0 51.2l-70.4 70.4h297.6V179.2l-70.4 70.4c-12.8 12.8-38.4 12.8-51.2 0-12.8-12.8-12.8-38.4 0-51.2l128-128 3.2-3.2c6.4-6.4 16-9.6 22.4-9.6 9.6 0 19.2 3.2 25.6 12.8l128 128c12.8 12.8 12.8 38.4 0 51.2-12.8 12.8-38.4 12.8-51.2 0l-67.2-67.2v294.4h294.4l-70.4-70.4c-12.8-12.8-12.8-38.4 0-51.2s38.4-12.8 51.2 0l128 128 3.2 3.2c6.4 6.4 9.6 16 9.6 22.4 0 9.6-3.2 19.2-12.8 25.6l-128 128c-12.8 12.8-38.4 12.8-51.2 0s-12.8-38.4 0-51.2L832 544c12.8 6.4-281.6 6.4-281.6 6.4z" /></svg>