<?xml version="1.0" encoding="utf-8"?>
<!-- Generator: Adobe Illustrator 22.1.0, SVG Export Plug-In . SVG Version: 6.00 Build 0)  -->
<svg version="1.1" id="图层_1" xmlns="http://www.w3.org/2000/svg" xmlns:xlink="http://www.w3.org/1999/xlink" x="0px" y="0px"
	 viewBox="0 0 32 32" style="enable-background:new 0 0 32 32;" xml:space="preserve">
<style type="text/css">
	.st0{fill:#CCCCCC;}
</style>
<path class="st0" d="M23,21.1H2.6c-0.1,0-0.2,0.1-0.2,0.2s0.1,0.2,0.2,0.2H23c0.1,0,0.2-0.1,0.2-0.2S23.1,21.1,23,21.1z M2.9,9.8
	h0.6v0.6c0,0.3,0.5,0.3,0.5,0V9.8h0.6c0.3,0,0.3-0.5,0-0.5H4V8.7c0-0.3-0.5-0.3-0.5,0v0.6H2.9C2.6,9.3,2.6,9.8,2.9,9.8z M11.3,23.3
	h-2c-0.1,0-0.2,0.1-0.2,0.2s0.1,0.2,0.2,0.2h2c0.1,0,0.2-0.1,0.2-0.2S11.5,23.3,11.3,23.3z M21.5,23.3h-8.9c-0.1,0-0.2,0.1-0.2,0.2
	s0.1,0.2,0.2,0.2h8.9c0.1,0,0.2-0.1,0.2-0.2S21.6,23.3,21.5,23.3z M26.8,16.3h-0.6v-0.6c0-0.3-0.5-0.3-0.5,0v0.6H25
	c-0.3,0-0.3,0.5,0,0.5h0.6v0.6c0,0.3,0.5,0.3,0.5,0v-0.6h0.6C27.1,16.8,27.1,16.3,26.8,16.3z M29.4,21.1h-2.6
	c-0.1,0-0.2,0.1-0.2,0.2s0.1,0.2,0.2,0.2h2.6c0.1,0,0.2-0.1,0.2-0.2S29.5,21.1,29.4,21.1z M24.9,21.1h-0.7c-0.1,0-0.2,0.1-0.2,0.2
	s0.1,0.2,0.2,0.2h0.7c0.1,0,0.2-0.1,0.2-0.2S25,21.1,24.9,21.1z M24.6,2.6c0,0.3,0.5,0.3,0.5,0V1.8h0.8c0.3,0,0.3-0.5,0-0.5h-0.8
	V0.5c0-0.3-0.5-0.3-0.5,0v0.8h-0.8c-0.3,0-0.3,0.5,0,0.5h0.8V2.6z M8.6,3.7l0.2-0.2l0.2,0.2c0.1,0.1,0.3-0.1,0.2-0.2L9.1,3.3
	l0.2-0.2C9.4,2.9,9.2,2.7,9,2.9L8.8,3.1L8.6,2.9C8.5,2.7,8.3,2.9,8.4,3.1l0.2,0.2L8.4,3.5C8.3,3.6,8.5,3.8,8.6,3.7z M6.1,18.5
	l-0.2,0.2c-0.1,0.1,0.1,0.3,0.2,0.2l0.2-0.2l0.2,0.2c0.1,0.1,0.3-0.1,0.2-0.2l-0.2-0.2l0.2-0.2c0.1-0.1-0.1-0.3-0.2-0.2l-0.2,0.2
	l-0.2-0.2c-0.1-0.1-0.3,0.1-0.2,0.2L6.1,18.5z"/>
<path class="st0" d="M22.1,16.3h-0.9V8.4c0-1.1-0.9-2-2-2H9.6C8.8,6.4,8.2,7,8.2,7.8v1.5c0,0.1,0.1,0.2,0.2,0.2h2.1V18
	c0,0.8,0.6,1.4,1.4,1.4h9c0.8,0,1.4-0.6,1.4-1.4v-1.5C22.3,16.4,22.2,16.3,22.1,16.3z M10.5,9H8.7V7.8c0-0.5,0.4-0.9,0.9-0.9
	s0.9,0.4,0.9,0.9V9z M11,18V7.8c0-0.3-0.1-0.7-0.3-0.9h8.6c0.8,0,1.5,0.7,1.5,1.5v7.9h-7.6c-0.1,0-0.2,0.1-0.2,0.2V18
	c0,0.5-0.4,0.9-0.9,0.9S11,18.5,11,18z M21.9,18c0,0.5-0.4,0.9-0.9,0.9h-8c0,0,0.1-0.1,0.1-0.1c0,0,0.1-0.1,0.1-0.1
	c0-0.1,0.1-0.1,0.1-0.1c0,0,0-0.1,0.1-0.1c0-0.1,0-0.1,0.1-0.2c0,0,0-0.1,0-0.1c0-0.1,0-0.2,0-0.3v-1.2h8.5V18z"/>
<path class="st0" d="M18.9,13.8h-5.8c-0.1,0-0.2,0.1-0.2,0.2s0.1,0.2,0.2,0.2h5.8c0.1,0,0.2-0.1,0.2-0.2S19,13.8,18.9,13.8z
	 M16.9,12.8h1.9c0.1,0,0.2-0.1,0.2-0.2s-0.1-0.2-0.2-0.2h-1.9c-0.1,0-0.2,0.1-0.2,0.2S16.8,12.8,16.9,12.8z M16.9,11.3h1.9
	c0.1,0,0.2-0.1,0.2-0.2s-0.1-0.2-0.2-0.2h-1.9c-0.1,0-0.2,0.1-0.2,0.2S16.8,11.3,16.9,11.3z M16.9,9.9h1.9c0.1,0,0.2-0.1,0.2-0.2
	s-0.1-0.2-0.2-0.2h-1.9c-0.1,0-0.2,0.1-0.2,0.2S16.8,9.9,16.9,9.9z"/>
<path class="st0" d="M15.8,12.5l-0.7-0.8c0.2-0.3,0.3-0.6,0.3-0.9c0-0.8-0.7-1.5-1.5-1.5s-1.5,0.7-1.5,1.5s0.7,1.5,1.5,1.5
	c0.3,0,0.5-0.1,0.7-0.2l0.7,0.8c0.1,0.1,0.3,0.1,0.4,0C15.9,12.8,15.9,12.6,15.8,12.5z M12.9,10.8c0-0.6,0.5-1.1,1.1-1.1
	s1.1,0.5,1.1,1.1s-0.5,1.1-1.1,1.1S12.9,11.4,12.9,10.8z"/>
<path class="st0" d="M8.4,28.3h0.5V28h0.3v0.3h0.6v0.2H9.2v0.3c0.2,0,0.4,0,0.6,0c0,0.1,0,0.2,0,0.3c-0.2,0-0.4,0-0.6,0v0.3H8.9
	v-0.3c-0.3,0-0.6,0-1,0.1l0-0.3c0.3,0,0.7,0,1-0.1v-0.3H8.1v-0.2l0.3-0.4H7.9v-0.2h0.6c0.1-0.1,0.1-0.3,0.2-0.4l0.3,0.1
	c-0.1,0.1-0.1,0.2-0.1,0.3h1.1v0.2H8.7C8.7,27.9,8.4,28.3,8.4,28.3z M8.5,29.5h2.7v1.7h-0.3V31H8.8v0.2H8.5L8.5,29.5L8.5,29.5z
	 M11,29.8H8.8v0.4H11V29.8z M8.8,30.8H11v-0.4H8.8V30.8z M10.1,27.6c0.5,0,1.1-0.1,1.6-0.1l0.1,0.3c-0.5,0.1-1,0.1-1.4,0.1v0.5h1.5
	v0.2h-0.6v0.8h-0.3v-0.8h-0.6c-0.1,0.3-0.2,0.7-0.4,0.9c-0.1-0.1-0.1-0.1-0.2-0.2c0.2-0.2,0.3-0.6,0.3-1L10.1,27.6L10.1,27.6z
	 M12,28.9h1.6c0.1-0.3,0.1-0.6,0.1-0.9h-1.4v-0.3h3.2v0.3H14c0,0.3-0.1,0.6-0.1,0.9h1.9v0.3h-2c-0.2,0.9-0.8,1.6-1.7,2.1
	c-0.1-0.1-0.1-0.2-0.2-0.3c0.8-0.4,1.3-1,1.5-1.8H12V28.9z M14.1,29.5h0.3v1c0,0.2,0.1,0.3,0.3,0.3h0.6c0.2,0,0.3-0.1,0.3-0.2
	s0-0.3,0.1-0.6c0.1,0,0.2,0.1,0.3,0.1c0,0.3-0.1,0.5-0.1,0.6c0,0.3-0.2,0.4-0.6,0.4h-0.7c-0.3,0-0.5-0.2-0.5-0.6L14.1,29.5
	L14.1,29.5z M16.1,29.6h0.6c0.1-0.1,0.1-0.2,0.2-0.3l0.3,0.1c0,0.1-0.1,0.1-0.1,0.2h1v0.3c-0.1,0.3-0.3,0.5-0.5,0.7
	c0.1,0.1,0.3,0.1,0.4,0.2L17.8,31c-0.2-0.1-0.3-0.2-0.5-0.3c-0.3,0.2-0.7,0.4-1.1,0.5c0-0.1-0.1-0.2-0.1-0.3c0.4-0.1,0.7-0.2,1-0.4
	c-0.2-0.1-0.5-0.2-0.7-0.3c0.1-0.1,0.2-0.3,0.2-0.4H16L16.1,29.6L16.1,29.6z M16.1,28.2H17v-0.9h0.3v0.9h0.8v0.3h-0.8v0.2l0.1-0.1
	c0.2,0.2,0.5,0.3,0.6,0.5l-0.2,0.2c-0.1-0.1-0.3-0.3-0.6-0.5v0.5H17v-0.6c-0.2,0.3-0.5,0.5-0.8,0.7c-0.1-0.1-0.1-0.1-0.2-0.2
	c0.3-0.2,0.6-0.4,0.9-0.7h-0.8L16.1,28.2L16.1,28.2z M16.2,27.6l0.2-0.1c0.1,0.1,0.2,0.3,0.4,0.5l-0.3,0.1
	C16.5,28,16.3,27.8,16.2,27.6z M16.7,30.2c0.2,0.1,0.4,0.2,0.6,0.3c0.2-0.1,0.3-0.3,0.4-0.6h-0.8C16.8,30,16.8,30.1,16.7,30.2z
	 M17.9,27.5l0.2,0.2c-0.1,0.2-0.3,0.4-0.4,0.5c-0.1-0.1-0.1-0.1-0.2-0.2C17.7,27.8,17.8,27.6,17.9,27.5z M18.6,27.3l0.3,0.1
	c-0.1,0.3-0.1,0.5-0.2,0.7H20v0.3h-0.3c-0.1,0.8-0.2,1.4-0.5,1.9c0.2,0.3,0.5,0.5,0.8,0.7c-0.1,0.1-0.1,0.2-0.2,0.3
	c-0.3-0.2-0.6-0.5-0.8-0.8c-0.2,0.3-0.5,0.6-0.9,0.8c-0.1-0.1-0.1-0.2-0.2-0.3c0.4-0.2,0.7-0.5,0.9-0.8c-0.2-0.4-0.3-0.8-0.4-1.3
	c-0.1,0.1-0.1,0.2-0.2,0.3c-0.1-0.1-0.1-0.2-0.2-0.3C18.4,28.5,18.6,28,18.6,27.3z M19.4,28.4h-0.8c0,0,0,0.1-0.1,0.1
	c0.1,0.6,0.2,1,0.4,1.5C19.3,29.5,19.4,29,19.4,28.4z M20.1,29.4c0.2-0.1,0.4-0.1,0.6-0.1v-0.9h-0.5v-0.3h0.5v-0.8H21v0.8h0.4v0.3
	H21v0.8c0.1,0,0.3-0.1,0.4-0.1c0,0.1,0,0.2,0,0.3c-0.1,0.1-0.3,0.1-0.4,0.1v1.2c0,0.3-0.1,0.5-0.4,0.5h-0.4c0-0.1,0-0.2-0.1-0.3
	c0.1,0,0.3,0,0.3,0c0.1,0,0.2-0.1,0.2-0.2v-1l-0.5,0.2C20.1,29.8,20.1,29.4,20.1,29.4z M21.9,29.8h0.8v-0.5h-0.9
	c0,0.8-0.2,1.5-0.6,1.9c-0.1-0.1-0.1-0.2-0.2-0.3c0.3-0.4,0.5-1,0.5-1.9v-1.5h2.4v1.2h-0.3v-0.1h-1.8v0.5h0.9v-0.4H23v0.4h1v0.3h-1
	v0.5h0.8v1.3h-0.3V31h-1.4v0.2h-0.3V29.8z M23.6,27.8h-1.8v0.5h1.8V27.8z M23.6,30.1h-1.4v0.6h1.4V30.1z"/>
</svg>
