<?xml version="1.0" encoding="UTF-8"?>
<svg width="16px" height="16px" viewBox="0 0 16 16" version="1.1" xmlns="http://www.w3.org/2000/svg" xmlns:xlink="http://www.w3.org/1999/xlink">
    <title>最小化</title>
    <g id="设计稿" stroke="none" stroke-width="1" fill="none" fill-rule="evenodd">
        <g id="新增/修改执行函数" transform="translate(-1592.000000, -164.000000)" fill-rule="nonzero">
            <g id="编组-17" transform="translate(260.000000, 140.000000)">
                <g id="最小化" transform="translate(1332.000000, 24.000000)">
                    <rect id="矩形" fill="#000000" opacity="0" x="0" y="0" width="16" height="16"></rect>
                    <path d="M12.25,1.25 L3.75,1.25 C2.375,1.25 1.25,2.375 1.25,3.75 L1.25,12.25 C1.25,13.625 2.375,14.75 3.75,14.75 L12.25,14.75 C13.625,14.75 14.75,13.625 14.75,12.25 L14.75,3.75 C14.75,2.375 13.625,1.25 12.25,1.25 Z M13.75,12.25 C13.75,13.075 13.075,13.75 12.25,13.75 L10.75,13.75 L10.75,12.25 C10.75,11.425 11.425,10.75 12.25,10.75 L13.75,10.75 L13.75,12.25 Z M13.75,9.75 L12.25,9.75 C10.875,9.75 9.75,10.875 9.75,12.25 L9.75,13.75 L3.75,13.75 C2.925,13.75 2.25,13.075 2.25,12.25 L2.25,3.75 C2.25,2.925 2.925,2.25 3.75,2.25 L12.25,2.25 C13.075,2.25 13.75,2.925 13.75,3.75 L13.75,9.75 Z M8.75,5.25 C8.475,5.25 8.25,5.475 8.25,5.75 L8.25,7.55 L4.725,4.025 C4.525,3.825 4.225,3.825 4.025,4.025 C3.825,4.225 3.825,4.525 4.025,4.725 L7.55,8.25 L5.75,8.25 C5.475,8.25 5.25,8.475 5.25,8.75 C5.25,9.025 5.475,9.25 5.75,9.25 L8.75,9.25 C8.9,9.25 9.025,9.2 9.1,9.1 C9.2,9 9.25,8.875 9.25,8.75 L9.25,5.75 C9.25,5.475 9.025,5.25 8.75,5.25 Z" id="形状" fill="#2877FF"></path>
                </g>
            </g>
        </g>
    </g>
</svg>