<?xml version="1.0" encoding="utf-8"?>
<!-- Generator: Adobe Illustrator 22.1.0, SVG Export Plug-In . SVG Version: 6.00 Build 0)  -->
<svg version="1.1" id="图层_1" xmlns="http://www.w3.org/2000/svg" xmlns:xlink="http://www.w3.org/1999/xlink" x="0px" y="0px"
	 viewBox="0 0 579.3 189.5" style="enable-background:new 0 0 579.3 189.5;" xml:space="preserve">
<style type="text/css">
	.st0{fill:url(#SVGID_1_);}
	.st1{fill:url(#SVGID_2_);}
	.st2{fill:url(#SVGID_3_);}
	.st3{fill:url(#SVGID_4_);}
	.st4{fill:url(#SVGID_5_);}
	.st5{fill:url(#SVGID_6_);}
	.st6{fill:url(#SVGID_7_);}
	.st7{fill:url(#SVGID_8_);}
</style>
<g>
	<g>
		<g>
			<g>
				
					<radialGradient id="SVGID_1_" cx="87.6033" cy="165" r="38.3909" gradientTransform="matrix(1 0 0 -1 0 192)" gradientUnits="userSpaceOnUse">
					<stop  offset="0" style="stop-color:#BAE2F8"/>
					<stop  offset="0.497" style="stop-color:#32ACE3"/>
					<stop  offset="0.9818" style="stop-color:#0057A7"/>
					<stop  offset="1" style="stop-color:#0057A7"/>
				</radialGradient>
				<path class="st0" d="M117.8,8.5c-4.4-3-10.4-5.9-18.3-7.4c-19.7-3.8-34.7,3-44.2,8.9c-9.4,6-14.8,15.4-14.8,15.4
					S59.2,7.7,88.5,36c4.1,3.6,10.5,9.9,12.7,11.7c0.5,0.4,1,0.8,1.6,1.2c3.4,3.1,7.9,5.1,12.8,5.1c10.5,0,19.1-8.5,19.1-19.1
					C134.9,29.5,130.6,17.8,117.8,8.5z"/>
				
					<radialGradient id="SVGID_2_" cx="879.3492" cy="1949.5951" r="38.3587" gradientTransform="matrix(-1 0 0 1 974.6984 -1787.0951)" gradientUnits="userSpaceOnUse">
					<stop  offset="0" style="stop-color:#BAE2F8"/>
					<stop  offset="0.497" style="stop-color:#32ACE3"/>
					<stop  offset="0.9818" style="stop-color:#0057A7"/>
					<stop  offset="1" style="stop-color:#0057A7"/>
				</radialGradient>
				<path class="st1" d="M65.2,181c4.4,2.9,10.4,5.9,18.3,7.4c19.7,3.8,34.7-3,44.2-8.9c9.4-6,14.7-15.4,14.7-15.4
					s-18.6,17.7-47.9-10.6c-4.1-3.6-10.5-9.9-12.7-11.7c-0.5-0.4-1-0.8-1.6-1.2c-3.4-3.1-7.9-5.1-12.8-5.1
					c-10.5,0-19.1,8.5-19.1,19.1C48.2,159.9,52.4,171.7,65.2,181z"/>
			</g>
			<g>
				
					<radialGradient id="SVGID_3_" cx="-489.1741" cy="941.0557" r="38.3618" gradientTransform="matrix(0.5 -0.866 -0.866 -0.5 1090.4432 111.086)" gradientUnits="userSpaceOnUse">
					<stop  offset="0" style="stop-color:#BAE2F8"/>
					<stop  offset="0.497" style="stop-color:#32ACE3"/>
					<stop  offset="0.9818" style="stop-color:#0057A7"/>
					<stop  offset="1" style="stop-color:#0057A7"/>
				</radialGradient>
				<path class="st2" d="M30,28.9C25.2,31.2,19.7,35,14.4,41C1.2,56.2-0.4,72.6,0.1,83.7c0.5,11.2,6,20.5,6,20.5S0,79.2,39.2,68
					c5.2-1.8,13.8-4.1,16.5-5.2c0.6-0.2,1.2-0.5,1.8-0.8c4.4-1.4,8.3-4.3,10.8-8.6c5.3-9.1,2.1-20.8-7-26
					C56.7,24.6,44.4,22.4,30,28.9z"/>
				
					<radialGradient id="SVGID_4_" cx="1456.8324" cy="1173.4486" r="38.3164" gradientTransform="matrix(-0.5 0.866 0.866 0.5 -135.7133 -1722.9877)" gradientUnits="userSpaceOnUse">
					<stop  offset="0" style="stop-color:#BAE2F8"/>
					<stop  offset="0.497" style="stop-color:#32ACE3"/>
					<stop  offset="0.9818" style="stop-color:#0057A7"/>
					<stop  offset="1" style="stop-color:#0057A7"/>
				</radialGradient>
				<path class="st3" d="M153,160.6c4.8-2.4,10.3-6.1,15.6-12.1c13.2-15.2,14.8-31.6,14.3-42.7s-6-20.5-6-20.5s6,25-33.1,36.2
					c-5.2,1.7-13.8,4.1-16.5,5.2c-0.6,0.2-1.2,0.5-1.8,0.8c-4.4,1.4-8.3,4.3-10.8,8.6c-5.3,9.1-2.1,20.8,7,26.1
					C126.3,164.9,138.6,167.1,153,160.6z"/>
			</g>
			<g>
				
					<radialGradient id="SVGID_5_" cx="1048.4342" cy="276.4324" r="38.4082" gradientTransform="matrix(0.5 0.866 0.866 -0.5 -615.3632 -712.189)" gradientUnits="userSpaceOnUse">
					<stop  offset="0" style="stop-color:#BAE2F8"/>
					<stop  offset="0.497" style="stop-color:#32ACE3"/>
					<stop  offset="0.9818" style="stop-color:#0057A7"/>
					<stop  offset="1" style="stop-color:#0057A7"/>
				</radialGradient>
				<path class="st4" d="M179.3,74.4c0.3-5.3-0.1-12-2.7-19.6c-6.5-19-19.9-28.6-29.8-33.8c-9.9-5.1-20.8-5-20.8-5
					s24.7,7.3,14.8,46.8c-1.1,5.4-3.3,14-3.8,16.9c-0.1,0.6-0.2,1.3-0.2,2c-1,4.5-0.4,9.4,2,13.6c5.3,9.1,16.9,12.2,26.1,7
					C169.7,99.7,177.7,90.1,179.3,74.4z"/>
				
					<radialGradient id="SVGID_6_" cx="-81.234" cy="1837.6044" r="38.3624" gradientTransform="matrix(-0.5 -0.866 -0.866 0.5 1585.4907 -857.2096)" gradientUnits="userSpaceOnUse">
					<stop  offset="0" style="stop-color:#BAE2F8"/>
					<stop  offset="0.497" style="stop-color:#32ACE3"/>
					<stop  offset="0.9818" style="stop-color:#0057A7"/>
					<stop  offset="1" style="stop-color:#0057A7"/>
				</radialGradient>
				<path class="st5" d="M3.7,115.1c-0.3,5.3,0.1,12,2.7,19.5c6.6,19,19.9,28.6,29.8,33.8s20.7,5.1,20.7,5.1s-24.7-7.3-14.8-46.8
					c1.1-5.4,3.3-14,3.8-16.9c0.1-0.6,0.2-1.3,0.3-2c1-4.5,0.4-9.3-2.1-13.6c-5.3-9.1-16.9-12.2-26-7C13.4,89.8,5.3,99.4,3.7,115.1z
					"/>
			</g>
		</g>
		<g>
			
				<radialGradient id="SVGID_7_" cx="199.2769" cy="-69.7635" r="41.61" gradientTransform="matrix(0.8398 0 0 -0.8448 -88.8189 37.3897)" gradientUnits="userSpaceOnUse">
				<stop  offset="0" style="stop-color:#D71718"/>
				<stop  offset="1" style="stop-color:#4C0F14"/>
			</radialGradient>
			<path class="st6" d="M66.4,91.7c-0.2,0.6-0.5,2.5-0.5,2.8s0,0.6,0,0.9c0,0.2,0,0.3,0,0.5c0.1,13.8,11.6,24.2,26.4,25
				c10.3,0.6,18.4-4.6,21.7-11c-3.3,2.6-7.5,4.1-12,3.9c-8.3-0.2-15-6-17.4-13.6c-2.5-7.9,4-13.7,9-9.1
				C93.8,81.3,70.8,74.8,66.4,91.7"/>
			
				<radialGradient id="SVGID_8_" cx="-1274.0953" cy="2411.4714" r="41.6106" gradientTransform="matrix(-0.8398 0 0 0.8448 -964.6936 -1943.8264)" gradientUnits="userSpaceOnUse">
				<stop  offset="0" style="stop-color:#FFFDED"/>
				<stop  offset="0.2545" style="stop-color:#F3D296"/>
				<stop  offset="0.7152" style="stop-color:#8F813C"/>
			</radialGradient>
			<path class="st7" d="M117.4,98c0.2-0.6,0.5-2.5,0.5-2.8s0-0.6,0-0.9c0-0.2,0-0.3,0-0.5c-0.1-13.8-11.6-24.2-26.4-25
				c-10.3-0.6-18.4,4.6-21.7,11c3.3-2.6,7.5-4.1,12-3.9c8.3,0.2,15,6,17.4,13.6c2.5,7.9-4,13.7-9,9.1C90.1,108.5,113,114.9,117.4,98
				"/>
		</g>
	</g>
	<g>
		<g>
			<path d="M218.5,160.5V148l-11.4-17.1h4.8l5.9,8.9c1,1.5,2,3.2,3,5c1-1.7,2.1-3.4,3.2-5.2l5.8-8.7h4.5L222.5,148v12.6h-4V160.5z"
				/>
			<path d="M251.4,160.5v-3.1c-1.7,2.4-3.9,3.6-6.8,3.6c-2.8,0-4.8-0.9-6-2.6c-0.6-0.7-0.9-1.6-1.1-2.7c-0.2-0.7-0.2-1.9-0.2-3.4
				V139h3.7v12c0,1.9,0.1,3.2,0.2,3.8c0.5,2.1,1.9,3.1,4.2,3.1c1.1,0,2.1-0.3,3-0.8c1-0.6,1.7-1.3,2.1-2.3c0.4-1,0.6-2.4,0.6-4.2
				v-11.5h3.7v21.5h-3.4V160.5z"/>
			<path d="M258.9,154.1l3.6-0.6c0.4,3,2.3,4.5,5.6,4.5c1.3,0,2.4-0.2,3.3-0.7c1.1-0.6,1.7-1.5,1.7-2.7c0-0.8-0.4-1.5-1.1-1.9
				c-0.5-0.3-1.7-0.7-3.7-1.2c-2.2-0.6-3.7-1-4.3-1.2c-1.7-0.7-2.9-1.5-3.6-2.6c-0.5-0.9-0.8-1.8-0.8-2.9c0-1.9,0.8-3.5,2.5-4.7
				c1.4-1,3.2-1.5,5.5-1.5c3.5,0,5.9,0.9,7.3,2.7c0.6,0.8,1,1.9,1.2,3.3l-3.5,0.5c-0.3-2.3-1.9-3.5-4.7-3.5c-3.1,0-4.7,0.9-4.7,2.8
				c0,1,0.6,1.8,1.8,2.3c0.3,0.1,1.4,0.4,3.2,0.9c2.4,0.6,3.8,1,4.2,1.2c1.7,0.6,2.9,1.4,3.6,2.4c0.6,0.8,0.9,1.9,0.9,3.1
				c0,2.7-1.4,4.7-4.1,5.9c-1.3,0.6-2.8,0.9-4.5,0.9C262.8,161,259.7,158.7,258.9,154.1z"/>
			<path d="M280.9,168.8l-0.4-3.4c0.8,0.2,1.5,0.3,2.1,0.3c1.4,0,2.5-0.5,3.1-1.5c0.2-0.4,0.6-1.3,1.1-2.7c0.1-0.3,0.2-0.6,0.3-0.9
				l-8.1-21.5h3.9l4.5,12.4c0.6,1.7,1.1,3.4,1.6,5c0.4-1.7,0.9-3.3,1.5-4.9l4.6-12.5h3.7l-8.1,21.8c-0.9,2.4-1.6,4-2,4.9
				c-1.3,2.3-3,3.5-5.2,3.5C282.6,169.2,281.8,169.1,280.9,168.8z"/>
			<path d="M300.3,154.1l3.6-0.6c0.4,3,2.3,4.5,5.6,4.5c1.3,0,2.4-0.2,3.3-0.7c1.1-0.6,1.7-1.5,1.7-2.7c0-0.8-0.4-1.5-1.1-1.9
				c-0.5-0.3-1.7-0.7-3.7-1.2c-2.3-0.6-3.7-1-4.3-1.2c-1.7-0.7-2.9-1.5-3.6-2.6c-0.5-0.9-0.8-1.8-0.8-2.9c0-1.9,0.8-3.5,2.5-4.7
				c1.4-1,3.2-1.5,5.4-1.5c3.5,0,5.9,0.9,7.3,2.7c0.6,0.8,1,1.9,1.2,3.3l-3.6,0.5c-0.3-2.3-1.9-3.5-4.7-3.5c-3.1,0-4.6,0.9-4.6,2.8
				c0,1,0.6,1.8,1.8,2.3c0.4,0.1,1.4,0.4,3.2,0.9c2.4,0.6,3.8,1,4.2,1.2c1.7,0.6,2.9,1.4,3.6,2.4c0.6,0.8,0.8,1.9,0.8,3.1
				c0,2.7-1.4,4.7-4.1,5.9c-1.3,0.6-2.8,0.9-4.5,0.9C304.2,161,301.1,158.7,300.3,154.1z"/>
			<path d="M345.1,160.5v-26.1h-9.8v-3.5h23.5v3.5H349v26.1H345.1z"/>
			<path d="M377.1,153.6l3.7,0.5c-1.2,4.6-4.4,6.9-9.4,6.9c-3.3,0-5.9-1-7.7-3.1c-1.7-2-2.6-4.6-2.6-8c0-3.3,0.8-6,2.5-8.1
				c1.8-2.2,4.3-3.3,7.5-3.3s5.6,1.1,7.3,3.3c1.6,2,2.4,4.7,2.4,7.9c0,0.2,0,0.6,0,1h-16c0.1,2.1,0.7,3.8,1.7,5.1
				c1.2,1.5,2.8,2.2,4.8,2.2C374.1,158,376,156.6,377.1,153.6z M365.1,147.7h12c-0.2-1.8-0.6-3.2-1.4-4.1c-1.1-1.4-2.7-2.1-4.5-2.1
				s-3.2,0.6-4.3,1.8C365.8,144.5,365.2,145.9,365.1,147.7z"/>
			<path d="M399.4,152.7l3.6,0.5c-0.4,2.4-1.3,4.3-2.9,5.7c-1.6,1.5-3.6,2.2-6,2.2c-3.2,0-5.7-1.1-7.4-3.2c-1.6-2-2.4-4.6-2.4-7.9
				c0-5,1.6-8.3,4.7-10c1.6-0.9,3.3-1.3,5.1-1.3c4.8,0,7.7,2.3,8.6,6.8l-3.5,0.5c-0.7-2.9-2.3-4.3-4.9-4.3c-4.1,0-6.2,2.7-6.2,8.2
				s2,8.2,6,8.2C397.1,158,398.9,156.2,399.4,152.7z"/>
			<path d="M406.1,160.5v-29.7h3.7v10.6c1.7-1.9,3.9-2.9,6.4-2.9c3.3,0,5.6,1.2,6.6,3.5c0.5,1.1,0.8,2.7,0.8,4.8v13.6h-3.7v-13.6
				c0-3.5-1.5-5.2-4.5-5.2c-1.1,0-2.1,0.3-3,0.8c-0.9,0.6-1.6,1.3-2,2.3s-0.6,2.3-0.6,4v11.8L406.1,160.5L406.1,160.5z"/>
			<path d="M429.1,160.5V139h3.3v3c1.6-2.4,3.9-3.5,6.8-3.5c2.8,0,4.8,0.8,6,2.5c0.5,0.8,0.9,1.7,1.1,2.7c0.1,0.6,0.2,1.8,0.2,3.5
				v13.2h-3.7v-13.1c0-2.6-0.6-4.3-1.9-5.1c-0.7-0.4-1.6-0.6-2.5-0.6c-3.8,0-5.7,2.4-5.7,7.1v11.7h-3.6V160.5z"/>
			<path d="M450.8,149.8c0-4,1.1-6.9,3.3-8.8c1.8-1.6,4.1-2.4,6.7-2.4c3.2,0,5.7,1,7.5,3.1c1.7,2,2.6,4.6,2.6,7.8
				c0,5-1.6,8.4-4.9,10.2c-1.6,0.9-3.3,1.3-5.2,1.3c-3.3,0-5.8-1.1-7.6-3.2C451.6,155.8,450.8,153.1,450.8,149.8z M454.5,149.8
				c0,2.3,0.5,4.2,1.4,5.7c1.1,1.7,2.8,2.6,4.9,2.6c2.2,0,3.8-0.9,5-2.7c0.9-1.5,1.4-3.4,1.4-5.7s-0.5-4.1-1.4-5.6
				c-1.1-1.7-2.8-2.6-4.9-2.6c-2.2,0-3.8,0.9-4.9,2.6C455,145.6,454.5,147.5,454.5,149.8z"/>
			<path d="M475.1,160.5v-29.7h3.6v29.7H475.1z"/>
			<path d="M483,149.8c0-4,1.1-6.9,3.3-8.8c1.8-1.6,4.1-2.4,6.8-2.4c3.1,0,5.7,1,7.5,3.1c1.7,2,2.6,4.6,2.6,7.8
				c0,5-1.6,8.4-4.9,10.2c-1.6,0.9-3.3,1.3-5.2,1.3c-3.3,0-5.8-1.1-7.6-3.2C483.9,155.8,483,153.1,483,149.8z M486.7,149.8
				c0,2.3,0.5,4.2,1.4,5.7c1.1,1.7,2.8,2.6,4.9,2.6c2.2,0,3.8-0.9,5-2.7c0.9-1.5,1.4-3.4,1.4-5.7s-0.5-4.1-1.4-5.6
				c-1.1-1.7-2.8-2.6-4.9-2.6c-2.2,0-3.8,0.9-4.9,2.6C487.2,145.6,486.7,147.5,486.7,149.8z"/>
			<path d="M506.7,162.3l3.5,0.5c0.2,1.1,0.6,1.9,1.2,2.4c0.9,0.7,2.1,1,3.7,1c3.2,0,5.1-1.3,5.8-3.9c0.2-0.7,0.3-2.3,0.3-4.7
				c-1.6,1.9-3.6,2.8-6,2.8c-2.9,0-5.3-1.1-6.9-3.3c-1.6-2-2.3-4.5-2.3-7.6c0-4.5,1.4-7.7,4.3-9.7c1.4-0.9,3.1-1.4,5-1.4
				c2.5,0,4.6,1,6.3,3v-2.6h3.4v18.5c0,2.7-0.2,4.7-0.6,6c-0.6,2-1.8,3.5-3.7,4.5c-1.5,0.8-3.3,1.2-5.4,1.2c-2.5,0-4.5-0.5-6-1.5
				C507.5,166.5,506.7,164.7,506.7,162.3z M509.7,149.4c0,2.3,0.4,4.1,1.2,5.5c1,1.7,2.6,2.6,4.7,2.6c2.1,0,3.6-0.8,4.7-2.6
				c0.8-1.4,1.2-3.2,1.2-5.5c0-2.1-0.4-3.9-1.3-5.4c-1.1-1.7-2.6-2.6-4.6-2.6s-3.5,0.8-4.5,2.6C510.2,145.5,509.7,147.3,509.7,149.4
				z"/>
			<path d="M530.4,135.1v-4.2h3.7v4.2H530.4z M530.4,160.5V139h3.7v21.5H530.4z"/>
			<path d="M554.4,153.6l3.7,0.5c-1.2,4.6-4.4,6.9-9.4,6.9c-3.3,0-5.9-1-7.7-3.1c-1.7-2-2.6-4.6-2.6-8c0-3.3,0.8-6,2.5-8.1
				c1.8-2.2,4.3-3.3,7.5-3.3s5.6,1.1,7.4,3.3c1.6,2,2.4,4.7,2.4,7.9c0,0.2,0,0.6,0,1h-16c0.1,2.1,0.7,3.8,1.7,5.1
				c1.1,1.5,2.8,2.2,4.8,2.2C551.4,158,553.3,156.6,554.4,153.6z M542.4,147.7h12c-0.2-1.8-0.6-3.2-1.4-4.1
				c-1.2-1.4-2.7-2.1-4.5-2.1s-3.2,0.6-4.3,1.8C543.1,144.5,542.5,145.9,542.4,147.7z"/>
			<path d="M561.2,154.1l3.6-0.6c0.4,3,2.3,4.5,5.6,4.5c1.3,0,2.4-0.2,3.3-0.7c1.1-0.6,1.7-1.5,1.7-2.7c0-0.8-0.4-1.5-1.1-1.9
				c-0.5-0.3-1.7-0.7-3.7-1.2c-2.3-0.6-3.7-1-4.3-1.2c-1.7-0.7-2.9-1.5-3.6-2.6c-0.5-0.9-0.8-1.8-0.8-2.9c0-1.9,0.8-3.5,2.4-4.7
				c1.4-1,3.2-1.5,5.5-1.5c3.5,0,5.9,0.9,7.3,2.7c0.6,0.8,1,1.9,1.2,3.3l-3.5,0.5c-0.3-2.3-1.9-3.5-4.7-3.5c-3.1,0-4.6,0.9-4.6,2.8
				c0,1,0.6,1.8,1.8,2.3c0.4,0.1,1.4,0.4,3.2,0.9c2.4,0.6,3.8,1,4.2,1.2c1.7,0.6,2.9,1.4,3.6,2.4c0.6,0.8,0.8,1.9,0.8,3.1
				c0,2.7-1.4,4.7-4.1,5.9c-1.3,0.6-2.8,0.9-4.5,0.9C565.1,161,562,158.7,561.2,154.1z"/>
		</g>
		<g>
			<path d="M215.5,61H207V40.3h35.3c-0.9-2.3-2-4.8-3.2-6.9l8.6-2.4c1.7,2.7,3.4,6.4,4.5,9.3H286V61h-8.9V48.3h-61.8V61H215.5z
				 M286.4,86.6h-34.6V105c0,5.2-1.4,7.6-5.2,8.9c-3.7,1.4-9.5,1.5-17.8,1.5c-0.6-2.5-2.2-6.3-3.6-8.6c6.3,0.3,13.1,0.3,15,0.2
				c1.9-0.1,2.4-0.5,2.4-2V86.6h-35.4v-8.3h35.4V65.7h-22.4v-8h52.5v8h-20.9v12.7h34.6V86.6z"/>
			<path d="M327.7,33.5c-2.1,5.8-4.7,11.9-7.5,17.5v65.1h-7.9V64.8c-2.5,3.9-5.2,7.3-7.8,10.4c-0.8-1.9-3.2-6.3-4.6-8.3
				c8.1-8.7,15.5-22.2,20-35.7L327.7,33.5z M384.6,45.7v7h-58.8v-7H353c-1.3-3.3-3.9-8.3-6.2-12.1l7.4-2.9c2.5,3.7,5.3,8.7,6.7,12
				l-6.7,2.9h30.4V45.7z M331.2,85.8h47.5v29.8H371v-3.1h-32.5v3.3h-7.3V85.8z M377.6,66h-45.1v-6.9h45.1V66z M332.5,72.2h45.1V79
				h-45.1V72.2z M338.5,92.7v12.8H371V92.7H338.5z"/>
			<path d="M427.7,87.6c-1.3-2.8-4.5-8-7.2-12.2v40.5h-8.3V78.3c-3.4,8.4-7.6,16.3-11.9,21.6c-0.8-2.3-2.9-5.8-4.2-8
				c5.5-6.3,11.4-17.3,14.8-27.2h-13.6v-8.1h14.8V44.3c-4,0.7-8,1.3-11.7,1.9c-0.3-1.9-1.5-4.9-2.4-6.7c10.4-1.7,22.2-4.4,29.5-7.5
				l4.9,7c-3.5,1.4-7.6,2.5-12,3.5v14.2h13v8.1h-13v1.3c2.8,2.9,10.7,12.3,12.4,14.7L427.7,87.6z M471.1,92.1v23.7h-8.5V93.6
				l-29.2,4.9l-1.3-8.3l30.5-5.1V30.8h8.5v52.9l10.1-1.7l1.3,8.1L471.1,92.1z M450.9,79.6c-3.1-4-9.8-9.9-15.5-13.8l5.5-5
				c5.6,3.7,12.6,9.3,15.9,13.2L450.9,79.6z M453.2,55.2c-2.8-3.9-9.1-9.5-14.4-13.4l5.7-4.9c5.3,3.6,11.7,9,14.7,12.9L453.2,55.2z"
				/>
			<path d="M524.6,78.6c-3.5,1-7,2-10.6,3.1V106c0,4.4-0.9,6.8-3.6,8.1c-2.7,1.3-6.9,1.6-13.2,1.5c-0.4-2-1.5-5.7-2.6-7.8
				c4.1,0.1,8,0.1,9.1,0c1.4,0,1.9-0.5,1.9-1.8V84c-3.6,1-7,1.9-10.2,2.8l-2.2-8.3c3.5-0.8,7.8-1.9,12.4-3V57h-11.4v-8h11.4V30.8
				h8.4v18.1h9.7V57H514v16.3l9.5-2.5L524.6,78.6z M574.6,67.3c-3.7,12.8-9.9,22.9-18.1,30.7c6.4,4.8,14,8.4,22.8,10.8
				c-1.9,1.7-4.4,5.1-5.6,7.3c-9.4-2.7-17.2-6.9-24-12.5c-7.4,5.6-16,9.6-25.3,12.3c-0.9-2.2-3.1-5.9-4.6-7.8
				c8.6-2.1,16.7-5.7,23.8-10.5c-6.1-6.8-10.8-14.7-14.4-24l1.2-0.4h-3.7v-7.9h19.1V52.6H525v-7.9h20.8V30.8h8.5v13.9h21.4v7.9
				h-21.4v12.7h13.2L569,65L574.6,67.3z M537.7,73.2c3,7.2,7,13.6,12.4,19.1c5.7-5.3,10.4-11.7,13.5-19.1H537.7z"/>
		</g>
	</g>
</g>
</svg>
