<?xml version="1.0" encoding="UTF-8"?>
<svg width="16px" height="16px" viewBox="0 0 16 16" version="1.1" xmlns="http://www.w3.org/2000/svg" xmlns:xlink="http://www.w3.org/1999/xlink">
    <title>code</title>
    <g id="设计稿" stroke="none" stroke-width="1" fill="none" fill-rule="evenodd">
        <g id="页面管理（动作）" transform="translate(-1772.000000, -574.000000)" fill="#2877FF" fill-rule="nonzero">
            <g id="动作区域" transform="translate(1480.000000, 146.000000)">
                <g id="事件操作" transform="translate(0.000000, 312.000000)">
                    <g id="按钮事件-非内置" transform="translate(16.000000, 104.000000)">
                        <g id="code" transform="translate(276.000000, 12.000000)">
                            <rect id="矩形" opacity="0" x="0" y="0" width="16" height="16"></rect>
                            <path d="M10.7736239,4.47573728 C10.5501288,4.25222427 10.5501288,3.88984953 10.7736239,3.66633652 C10.9971369,3.4428414 11.3595117,3.4428414 11.5830247,3.66633652 L15.8323652,7.91567707 C16.0558783,8.13919008 16.0558783,8.50156482 15.8323652,8.72507783 L11.5830247,12.9744184 C11.3595117,13.1979314 10.9971369,13.1979314 10.7736239,12.9744184 C10.5501288,12.7509054 10.5501288,12.3885306 10.7736239,12.1650176 L14.5170957,8.42156372 C14.5439305,8.3947303 14.5590063,8.35833555 14.5590063,8.32038639 C14.5590063,8.28243723 14.5439305,8.24604248 14.5170957,8.21920906 L10.7736239,4.47573728 Z M1.48290875,8.42156372 L5.22636265,12.1650176 C5.44987566,12.3885306 5.44987566,12.7509054 5.22636265,12.9744184 C5.00284964,13.1979314 4.6404749,13.1979314 4.41696189,12.9744184 L0.167621343,8.72507783 C-0.055873781,8.50156482 -0.055873781,8.13919008 0.167621343,7.91567707 L4.41696189,3.66633652 C4.6404749,3.4428414 5.00284964,3.4428414 5.22636265,3.66633652 C5.44987566,3.88984953 5.44987566,4.25222427 5.22636265,4.47573728 L1.48290875,8.21920906 C1.45607395,8.24604248 1.4409982,8.28243723 1.4409982,8.32038639 C1.4409982,8.35833555 1.45607395,8.3947303 1.48290875,8.42156372 Z M9.23142531,3.01479172 C9.53941075,3.0859038 9.73144557,3.39322748 9.66033349,3.70121292 L7.46360321,13.2163175 C7.39250901,13.5243029 7.08518533,13.7163378 6.77719989,13.6452257 C6.46921445,13.5741315 6.27717963,13.2668078 6.34827383,12.9588224 L8.54502199,3.44371778 C8.61611619,3.13573234 8.92343987,2.94369752 9.23142531,3.01479172 L9.23142531,3.01479172 Z" id="形状"></path>
                        </g>
                    </g>
                </g>
            </g>
        </g>
    </g>
</svg>