<?xml version="1.0" encoding="UTF-8"?>
<svg width="16px" height="16px" viewBox="0 0 16 16" version="1.1" xmlns="http://www.w3.org/2000/svg" xmlns:xlink="http://www.w3.org/1999/xlink">
    <title>delete</title>
    <g id="设计稿" stroke="none" stroke-width="1" fill="none" fill-rule="evenodd">
        <g id="页面管理（动作）" transform="translate(-1836.000000, -574.000000)" fill-rule="nonzero">
            <g id="动作区域" transform="translate(1480.000000, 146.000000)">
                <g id="事件操作" transform="translate(0.000000, 312.000000)">
                    <g id="按钮事件-非内置" transform="translate(16.000000, 104.000000)">
                        <g id="delete" transform="translate(340.000000, 12.000000)">
                            <rect id="矩形" fill="#000000" opacity="0" x="0" y="0" width="16" height="16"></rect>
                            <path d="M14.1333333,3.86666667 L11.3333333,3.86666667 L11.3333333,2.66666667 C11.3333333,1.93333334 10.7333333,1.33333333 10,1.33333333 L6,1.33333333 C5.26666667,1.33333333 4.66666667,1.93333333 4.66666667,2.66666667 L4.66666667,3.86666667 L1.86666667,3.86666667 C1.53333334,3.86666667 1.33333333,4.06666667 1.33333333,4.33333333 C1.33333333,4.59999998 1.53333333,4.86666666 1.86666667,4.86666667 L2.8,4.86666667 L3.86666667,13.6666667 C3.93333334,14.3333333 4.53333334,14.8666667 5.2,14.8666667 L10.8666667,14.8666667 C11.5333333,14.8666667 12.1333333,14.3333333 12.2,13.6666667 L13.2666667,4.86666667 L14.2,4.86666667 C14.4666667,4.86666667 14.7333333,4.66666667 14.7333333,4.33333333 C14.7333333,3.99999998 14.4666667,3.86666666 14.1333333,3.86666667 Z M5.66666667,2.66666667 C5.66666667,2.46666667 5.8,2.33333333 6,2.33333333 L10,2.33333333 C10.2,2.33333333 10.3333333,2.46666666 10.3333333,2.66666667 L10.3333333,3.86666667 L5.66666667,3.86666667 L5.66666667,2.66666667 Z M11.1333333,13.5333333 C11.1333333,13.6666667 11,13.8 10.8,13.8 L5.2,13.8 C5,13.8 4.86666667,13.6666667 4.86666667,13.5333333 L3.8,4.8 L12.2,4.8 L11.1333333,13.5333333 L11.1333333,13.5333333 Z" id="形状" fill="#2877FF"></path>
                            <path d="M9.33333333,12.6666667 L6.66666667,12.6666667 C6.26666667,12.6666667 6,12.4 6,12 L6,11.3333333 L10,11.3333333 L10,12 C10,12.4 9.73333333,12.6666667 9.33333333,12.6666667 Z" id="路径" fill="#2877FF"></path>
                        </g>
                    </g>
                </g>
            </g>
        </g>
    </g>
</svg>