<?xml version="1.0" encoding="UTF-8"?>
<svg width="16px" height="16px" viewBox="0 0 16 16" version="1.1" xmlns="http://www.w3.org/2000/svg" xmlns:xlink="http://www.w3.org/1999/xlink">
    <title>edit</title>
    <g id="设计稿" stroke="none" stroke-width="1" fill="none" fill-rule="evenodd">
        <g id="页面管理（动作）" transform="translate(-1804.000000, -574.000000)" fill="#2877FF" fill-rule="nonzero">
            <g id="动作区域" transform="translate(1480.000000, 146.000000)">
                <g id="事件操作" transform="translate(0.000000, 312.000000)">
                    <g id="按钮事件-非内置" transform="translate(16.000000, 104.000000)">
                        <g id="edit" transform="translate(308.000000, 12.000000)">
                            <rect id="矩形" opacity="0" x="0" y="0" width="16" height="16"></rect>
                            <path d="M13.3333333,13.3333333 L9.33333333,13.3333333 C8.9651435,13.3333333 8.66666667,13.0348565 8.66666667,12.6666667 L8.66666667,12 L14,12 L14,12.6666667 C14,13.0348565 13.7015232,13.3333333 13.3333333,13.3333333 L13.3333333,13.3333333 Z" id="路径"></path>
                            <path d="M11.16,2.15324839 C11.2500891,2.15355402 11.3364078,2.18952017 11.4,2.25333333 L13.2933333,4.14666667 C13.3564375,4.20925554 13.3919328,4.29445416 13.3919328,4.38333334 C13.3919328,4.47221251 13.3564375,4.55741113 13.2933333,4.62 L6.40666667,11.5133333 L3.00666667,12.54 L4.03333333,9.14 L10.9266667,2.24666667 C10.9884627,2.18503855 11.072749,2.15132405 11.16,2.15324839 M11.16,1.1533329 C10.8079033,1.15305235 10.4699886,1.29205272 10.22,1.54 L3.14666667,8.61333333 L1.81333333,12.9733333 C1.79033733,13.1635398 1.85028571,13.3544459 1.97788871,13.4973613 C2.10549172,13.6402766 2.28841344,13.7213851 2.48,13.7200175 L2.55333333,13.7200175 L6.91333333,12.3866667 L14,5.33333333 C14.2503694,5.08324232 14.3910489,4.743879 14.3910489,4.39 C14.3910489,4.036121 14.2503694,3.69675768 14,3.44666667 L12.1066667,1.54666667 C11.8561358,1.2946404 11.5153631,1.15305174 11.16,1.1533329 Z" id="形状"></path>
                            <polygon id="路径" points="9.4 3.31333333 8.69333333 4.02 11.5266667 6.86 12.24 6.15333333"></polygon>
                        </g>
                    </g>
                </g>
            </g>
        </g>
    </g>
</svg>