<?xml version="1.0" encoding="UTF-8"?>
<svg width="1016px" height="212px" viewBox="0 0 1016 212" version="1.1" xmlns="http://www.w3.org/2000/svg" xmlns:xlink="http://www.w3.org/1999/xlink">
    <title>折叠面板</title>
    <defs>
        <rect id="path-1" x="20" y="112" width="976" height="80"></rect>
        <mask id="mask-2" maskContentUnits="userSpaceOnUse" maskUnits="objectBoundingBox" x="0" y="0" width="976" height="80" fill="white">
            <use xlink:href="#path-1"></use>
        </mask>
    </defs>
    <g id="设计稿" stroke="none" stroke-width="1" fill="none" fill-rule="evenodd">
        <g id="组件2" transform="translate(-43.000000, -426.000000)">
            <g id="折叠面板" transform="translate(43.000000, 426.000000)">
                <rect id="矩形备份-12" stroke="#EEEEEE" fill="#FFFFFF" x="0.5" y="0.5" width="1015" height="211"></rect>
                <use id="矩形备份-15" stroke="#C2C2C2" mask="url(#mask-2)" stroke-width="2" fill="#FFFFFF" stroke-linejoin="bevel" stroke-dasharray="5" xlink:href="#path-1"></use>
                <path d="M20,20 L996,20 L996,60 L20,60 L20,20 Z" id="矩形备份-12" fill="#FAFAFA"></path>
                <path d="M20,72 L996,72 L996,112 L20,112 L20,72 Z" id="矩形备份-14" fill="#FAFAFA"></path>
                <g id="add" transform="translate(932.000000, 84.000000)" fill="#999999" fill-rule="nonzero">
                    <rect id="矩形" opacity="0" x="0" y="0" width="16" height="16"></rect>
                    <path d="M2,7.33333333 L14,7.33333333 C14.3681898,7.33333333 14.6666667,7.63181016 14.6666667,8 L14.6666667,8.66666667 L1.33333333,8.66666667 L1.33333333,8 C1.33333333,7.63181016 1.63181016,7.33333333 2,7.33333333 L2,7.33333333 Z" id="路径"></path>
                    <path d="M7.33333333,14.6666667 L7.33333333,1.33333333 L8,1.33333333 C8.36818984,1.33333333 8.66666667,1.63181016 8.66666667,2 L8.66666667,14 C8.66666667,14.3681898 8.36818984,14.6666667 8,14.6666667 L7.33333333,14.6666667 L7.33333333,14.6666667 Z" id="路径"></path>
                </g>
                <g id="delete" transform="translate(964.000000, 84.000000)" fill="#999999" fill-rule="nonzero">
                    <rect id="矩形" opacity="0" x="0" y="0" width="16" height="16"></rect>
                    <path d="M2.81466667,12.2426667 L12.2433333,2.81466667 C12.5036666,2.55441205 12.9256668,2.55441205 13.186,2.81466667 L13.6573333,3.286 L3.286,13.6566667 L2.81466667,13.1853333 C2.55441206,12.9250001 2.55441206,12.5029999 2.81466667,12.2426667 Z" id="路径"></path>
                    <path d="M12.714,13.6566667 L2.34333333,3.28533333 L2.81466667,2.814 C3.07499991,2.55374538 3.49700009,2.55374538 3.75733333,2.814 L13.1853333,12.242 C13.310518,12.3670455 13.3808578,12.5367272 13.3808578,12.7136667 C13.3808578,12.8906062 13.310518,13.0602878 13.1853333,13.1853333 L12.714,13.6566667 L12.714,13.6566667 Z" id="路径"></path>
                </g>
                <text font-family="MicrosoftYaHei, Microsoft YaHei" font-size="14" font-weight="normal" line-spacing="14" fill="#999999">
                    <tspan x="32" y="48">折叠面板</tspan>
                </text>
                <text id="折叠面板备份" font-family="MicrosoftYaHei, Microsoft YaHei" font-size="14" font-weight="normal" line-spacing="14" fill="#999999">
                    <tspan x="32" y="100">折叠面板</tspan>
                </text>
                <text id="折叠面板内容" font-family="MicrosoftYaHei, Microsoft YaHei" font-size="14" font-weight="normal" line-spacing="14" fill="#999999">
                    <tspan x="32" y="160">折叠面板内容</tspan>
                </text>
                <g id="line-arrow-right" transform="translate(96.000000, 32.000000)" fill-rule="nonzero">
                    <rect id="矩形" fill="#000000" opacity="0" x="0" y="0" width="16" height="16"></rect>
                    <path d="M5.07333333,15.0733333 L11.2,8.94 C11.7169648,8.41995006 11.7169648,7.58004994 11.2,7.06 L5.07333333,0.926666672 L4.6,1.4 C4.34151761,1.66002497 4.34151761,2.07997503 4.6,2.34 L10,7.76666667 C10.1270476,7.89628117 10.1270476,8.10371883 10,8.23333333 L4.6,13.66 C4.34151761,13.920025 4.34151761,14.339975 4.6,14.6 L5.07333333,15.0733333 Z" id="路径" fill="#999999"></path>
                </g>
                <g id="line-arrow-right备份" transform="translate(104.000000, 92.000000) rotate(90.000000) translate(-104.000000, -92.000000) translate(96.000000, 84.000000)" fill-rule="nonzero">
                    <rect id="矩形" fill="#000000" opacity="0" x="0" y="0" width="16" height="16"></rect>
                    <path d="M5.07333333,15.0733333 L11.2,8.94 C11.7169648,8.41995006 11.7169648,7.58004994 11.2,7.06 L5.07333333,0.926666672 L4.6,1.4 C4.34151761,1.66002497 4.34151761,2.07997503 4.6,2.34 L10,7.76666667 C10.1270476,7.89628117 10.1270476,8.10371883 10,8.23333333 L4.6,13.66 C4.34151761,13.920025 4.34151761,14.339975 4.6,14.6 L5.07333333,15.0733333 Z" id="路径" fill="#999999"></path>
                </g>
                <g id="add" transform="translate(932.000000, 32.000000)" fill="#999999" fill-rule="nonzero">
                    <rect id="矩形" opacity="0" x="0" y="0" width="16" height="16"></rect>
                    <path d="M2,7.33333333 L14,7.33333333 C14.3681898,7.33333333 14.6666667,7.63181016 14.6666667,8 L14.6666667,8.66666667 L1.33333333,8.66666667 L1.33333333,8 C1.33333333,7.63181016 1.63181016,7.33333333 2,7.33333333 L2,7.33333333 Z" id="路径"></path>
                    <path d="M7.33333333,14.6666667 L7.33333333,1.33333333 L8,1.33333333 C8.36818984,1.33333333 8.66666667,1.63181016 8.66666667,2 L8.66666667,14 C8.66666667,14.3681898 8.36818984,14.6666667 8,14.6666667 L7.33333333,14.6666667 L7.33333333,14.6666667 Z" id="路径"></path>
                </g>
                <g id="delete" transform="translate(964.000000, 32.000000)" fill="#999999" fill-rule="nonzero">
                    <rect id="矩形" opacity="0" x="0" y="0" width="16" height="16"></rect>
                    <path d="M2.81466667,12.2426667 L12.2433333,2.81466667 C12.5036666,2.55441205 12.9256668,2.55441205 13.186,2.81466667 L13.6573333,3.286 L3.286,13.6566667 L2.81466667,13.1853333 C2.55441206,12.9250001 2.55441206,12.5029999 2.81466667,12.2426667 Z" id="路径"></path>
                    <path d="M12.714,13.6566667 L2.34333333,3.28533333 L2.81466667,2.814 C3.07499991,2.55374538 3.49700009,2.55374538 3.75733333,2.814 L13.1853333,12.242 C13.310518,12.3670455 13.3808578,12.5367272 13.3808578,12.7136667 C13.3808578,12.8906062 13.310518,13.0602878 13.1853333,13.1853333 L12.714,13.6566667 L12.714,13.6566667 Z" id="路径"></path>
                </g>
            </g>
        </g>
    </g>
</svg>