<?xml version="1.0" encoding="UTF-8"?>
<svg width="16px" height="16px" viewBox="0 0 16 16" version="1.1" xmlns="http://www.w3.org/2000/svg" xmlns:xlink="http://www.w3.org/1999/xlink">
    <title>切换</title>
    <g id="设计稿" stroke="none" stroke-width="1" fill="none" fill-rule="evenodd">
        <g id="页面管理（属性）" transform="translate(-1228.000000, -159.000000)" fill="#2877FF" fill-rule="nonzero">
            <g id="内容区域" transform="translate(416.000000, 146.000000)">
                <g id="编组-19" transform="translate(812.000000, 11.000000)">
                    <g id="切换" transform="translate(0.000000, 2.000000)">
                        <rect id="矩形" opacity="0" x="0" y="0" width="16" height="16"></rect>
                        <path d="M14.3504531,5.125 L14.5669531,5.5 C14.7050313,5.73914062 14.6231094,6.0449375 14.3839688,6.183 C14.3079558,6.22689125 14.2217279,6.25 14.1339531,6.25 L1.125,6.25 C1.05596441,6.25 1,6.19403559 1,6.125 L1,5.25 C1,5.18096441 1.05596441,5.125 1.125,5.125 L13.0513906,5.125 L11.3913906,2.24995312 C11.3467324,2.17260286 11.3467324,2.07730339 11.3913906,1.99995313 L11.8605,1.18748438 C11.8828299,1.14881234 11.9240941,1.12498987 11.96875,1.12498987 C12.0134059,1.12498987 12.0546701,1.14881234 12.077,1.18748438 L14.3504375,5.125 L14.3504531,5.125 Z M1.64953125,10.875 L1.43303125,10.5 C1.29495312,10.2608594 1.376875,9.9550625 1.61601562,9.817 C1.69203318,9.7731061 1.77826679,9.75 1.86604687,9.75 L14.875,9.75 C14.9440356,9.75 15,9.80596441 15,9.875 L15,10.75 C15,10.8190356 14.9440356,10.875 14.875,10.875 L2.94860937,10.875 L4.60860938,13.7500469 C4.65326757,13.8273971 4.65326757,13.9226966 4.60860938,14.0000469 L4.1395,14.8125156 C4.11717007,14.8511877 4.07590593,14.8750101 4.03125,14.8750101 C3.98659407,14.8750101 3.94532993,14.8511877 3.923,14.8125156 L1.6495625,10.875 L1.64953125,10.875 Z" id="形状"></path>
                    </g>
                </g>
            </g>
        </g>
    </g>
</svg>