<?xml version="1.0" encoding="UTF-8"?>
<svg width="1040px" height="146px" viewBox="0 0 1040 146" version="1.1" xmlns="http://www.w3.org/2000/svg" xmlns:xlink="http://www.w3.org/1999/xlink">
    <title>tree</title>
    <g id="设计稿" stroke="none" stroke-width="1" fill="none" fill-rule="evenodd">
        <g id="组件" transform="translate(-50.000000, -1298.000000)">
            <g id="tree" transform="translate(50.000000, 1298.000000)">
                <rect id="矩形备份-12" fill="#FFFFFF" x="0" y="0" width="1040" height="146"></rect>
                <path d="M12,12 L1028,12 L1028,52 L12,52 L12,12 Z" id="矩形备份-12"></path>
                <path d="M12,53 L1028,53 L1028,93 L12,93 L12,53 Z" id="矩形备份-14"></path>
                <path d="M12,94 L1028,94 L1028,134 L12,134 L12,94 Z" id="矩形备份-40"></path>
                <text id="根节点" font-family="MicrosoftYaHei, Microsoft YaHei" font-size="14" font-weight="normal" line-spacing="14" fill="#999999">
                    <tspan x="48" y="40">根节点</tspan>
                </text>
                <text id="子节点" font-family="MicrosoftYaHei, Microsoft YaHei" font-size="14" font-weight="normal" line-spacing="14" fill="#999999">
                    <tspan x="72" y="81">子节点</tspan>
                </text>
                <text id="子节点备份" font-family="MicrosoftYaHei, Microsoft YaHei" font-size="14" font-weight="normal" line-spacing="14" fill="#999999">
                    <tspan x="72" y="122">子节点</tspan>
                </text>
                <g id="arrow-down" transform="translate(24.000000, 24.000000)" fill-rule="nonzero">
                    <rect id="矩形" fill="#000000" opacity="0" x="0" y="0" width="16" height="16"></rect>
                    <path d="M14.4066667,6.47333333 L8.94,11.9333333 C8.41995006,12.4502981 7.58004994,12.4502981 7.06,11.9333333 L1.59333333,6.47333333 C1.4010267,6.28260635 1.34322543,5.9944888 1.44708604,5.74434566 C1.55094664,5.49420251 1.79582329,5.33175825 2.06666667,5.33332198 L13.9333333,5.33332198 C14.2041767,5.33175825 14.4490534,5.49420251 14.552914,5.74434566 C14.6567746,5.9944888 14.5989733,6.28260635 14.4066667,6.47333333 Z" id="路径" fill="#CCCCCC"></path>
                </g>
                <g id="arrow-down备份" transform="translate(56.000000, 73.000000) rotate(-90.000000) translate(-56.000000, -73.000000) translate(48.000000, 65.000000)" fill-rule="nonzero">
                    <rect id="矩形" fill="#000000" opacity="0" x="0" y="0" width="16" height="16"></rect>
                    <path d="M14.4066667,6.47333333 L8.94,11.9333333 C8.41995006,12.4502981 7.58004994,12.4502981 7.06,11.9333333 L1.59333333,6.47333333 C1.4010267,6.28260635 1.34322543,5.9944888 1.44708604,5.74434566 C1.55094664,5.49420251 1.79582329,5.33175825 2.06666667,5.33332198 L13.9333333,5.33332198 C14.2041767,5.33175825 14.4490534,5.49420251 14.552914,5.74434566 C14.6567746,5.9944888 14.5989733,6.28260635 14.4066667,6.47333333 Z" id="路径" fill="#CCCCCC"></path>
                </g>
                <g id="arrow-down备份-2" transform="translate(56.000000, 114.000000) rotate(-90.000000) translate(-56.000000, -114.000000) translate(48.000000, 106.000000)" fill-rule="nonzero">
                    <rect id="矩形" fill="#000000" opacity="0" x="0" y="0" width="16" height="16"></rect>
                    <path d="M14.4066667,6.47333333 L8.94,11.9333333 C8.41995006,12.4502981 7.58004994,12.4502981 7.06,11.9333333 L1.59333333,6.47333333 C1.4010267,6.28260635 1.34322543,5.9944888 1.44708604,5.74434566 C1.55094664,5.49420251 1.79582329,5.33175825 2.06666667,5.33332198 L13.9333333,5.33332198 C14.2041767,5.33175825 14.4490534,5.49420251 14.552914,5.74434566 C14.6567746,5.9944888 14.5989733,6.28260635 14.4066667,6.47333333 Z" id="路径" fill="#CCCCCC"></path>
                </g>
            </g>
        </g>
    </g>
</svg>